<?xml version="1.0" encoding="UTF-8" standalone="no"?><!DOCTYPE svg PUBLIC "-//W3C//DTD SVG 1.1//EN" "http://www.w3.org/Graphics/SVG/1.1/DTD/svg11.dtd"><svg width="100%" height="100%" viewBox="0 0 284 118" version="1.1" xmlns="http://www.w3.org/2000/svg" xmlns:xlink="http://www.w3.org/1999/xlink" xml:space="preserve" style="fill-rule:evenodd;clip-rule:evenodd;stroke-linejoin:round;stroke-miterlimit:2;"><g><g><g><path d="M35.2,68l-2.5,0c0,0 -9,8.3 -9.7,9c-0.1,-0.4 -0.2,-0.8 -0.2,-1.8c0,-2.9 1.8,-4 3.5,-4c0.3,0 1,0 1.7,0.4l2.8,-3.1c-0.7,-0.3 -2.1,-1 -4.5,-1c-5,0 -8.6,3.1 -8.6,7.5c0,4.7 2.9,8 8.6,8c5.4,0 8.6,-3.1 8.6,-8c0,-3 -1.6,-4.7 -2,-5l2.3,-2Zm-9,11.4c-1.1,0 -1.9,-0.4 -2.5,-0.9c0,0 5.6,-5.1 5.7,-5.2c0.1,0.1 0.3,0.7 0.3,1.9c0,1.2 -0.3,4.2 -3.5,4.2Z" style="fill-rule:nonzero;"/><path d="M49.1,77.4l-2.4,-0.4c2,0 5.1,-0.7 5.1,-4.6c0,-3.9 -3.9,-4.3 -6.9,-4.3l-7.8,0l0,14.6l5.1,0l0,-5.1l1.4,0l3.3,5.1l6.1,0l-3.9,-5.3Zm-4.8,-2.9l-2.1,0l0,-3.4l2.1,0c1.6,0 2.5,0.4 2.5,1.7c-0.1,1.3 -0.9,1.7 -2.5,1.7Z" style="fill-rule:nonzero;"/><path d="M53.3,81.2c0,0 2.1,-2.9 2.2,-3c0.7,0.5 2.3,1.5 4.7,1.5c2.5,0 2.8,-0.7 2.8,-1.2c0,-0.8 -1.1,-1.1 -2.8,-1.3c-1,-0.1 -6.9,-0.3 -6.9,-4.5c0,-4.1 4.3,-5.1 7.1,-5.1c3.2,0 5.5,0.6 7.1,1.4c0,0 -2,2.8 -2.2,3c-0.5,-0.4 -2.2,-0.9 -4,-0.9c-1.8,0 -2.8,0.4 -2.8,1.1c0,0.8 0.6,1 3.9,1.3c3.4,0.3 5.7,1.4 5.7,4.5c0,3 -2.4,5.1 -7.7,5.1c-4.5,0 -6.6,-1.6 -7.1,-1.9Z" style="fill-rule:nonzero;"/><path d="M70.1,82.6l0,-14.5l13.3,0l0,3.1l-8.2,0l0,2.6l6.6,0l0,3.1l-6.6,0l0,2.6l8.3,0l0,3.1l-13.4,0Z" style="fill-rule:nonzero;"/><rect x="103.2" y="77.9" width="4.8" height="4.8"/><path d="M85.6,82.6l0,-14.5l5.4,0l3.6,5.5c1.5,2.4 2.3,4 2.3,4l-0.5,-3.8l0,-5.7l4.8,0l0,14.6l-5.5,0l-4.2,-6.5c0,0 -0.4,-0.6 -0.8,-1.4c-0.4,-0.8 -0.8,-1.5 -0.8,-1.5l0.6,3.6l0,5.8l-4.9,0l0,-0.1Z" style="fill-rule:nonzero;"/><path d="M14.5,75.5c-0.6,-0.1 -2.3,-0.4 -2.3,-0.4l2.1,-0.4c0.6,-0.3 1.6,-1.3 1.6,-3.1c0,-2.9 -2.6,-3.6 -5.9,-3.6l-9,0l0,14.6l9.1,0c4,0 6.1,-1.1 6.1,-4.2c0.2,-1.6 -0.9,-2.6 -1.7,-2.9Zm-8.4,-4.4l3,0c1.2,0 1.6,0.6 1.6,1.2c0,0.6 -0.1,1.4 -1.6,1.4l-3,0l0,-2.6Zm3.1,8.4l-3,0l0,-2.8l3,0c1.4,0 2,0.5 2,1.4c0,0.8 -0.5,1.4 -2,1.4Z" style="fill-rule:nonzero;"/></g><g><path d="M23.2,114.6c-0.5,0.3 -1.1,0.6 -1.9,0.9c-0.7,0.3 -1.5,0.6 -2.3,0.8c-0.8,0.2 -1.6,0.4 -2.4,0.6c-0.8,0.2 -1.5,0.2 -2.2,0.2c-2.2,0 -4.2,-0.3 -6,-0.9c-1.8,-0.6 -3.3,-1.5 -4.5,-2.8c-1.2,-1.2 -2.2,-2.8 -2.9,-4.7c-0.7,-1.9 -1,-4.1 -1,-6.8c0,-2.7 0.4,-5 1.2,-7c0.8,-1.8 1.8,-3.3 3.2,-4.5c1.3,-1.2 2.8,-2.1 4.5,-2.6c1.7,-0.5 3.4,-0.8 5.1,-0.8c1.8,0 3.4,0.1 4.6,0.4c1.3,0.2 2.4,0.6 3.3,1.1l0,1.5c0,0.6 -0.1,1.2 -0.1,1.9c-0.1,0.7 -0.1,1.3 -0.2,2c-0.1,0.7 -0.2,1.2 -0.2,1.7l-1.1,0l-2.2,-6c-0.3,-0.2 -0.8,-0.3 -1.5,-0.3c-0.7,-0.1 -1.4,-0.1 -2.1,-0.1c-1.4,0 -2.7,0.3 -3.9,0.8c-1.2,0.5 -2.3,1.3 -3.3,2.4c-0.9,1.1 -1.7,2.4 -2.2,4c-0.6,1.6 -0.8,3.5 -0.8,5.7c0,2 0.3,3.8 0.8,5.3c0.5,1.6 1.3,2.9 2.2,4.1c1,1.1 2.1,2 3.4,2.6c1.3,0.6 2.7,0.9 4.2,0.9c0.6,0 1.1,-0.1 1.6,-0.2c0.5,-0.1 1,-0.2 1.5,-0.4c0.4,-0.2 0.8,-0.3 1.1,-0.5c0.3,-0.2 0.5,-0.3 0.6,-0.4l0,-8.4c-0.7,-0.1 -1.4,-0.2 -2.1,-0.4c-0.7,-0.2 -1.3,-0.4 -1.9,-0.6l0,-1.2l10.2,0l0,1.2c-0.3,0.2 -0.6,0.4 -1,0.5c-0.4,0.2 -0.9,0.3 -1.6,0.5l0,9.5l-0.1,0Z" style="fill:#847c6c;fill-rule:nonzero;"/><path d="M33.8,116.6l-9.3,0l0,-1.2c1,-0.4 2,-0.8 3,-1l10.5,-27.5l1.2,0l10.5,27.5c0.6,0.1 1.1,0.2 1.6,0.4c0.5,0.1 1,0.3 1.5,0.6l0,1.2l-10.5,0l0,-1.2c0.6,-0.2 1.1,-0.4 1.7,-0.6c0.6,-0.2 1.2,-0.3 1.7,-0.4l-2.8,-7.6l-9.9,0l-2.7,7.6c1.2,0.2 2.4,0.5 3.6,1l0,1.2l-0.1,0Zm0,-12l8.4,0l-3.3,-8.8l-0.8,-3.6l-0.1,0l-1,3.7l-3.2,8.7Z" style="fill:#847c6c;fill-rule:nonzero;"/><path d="M74.8,108.6l1.1,0c0.1,0.6 0.2,1.2 0.2,1.9c0.1,0.7 0.1,1.4 0.2,2.1c0,0.7 0.1,1.4 0.1,2.1l0,1.9l-22.2,0l0,-2.1l17.3,-24.9l-12.8,0l-2.5,5.8l-1,0c-0.1,-0.6 -0.2,-1.2 -0.2,-1.9c-0.1,-0.7 -0.1,-1.4 -0.2,-2.1c0,-0.7 -0.1,-1.4 -0.1,-2.1l0,-1.9l21.3,0l0,2.2l-17.3,24.8l13.6,0l2.5,-5.8Z" style="fill:#847c6c;fill-rule:nonzero;"/><path d="M99.5,87.4c0,1.1 -0.1,2.2 -0.1,3.4c-0.1,1.1 -0.2,2.3 -0.3,3.4l-1.1,0l-1.7,-4.6l-9.1,0l0,11l6.8,0l1.6,-3.1l1,0c0.2,2.8 0.2,5.6 0,8.4l-1,0l-1.6,-3.2l-6.8,0l0,11.6l9.6,0l2,-5l1,0c0.2,1.2 0.3,2.3 0.4,3.5c0.1,1.2 0.1,2.4 0,3.6l-20.4,0l0,-1.2c1,-0.4 2.1,-0.8 3.4,-1l0,-24.5c-0.6,-0.1 -1.1,-0.3 -1.7,-0.4c-0.6,-0.2 -1.2,-0.4 -1.7,-0.6l0,-1.2l19.7,0l0,-0.1Z" style="fill:#847c6c;fill-rule:nonzero;"/><path d="M104.5,87.4l11.4,0l0,1.2c-0.7,0.3 -1.3,0.5 -2,0.6c-0.7,0.2 -1.3,0.3 -2,0.4l0,24.8l9.6,0l2.5,-6.7l1.1,0c0.1,0.6 0.2,1.3 0.2,2c0.1,0.8 0.1,1.6 0.2,2.4c0,0.8 0.1,1.6 0.1,2.4l0,2.1l-21,0l0,-1.2c0.7,-0.3 1.3,-0.5 1.8,-0.7c0.6,-0.1 1.1,-0.3 1.6,-0.3l0,-24.7c-0.6,-0.1 -1.3,-0.3 -1.8,-0.4c-0.6,-0.2 -1.1,-0.4 -1.6,-0.6l0,-1.3l-0.1,0Z" style="fill:#847c6c;fill-rule:nonzero;"/><path d="M127.7,87.4l11.4,0l0,1.2c-0.7,0.3 -1.3,0.5 -2,0.6c-0.7,0.2 -1.3,0.3 -2,0.4l0,24.8l9.6,0l2.5,-6.7l1.1,0c0.1,0.6 0.2,1.3 0.2,2c0.1,0.8 0.1,1.6 0.2,2.4c0,0.8 0.1,1.6 0.1,2.4l0,2.1l-21,0l0,-1.2c0.7,-0.3 1.3,-0.5 1.8,-0.7c0.6,-0.1 1.1,-0.3 1.6,-0.3l0,-24.7c-0.6,-0.1 -1.3,-0.3 -1.8,-0.4c-0.6,-0.2 -1.1,-0.4 -1.6,-0.6l0,-1.3l-0.1,0Z" style="fill:#847c6c;fill-rule:nonzero;"/><path d="M170.3,87.4c0,1.1 -0.1,2.2 -0.1,3.4c-0.1,1.1 -0.2,2.3 -0.3,3.4l-1.1,0l-1.7,-4.6l-9.1,0l0,11l6.8,0l1.6,-3.1l1,0c0.2,2.8 0.2,5.6 0,8.4l-1,0l-1.6,-3.2l-6.8,0l0,11.6l9.6,0l2,-5l1,0c0.2,1.2 0.3,2.3 0.4,3.5c0.1,1.2 0.1,2.4 0,3.6l-20.5,0l0,-1.2c1,-0.4 2.1,-0.8 3.4,-1l0,-24.5c-0.6,-0.1 -1.1,-0.3 -1.7,-0.4c-0.6,-0.2 -1.2,-0.4 -1.7,-0.6l0,-1.2l19.8,0l0,-0.1Z" style="fill:#847c6c;fill-rule:nonzero;"/></g></g><g><path d="M256.72,74.75l2.64,0l24.1,-24.2l-2.14,-3.61l-24.6,27.81Z" style="fill:url(#_Linear1);fill-rule:nonzero;"/><path d="M254.19,7.97l23.8,6.76l0.01,2.16l-28.58,8.9l4.77,-17.82Z" style="fill:url(#_Linear2);fill-rule:nonzero;"/><path d="M254.19,7.97l-28.16,-7.97l26.09,15.72l2.07,-7.75Z" style="fill:url(#_Linear3);fill-rule:nonzero;"/><path d="M254.19,7.97l-12.7,8.51l5,3l5.63,-3.76l2.07,-7.75Z" style="fill:url(#_Linear4);fill-rule:nonzero;"/><path d="M249.42,25.79l8.95,11.3l8.95,11.4l6.88,-13.46l-11.06,-13.51l-13.72,4.27Z" style="fill:url(#_Linear5);fill-rule:nonzero;"/><path d="M233.9,51.03l24.47,-13.94l-18.18,31.23l-6.29,-17.29Z" style="fill:url(#_Linear6);fill-rule:nonzero;"/><path d="M226.84,67.15l13.35,1.17l-6.29,-17.29l-7.06,16.12Z" style="fill:url(#_Linear7);fill-rule:nonzero;"/><path d="M216.23,51.56l17.67,-0.53l-10.38,23.69l-18.01,9.47l10.72,-32.63Z" style="fill:url(#_Linear8);fill-rule:nonzero;"/><path d="M195.6,81.6l14.19,-10.43l-4.28,13.02l-15.25,8.42l5.34,-11.01Z" style="fill:url(#_Linear9);fill-rule:nonzero;"/><path d="M181.11,116.69l18.1,-29.02l-8.95,4.94l-11.82,24.07l2.67,0.01Z" style="fill:url(#_Linear10);fill-rule:nonzero;"/><path d="M203.77,63.67l8.24,0.73l4.22,-12.84l-12.46,12.11Z" style="fill:url(#_Linear11);fill-rule:nonzero;"/><path d="M258.37,37.09l8.95,11.4l-16.65,1.83l7.7,-13.23Z" style="fill:url(#_Linear12);fill-rule:nonzero;"/><path d="M250.67,50.32l30.65,-3.38l2.14,3.61l-43.27,17.77l10.48,-18Z" style="fill:url(#_Linear13);fill-rule:nonzero;"/></g></g><g><path d="M195.8,106.1l-0.5,0c-0.2,-0.4 -0.3,-0.9 -0.5,-1.4c-0.2,-0.5 -0.3,-1.1 -0.4,-1.5c0.5,-0.4 1.1,-0.7 1.7,-1c0.7,-0.2 1.4,-0.4 2.2,-0.4c0.7,0 1.3,0.1 1.8,0.3c0.5,0.2 0.9,0.5 1.2,0.8c0.3,0.3 0.6,0.7 0.7,1.2c0.2,0.4 0.2,0.9 0.2,1.4c0,0.8 -0.2,1.6 -0.5,2.4c-0.4,0.8 -0.8,1.6 -1.3,2.4c-0.5,0.8 -1.1,1.5 -1.7,2.2c-0.6,0.7 -1.2,1.3 -1.7,1.8l-0.9,0.8l0,0.1l1.2,-0.1l3.6,0l1,-2.3l0.5,0c0,0.3 0.1,0.6 0.1,1c0,0.4 0.1,0.7 0.1,1.1c0,0.4 0,0.7 0.1,1.1c0.1,0.4 0,0.6 0,0.9l-8.6,0l0,-0.7c0.3,-0.3 0.7,-0.7 1.1,-1.2c0.4,-0.5 0.9,-1 1.4,-1.5c0.5,-0.6 0.9,-1.1 1.4,-1.8c0.5,-0.6 0.9,-1.3 1.2,-1.9c0.4,-0.6 0.7,-1.3 0.9,-1.9c0.2,-0.6 0.3,-1.2 0.3,-1.8c0,-0.4 -0.1,-0.8 -0.2,-1.1c-0.1,-0.3 -0.3,-0.7 -0.5,-0.9c-0.2,-0.3 -0.5,-0.5 -0.8,-0.6c-0.3,-0.2 -0.6,-0.2 -1,-0.2c-0.3,0 -0.5,0 -0.8,0.1c-0.2,0 -0.5,0.1 -0.7,0.2l-0.6,2.5Z" style="fill:#847c6c;fill-rule:nonzero;"/><path d="M204.4,109.3c0,-2.5 0.4,-4.4 1.2,-5.6c0.8,-1.3 2,-1.9 3.6,-1.9c1.7,0 2.9,0.6 3.7,1.9c0.8,1.2 1.2,3.1 1.2,5.7c0,2.5 -0.4,4.4 -1.3,5.6c-0.8,1.3 -2.1,1.9 -3.7,1.9c-0.8,0 -1.6,-0.2 -2.2,-0.5c-0.6,-0.3 -1.1,-0.8 -1.5,-1.5c-0.4,-0.6 -0.6,-1.4 -0.8,-2.4c-0.2,-1 -0.2,-2 -0.2,-3.2Zm1.9,0c0,1 0,1.9 0.1,2.7c0.1,0.8 0.3,1.5 0.5,2.1c0.2,0.6 0.5,1 0.8,1.4c0.3,0.3 0.8,0.5 1.2,0.5c1.1,0 1.9,-0.5 2.3,-1.6c0.4,-1.1 0.7,-2.8 0.7,-5c0,-1 0,-1.9 -0.1,-2.7c-0.1,-0.8 -0.2,-1.5 -0.5,-2.1c-0.2,-0.6 -0.5,-1 -0.9,-1.3c-0.4,-0.3 -0.8,-0.5 -1.4,-0.5c-1,0 -1.8,0.5 -2.2,1.6c-0.2,1 -0.5,2.6 -0.5,4.9Z" style="fill:#847c6c;fill-rule:nonzero;"/><path d="M222.2,116.6l-6.1,0l0,-0.6c0.3,-0.2 0.7,-0.3 1,-0.4c0.4,-0.1 0.7,-0.2 1.1,-0.3l0,-10.2l0.1,-1.2c-0.4,0.2 -0.8,0.3 -1.2,0.3c-0.4,0.1 -0.8,0.1 -1.3,0.1l-0.1,-0.5c0.6,-0.2 1.3,-0.5 2,-0.8c0.7,-0.3 1.3,-0.7 1.9,-1.2l0.5,0l0,13.5c0.3,0.1 0.7,0.2 1,0.3c0.3,0.1 0.7,0.3 1,0.4l0,0.6l0.1,0Z" style="fill:#847c6c;fill-rule:nonzero;"/><path d="M223.4,113.3c0,-0.5 0.1,-0.9 0.2,-1.3c0.1,-0.4 0.4,-0.8 0.7,-1.1c0.3,-0.3 0.7,-0.6 1.1,-0.9c0.4,-0.3 0.9,-0.5 1.3,-0.6c-0.4,-0.2 -0.8,-0.4 -1.1,-0.7c-0.3,-0.3 -0.6,-0.5 -0.9,-0.9c-0.3,-0.4 -0.4,-0.7 -0.6,-1c-0.1,-0.4 -0.2,-0.8 -0.2,-1.3c0,-0.5 0.1,-1 0.3,-1.5c0.2,-0.4 0.5,-0.8 0.8,-1.1c0.3,-0.3 0.8,-0.6 1.3,-0.7c0.5,-0.1 1.1,-0.3 1.7,-0.3c1.2,0 2.2,0.3 2.9,0.9c0.7,0.6 1,1.4 1,2.4c0,0.8 -0.3,1.5 -0.8,2.1c-0.5,0.6 -1.2,1.1 -2.1,1.5c0.5,0.2 0.9,0.5 1.4,0.8c0.4,0.3 0.8,0.6 1.1,1c0.3,0.4 0.5,0.8 0.7,1.2c0.2,0.4 0.3,0.9 0.3,1.4c0,0.5 -0.1,1 -0.3,1.5c-0.2,0.5 -0.5,0.9 -0.9,1.2c-0.4,0.3 -0.9,0.6 -1.5,0.8c-0.6,0.2 -1.2,0.3 -2,0.3c-0.8,0 -1.4,-0.1 -2,-0.3c-0.6,-0.2 -1,-0.5 -1.4,-0.8c-0.4,-0.3 -0.6,-0.7 -0.8,-1.1c-0.2,-0.6 -0.2,-1 -0.2,-1.5Zm7.2,0.1c0,-0.5 -0.1,-0.9 -0.3,-1.3c-0.2,-0.4 -0.4,-0.7 -0.7,-1c-0.3,-0.3 -0.7,-0.6 -1.1,-0.8c-0.4,-0.3 -0.8,-0.5 -1.2,-0.7c-0.4,0.2 -0.7,0.5 -1,0.8c-0.3,0.3 -0.5,0.6 -0.6,0.9c-0.1,0.3 -0.3,0.6 -0.3,0.9c-0.1,0.3 -0.1,0.6 -0.1,0.9c0,0.3 0.1,0.7 0.2,1c0.1,0.3 0.3,0.6 0.5,0.9c0.2,0.3 0.5,0.5 0.9,0.6c0.4,0.2 0.8,0.3 1.3,0.3c0.4,0 0.8,-0.1 1.1,-0.2c0.3,-0.1 0.6,-0.3 0.8,-0.6c0.2,-0.2 0.4,-0.5 0.5,-0.8c-0.1,-0.3 0,-0.6 0,-0.9Zm-4.9,-8.2c0,0.4 0.1,0.8 0.2,1.1c0.2,0.3 0.4,0.6 0.6,0.9c0.3,0.3 0.6,0.5 0.9,0.7c0.3,0.2 0.7,0.4 1.1,0.6c0.6,-0.5 1,-0.9 1.2,-1.4c0.2,-0.5 0.4,-1 0.4,-1.6c0,-0.9 -0.2,-1.5 -0.6,-2c-0.4,-0.5 -0.9,-0.7 -1.6,-0.7c-0.4,0 -0.7,0.1 -1,0.2c-0.3,0.1 -0.5,0.3 -0.7,0.5c-0.2,0.2 -0.3,0.5 -0.4,0.8c0,0.3 -0.1,0.5 -0.1,0.9Z" style="fill:#847c6c;fill-rule:nonzero;"/></g><defs><linearGradient id="_Linear1" x1="0" y1="0" x2="1" y2="0" gradientUnits="userSpaceOnUse" gradientTransform="matrix(26.7539,-4.50953,4.50953,26.7539,256.714,63.1416)"><stop offset="0" style="stop-color:#cbbca6;stop-opacity:1"/><stop offset="1" style="stop-color:#8d7e6d;stop-opacity:1"/></linearGradient><linearGradient id="_Linear2" x1="0" y1="0" x2="1" y2="0" gradientUnits="userSpaceOnUse" gradientTransform="matrix(29.5385,-3.18425,3.18425,29.5385,249.332,17.1436)"><stop offset="0" style="stop-color:#cbbca6;stop-opacity:1"/><stop offset="1" style="stop-color:#8d7e6d;stop-opacity:1"/></linearGradient><linearGradient id="_Linear3" x1="0" y1="0" x2="1" y2="0" gradientUnits="userSpaceOnUse" gradientTransform="matrix(-28.0232,3.43185e-15,-3.43185e-15,-28.0232,254.156,7.8575)"><stop offset="0" style="stop-color:#cbbca6;stop-opacity:1"/><stop offset="1" style="stop-color:#8d7e6d;stop-opacity:1"/></linearGradient><linearGradient id="_Linear4" x1="0" y1="0" x2="1" y2="0" gradientUnits="userSpaceOnUse" gradientTransform="matrix(11.7031,0,0,11.7031,240.894,13.7205)"><stop offset="0" style="stop-color:#cbbca6;stop-opacity:1"/><stop offset="1" style="stop-color:#8d7e6d;stop-opacity:1"/></linearGradient><linearGradient id="_Linear5" x1="0" y1="0" x2="1" y2="0" gradientUnits="userSpaceOnUse" gradientTransform="matrix(-15.0965,-20.0861,20.0861,-15.0965,271.266,42.9887)"><stop offset="0" style="stop-color:#cbbca6;stop-opacity:1"/><stop offset="0.23" style="stop-color:#c5b6a1;stop-opacity:1"/><stop offset="0.52" style="stop-color:#b5a692;stop-opacity:1"/><stop offset="0.85" style="stop-color:#9b8c7a;stop-opacity:1"/><stop offset="1" style="stop-color:#8d7e6d;stop-opacity:1"/></linearGradient><linearGradient id="_Linear6" x1="0" y1="0" x2="1" y2="0" gradientUnits="userSpaceOnUse" gradientTransform="matrix(-24.277,2.97308e-15,-2.97308e-15,-24.277,258.41,52.7055)"><stop offset="0" style="stop-color:#cbbca6;stop-opacity:1"/><stop offset="1" style="stop-color:#8d7e6d;stop-opacity:1"/></linearGradient><linearGradient id="_Linear7" x1="0" y1="0" x2="1" y2="0" gradientUnits="userSpaceOnUse" gradientTransform="matrix(-12.538,-1.146,1.146,-12.538,240.912,60.0529)"><stop offset="0" style="stop-color:#cbbca6;stop-opacity:1"/><stop offset="1" style="stop-color:#8d7e6d;stop-opacity:1"/></linearGradient><linearGradient id="_Linear8" x1="0" y1="0" x2="1" y2="0" gradientUnits="userSpaceOnUse" gradientTransform="matrix(-15.0154,-0.29244,0.29244,-15.0154,226.114,67.7328)"><stop offset="0" style="stop-color:#cbbca6;stop-opacity:1"/><stop offset="1" style="stop-color:#8d7e6d;stop-opacity:1"/></linearGradient><linearGradient id="_Linear9" x1="0" y1="0" x2="1" y2="0" gradientUnits="userSpaceOnUse" gradientTransform="matrix(-14.7343,1.80443e-15,-1.80443e-15,-14.7343,206.502,81.888)"><stop offset="0" style="stop-color:#cbbca6;stop-opacity:1"/><stop offset="1" style="stop-color:#8d7e6d;stop-opacity:1"/></linearGradient><linearGradient id="_Linear10" x1="0" y1="0" x2="1" y2="0" gradientUnits="userSpaceOnUse" gradientTransform="matrix(-18.3968,29.8854,-29.8854,-18.3968,197.465,85.6993)"><stop offset="0" style="stop-color:#cbbca6;stop-opacity:1"/><stop offset="1" style="stop-color:#8d7e6d;stop-opacity:1"/></linearGradient><linearGradient id="_Linear11" x1="0" y1="0" x2="1" y2="0" gradientUnits="userSpaceOnUse" gradientTransform="matrix(-8.2175,-0.7827,0.7827,-8.2175,212.685,57.8723)"><stop offset="0" style="stop-color:#cbbca6;stop-opacity:1"/><stop offset="1" style="stop-color:#8d7e6d;stop-opacity:1"/></linearGradient><linearGradient id="_Linear12" x1="0" y1="0" x2="1" y2="0" gradientUnits="userSpaceOnUse" gradientTransform="matrix(11.3063,-7.8157,7.8157,11.3063,251.389,50.7093)"><stop offset="0" style="stop-color:#cbbca6;stop-opacity:1"/><stop offset="0.26" style="stop-color:#c0b19c;stop-opacity:1"/><stop offset="0.71" style="stop-color:#a39482;stop-opacity:1"/><stop offset="1" style="stop-color:#8d7e6d;stop-opacity:1"/></linearGradient><linearGradient id="_Linear13" x1="0" y1="0" x2="1" y2="0" gradientUnits="userSpaceOnUse" gradientTransform="matrix(-31.8704,-0.1897,0.1897,-31.8704,282.704,57.7626)"><stop offset="0" style="stop-color:#cbbca6;stop-opacity:1"/><stop offset="0.24" style="stop-color:#c6b7a2;stop-opacity:1"/><stop offset="0.51" style="stop-color:#b9aa96;stop-opacity:1"/><stop offset="0.79" style="stop-color:#a39481;stop-opacity:1"/><stop offset="1" style="stop-color:#8d7e6d;stop-opacity:1"/></linearGradient></defs></svg>