<?xml version="1.0" encoding="UTF-8" standalone="no"?><!DOCTYPE svg PUBLIC "-//W3C//DTD SVG 1.1//EN" "http://www.w3.org/Graphics/SVG/1.1/DTD/svg11.dtd"><svg width="100%" height="100%" viewBox="0 0 284 118" version="1.1" xmlns="http://www.w3.org/2000/svg" xmlns:xlink="http://www.w3.org/1999/xlink" xml:space="preserve" style="fill-rule:evenodd;clip-rule:evenodd;stroke-linejoin:round;stroke-miterlimit:2;"><g><g><g><path d="M35.16,68.02l-2.49,0c0,0 -9,8.3 -9.73,8.95c-0.12,-0.44 -0.22,-0.77 -0.22,-1.77c0,-2.87 1.8,-3.95 3.52,-3.95c0.26,0 1.04,0.01 1.75,0.4l2.76,-3.09c-0.67,-0.33 -2.1,-0.96 -4.51,-0.96c-5.03,0 -8.61,3.11 -8.61,7.47c0,4.75 2.9,7.99 8.62,7.99c5.36,0 8.62,-3.11 8.62,-7.96c0,-2.96 -1.64,-4.66 -1.96,-5.01l2.25,-2.07Zm-8.94,11.39c-1.08,0 -1.93,-0.36 -2.47,-0.89c0,0 5.56,-5.11 5.67,-5.22c0.06,0.12 0.3,0.71 0.3,1.9c0,1.2 -0.37,4.21 -3.5,4.21Z" style="fill-rule:nonzero;"/><path d="M49.12,77.39l-2.4,-0.42c2.03,-0.02 5.05,-0.72 5.05,-4.64c0,-3.91 -3.89,-4.28 -6.94,-4.28l-7.79,0l0,14.59l5.12,0l0,-5.14l1.44,0l3.28,5.14l6.12,0l-3.88,-5.25Zm-4.87,-2.88l-2.08,0l0,-3.4l2.08,0c1.59,0 2.47,0.43 2.47,1.7c0,1.24 -0.82,1.7 -2.47,1.7Z" style="fill-rule:nonzero;"/><path d="M53.34,81.18c0,0 2.12,-2.87 2.2,-2.98c0.67,0.52 2.27,1.45 4.75,1.45c2.46,0 2.77,-0.68 2.77,-1.17c0,-0.82 -1.14,-1.07 -2.83,-1.28c-1.04,-0.13 -6.86,-0.34 -6.86,-4.45c0,-4.14 4.26,-5.14 7.11,-5.14c3.21,0 5.48,0.56 7.09,1.44c0,0 -2.03,2.83 -2.16,3.01c-0.53,-0.38 -2.18,-0.94 -4,-0.94c-1.82,0 -2.82,0.39 -2.82,1.14c0,0.78 0.65,0.97 3.92,1.28c3.42,0.33 5.66,1.43 5.66,4.48c0,2.99 -2.45,5.06 -7.69,5.06c-4.58,0 -6.71,-1.57 -7.14,-1.9Z" style="fill-rule:nonzero;"/><path d="M70.06,82.64l0,-14.59l13.36,0l0,3.17l-8.26,0l0,2.54l6.66,0l0,3.14l-6.66,0l0,2.58l8.32,0l0,3.16l-13.42,0Z" style="fill-rule:nonzero;"/><rect x="103.23" y="77.85" width="4.79" height="4.79"/><path d="M85.58,82.64l0,-14.59l5.41,0c0,0 3.59,5.47 3.63,5.54c1.48,2.38 2.26,4 2.26,4l-0.54,-3.85l0,-5.69l4.77,0l0,14.59l-5.49,0l-4.19,-6.52c0,0 -0.42,-0.63 -0.84,-1.38c-0.44,-0.79 -0.81,-1.47 -0.81,-1.47l0.57,3.56l0,5.81l-4.77,0Z" style="fill-rule:nonzero;"/><path d="M14.51,75.47c-0.65,-0.11 -2.28,-0.36 -2.28,-0.36l2.14,-0.38c0.6,-0.3 1.56,-1.25 1.56,-3.09c0,-2.94 -2.64,-3.59 -5.87,-3.59l-8.97,0l0,14.59l9.14,0c4,0 6.13,-1.12 6.12,-4.18c0,-1.68 -1.04,-2.65 -1.84,-2.99Zm-8.37,-4.34l3.02,0c1.2,0 1.61,0.55 1.61,1.15c0,0.6 -0.1,1.37 -1.62,1.37l-3.01,0l0,-2.52Zm3.01,8.37l-3.01,0l0,-2.83l3.01,0c1.45,0 2.02,0.51 2.01,1.37c-0.01,0.9 -0.46,1.46 -2.01,1.46Z" style="fill-rule:nonzero;"/></g><g><path d="M23.17,114.61c-0.53,0.3 -1.15,0.6 -1.85,0.9c-0.71,0.29 -1.46,0.56 -2.25,0.79c-0.79,0.24 -1.58,0.43 -2.38,0.58c-0.8,0.15 -1.53,0.23 -2.23,0.23c-2.22,0 -4.22,-0.3 -6,-0.9c-1.78,-0.6 -3.29,-1.51 -4.54,-2.75c-1.25,-1.24 -2.22,-2.8 -2.9,-4.69c-0.68,-1.89 -1.02,-4.14 -1.02,-6.75c0,-2.72 0.4,-5.04 1.19,-6.96c0.79,-1.92 1.85,-3.48 3.17,-4.69c1.32,-1.21 2.82,-2.08 4.5,-2.62c1.68,-0.54 3.4,-0.81 5.15,-0.81c1.83,0 3.38,0.12 4.65,0.35c1.26,0.24 2.37,0.59 3.31,1.06c0,0.42 -0.01,0.93 -0.04,1.54c-0.03,0.61 -0.07,1.25 -0.12,1.92c-0.05,0.67 -0.12,1.33 -0.21,1.98c-0.09,0.65 -0.17,1.23 -0.25,1.73l-1.08,0l-2.17,-6c-0.31,-0.17 -0.82,-0.28 -1.54,-0.33c-0.72,-0.05 -1.43,-0.08 -2.12,-0.08c-1.39,0 -2.7,0.26 -3.95,0.77c-1.25,0.51 -2.33,1.31 -3.26,2.38c-0.94,1.06 -1.68,2.4 -2.23,4.03c-0.56,1.62 -0.83,3.54 -0.83,5.73c0,1.97 0.27,3.75 0.81,5.33c0.54,1.58 1.29,2.94 2.25,4.06c0.96,1.12 2.08,1.99 3.37,2.6c1.29,0.61 2.68,0.92 4.18,0.92c0.55,0 1.09,-0.06 1.62,-0.17c0.53,-0.11 1.01,-0.24 1.46,-0.4c0.44,-0.15 0.81,-0.31 1.1,-0.48c0.29,-0.16 0.49,-0.3 0.6,-0.42l0,-8.42c-0.72,-0.06 -1.41,-0.18 -2.06,-0.38c-0.65,-0.2 -1.3,-0.4 -1.94,-0.63l0,-1.21l10.21,0l0,1.21c-0.28,0.2 -0.61,0.38 -1,0.54c-0.39,0.16 -0.92,0.32 -1.58,0.46l-0.02,9.58Z" style="fill:#b2a28a;fill-rule:nonzero;"/><path d="M33.79,116.61l-9.25,0l0,-1.21c1,-0.44 2,-0.78 3,-1l10.54,-27.47l1.21,0l10.54,27.47c0.56,0.11 1.1,0.24 1.65,0.38c0.54,0.14 1.05,0.35 1.52,0.62l0,1.21l-10.75,0l0,-1.21c0.56,-0.22 1.12,-0.42 1.71,-0.58c0.58,-0.16 1.15,-0.31 1.71,-0.42l-2.82,-7.63l-9.91,0l-2.74,7.63c1.17,0.17 2.36,0.5 3.58,1l0.01,1.21Zm-0.02,-12.01l8.37,0l-3.27,-8.84l-0.79,-3.58l-0.08,0l-1.04,3.67l-3.19,8.75Z" style="fill:#b2a28a;fill-rule:nonzero;"/><path d="M74.81,108.61l1.08,0c0.08,0.56 0.16,1.18 0.23,1.88c0.07,0.69 0.12,1.4 0.17,2.13c0.04,0.72 0.07,1.43 0.08,2.13c0.01,0.7 0.01,1.32 -0.02,1.88l-22.13,0l0,-2.13l17.34,-24.9l-12.83,0l-2.54,5.84l-1.04,0c-0.08,-0.58 -0.16,-1.22 -0.23,-1.92c-0.07,-0.69 -0.12,-1.4 -0.17,-2.12c-0.04,-0.72 -0.07,-1.42 -0.08,-2.1c-0.01,-0.68 -0.02,-1.3 -0.02,-1.85l21.3,0l0,2.17l-17.25,24.84l13.59,0l2.52,-5.85Z" style="fill:#b2a28a;fill-rule:nonzero;"/><path d="M99.52,87.43c-0.03,1.11 -0.08,2.23 -0.15,3.35c-0.07,1.12 -0.17,2.26 -0.31,3.4l-1.08,0l-1.71,-4.58l-9.09,0l0,11.04l6.79,0l1.63,-3.08l1.04,0c0.17,2.75 0.17,5.56 0,8.42l-1.04,0l-1.63,-3.17l-6.79,0l0,11.63l9.59,0l2.04,-5l1.04,0c0.19,1.17 0.33,2.35 0.42,3.54c0.08,1.2 0.1,2.4 0.04,3.62l-20.54,0l0,-1.21c0.97,-0.44 2.11,-0.78 3.42,-1l0,-24.71c-0.56,-0.11 -1.12,-0.26 -1.71,-0.44c-0.58,-0.18 -1.15,-0.38 -1.71,-0.6l0,-1.21l19.75,0Z" style="fill:#b2a28a;fill-rule:nonzero;"/><path d="M104.45,87.43l11.42,0l0,1.21c-0.67,0.25 -1.33,0.47 -2,0.65c-0.67,0.18 -1.33,0.31 -2,0.4l0,24.76l9.59,0l2.46,-6.71l1.08,0c0.08,0.58 0.16,1.26 0.23,2.02c0.07,0.77 0.13,1.56 0.17,2.38c0.04,0.82 0.06,1.62 0.06,2.4c0,0.78 -0.01,1.47 -0.04,2.08l-20.96,0l0,-1.21c0.67,-0.31 1.28,-0.53 1.83,-0.67c0.56,-0.14 1.08,-0.25 1.58,-0.33l0,-24.73c-0.64,-0.11 -1.25,-0.26 -1.83,-0.44c-0.58,-0.18 -1.11,-0.38 -1.58,-0.6l-0.01,-1.21Z" style="fill:#b2a28a;fill-rule:nonzero;"/><path d="M127.65,87.43l11.42,0l0,1.21c-0.67,0.25 -1.33,0.47 -2,0.65c-0.67,0.18 -1.34,0.31 -2,0.4l0,24.76l9.59,0l2.46,-6.71l1.08,0c0.08,0.58 0.16,1.26 0.23,2.02c0.07,0.77 0.12,1.56 0.17,2.38c0.04,0.82 0.06,1.62 0.06,2.4c0,0.78 -0.01,1.47 -0.04,2.08l-20.96,0l0,-1.21c0.67,-0.31 1.28,-0.53 1.83,-0.67c0.55,-0.14 1.08,-0.25 1.58,-0.33l0,-24.73c-0.64,-0.11 -1.25,-0.26 -1.83,-0.44c-0.58,-0.18 -1.11,-0.38 -1.58,-0.6l-0.01,-1.21Z" style="fill:#b2a28a;fill-rule:nonzero;"/><path d="M170.29,87.43c-0.03,1.11 -0.08,2.23 -0.15,3.35c-0.07,1.12 -0.17,2.26 -0.31,3.4l-1.08,0l-1.71,-4.58l-9.09,0l0,11.04l6.79,0l1.62,-3.08l1.04,0c0.17,2.75 0.17,5.56 0,8.42l-1.04,0l-1.62,-3.17l-6.79,0l0,11.63l9.59,0l2.04,-5l1.04,0c0.2,1.17 0.33,2.35 0.42,3.54c0.08,1.2 0.1,2.4 0.04,3.62l-20.55,0l0,-1.21c0.97,-0.44 2.11,-0.78 3.42,-1l0,-24.71c-0.56,-0.11 -1.12,-0.26 -1.71,-0.44c-0.58,-0.18 -1.15,-0.38 -1.71,-0.6l0,-1.21l19.76,0Z" style="fill:#b2a28a;fill-rule:nonzero;"/></g></g><g><path d="M256.72,74.75l2.64,0l24.1,-24.2l-2.14,-3.61l-24.6,27.81Z" style="fill:url(#_Linear1);fill-rule:nonzero;"/><path d="M254.19,7.97l23.8,6.76l0.01,2.16l-28.58,8.9l4.77,-17.82Z" style="fill:url(#_Linear2);fill-rule:nonzero;"/><path d="M254.19,7.97l-28.16,-7.97l26.09,15.72l2.07,-7.75Z" style="fill:url(#_Linear3);fill-rule:nonzero;"/><path d="M254.19,7.97l-12.7,8.51l5,3l5.63,-3.76l2.07,-7.75Z" style="fill:url(#_Linear4);fill-rule:nonzero;"/><path d="M249.42,25.79l8.95,11.3l8.95,11.4l6.88,-13.46l-11.06,-13.51l-13.72,4.27Z" style="fill:url(#_Linear5);fill-rule:nonzero;"/><path d="M233.9,51.03l24.47,-13.94l-18.18,31.23l-6.29,-17.29Z" style="fill:url(#_Linear6);fill-rule:nonzero;"/><path d="M226.84,67.15l13.35,1.17l-6.29,-17.29l-7.06,16.12Z" style="fill:url(#_Linear7);fill-rule:nonzero;"/><path d="M216.23,51.56l17.67,-0.53l-10.38,23.69l-18.01,9.47l10.72,-32.63Z" style="fill:url(#_Linear8);fill-rule:nonzero;"/><path d="M195.6,81.6l14.19,-10.43l-4.28,13.02l-15.25,8.42l5.34,-11.01Z" style="fill:url(#_Linear9);fill-rule:nonzero;"/><path d="M181.11,116.69l18.1,-29.02l-8.95,4.94l-11.82,24.07l2.67,0.01Z" style="fill:url(#_Linear10);fill-rule:nonzero;"/><path d="M203.77,63.67l8.24,0.73l4.22,-12.84l-12.46,12.11Z" style="fill:url(#_Linear11);fill-rule:nonzero;"/><path d="M258.37,37.09l8.95,11.4l-16.65,1.83l7.7,-13.23Z" style="fill:url(#_Linear12);fill-rule:nonzero;"/><path d="M250.67,50.32l30.65,-3.38l2.14,3.61l-43.27,17.77l10.48,-18Z" style="fill:url(#_Linear13);fill-rule:nonzero;"/></g></g><g><path d="M195.84,106.09l-0.52,0c-0.15,-0.4 -0.31,-0.87 -0.47,-1.41c-0.16,-0.54 -0.29,-1.05 -0.4,-1.54c0.48,-0.41 1.07,-0.74 1.74,-0.99c0.68,-0.24 1.41,-0.36 2.2,-0.36c0.69,0 1.29,0.1 1.79,0.29c0.5,0.19 0.91,0.46 1.23,0.79c0.32,0.33 0.56,0.72 0.72,1.15c0.15,0.44 0.23,0.89 0.23,1.36c0,0.77 -0.18,1.57 -0.54,2.39c-0.36,0.82 -0.81,1.61 -1.34,2.38c-0.53,0.77 -1.11,1.49 -1.73,2.17c-0.62,0.68 -1.2,1.27 -1.72,1.78l-0.87,0.81l0,0.08l1.16,-0.12l3.57,0l1.02,-2.32l0.52,0c0.03,0.3 0.05,0.64 0.08,1c0.03,0.36 0.05,0.72 0.07,1.09c0.02,0.37 0.04,0.72 0.05,1.06c0.01,0.34 0.02,0.63 0.02,0.88l-8.57,0l0,-0.66c0.3,-0.32 0.67,-0.71 1.11,-1.16c0.44,-0.46 0.89,-0.96 1.36,-1.51c0.47,-0.55 0.94,-1.14 1.4,-1.76c0.46,-0.62 0.87,-1.26 1.23,-1.9c0.36,-0.64 0.65,-1.28 0.88,-1.92c0.23,-0.64 0.34,-1.24 0.34,-1.82c0,-0.4 -0.05,-0.78 -0.16,-1.14c-0.11,-0.36 -0.26,-0.68 -0.47,-0.94c-0.21,-0.27 -0.46,-0.48 -0.76,-0.63c-0.3,-0.15 -0.64,-0.23 -1.03,-0.23c-0.29,0 -0.55,0.02 -0.77,0.06c-0.22,0.04 -0.46,0.1 -0.73,0.19l-0.64,2.93Z" style="fill:#b9ac96;fill-rule:nonzero;"/><path d="M204.35,109.3c0,-2.49 0.41,-4.36 1.24,-5.62c0.83,-1.26 2.02,-1.89 3.57,-1.89c1.67,0 2.9,0.62 3.67,1.86c0.77,1.24 1.16,3.12 1.16,5.65c0,2.49 -0.42,4.37 -1.26,5.62c-0.84,1.26 -2.07,1.89 -3.7,1.89c-0.84,0 -1.56,-0.17 -2.16,-0.51c-0.6,-0.34 -1.08,-0.83 -1.45,-1.47c-0.37,-0.64 -0.65,-1.43 -0.82,-2.35c-0.17,-0.92 -0.25,-1.99 -0.25,-3.18Zm1.99,0.02c0,0.99 0.05,1.9 0.15,2.71c0.1,0.81 0.25,1.51 0.47,2.1c0.21,0.59 0.49,1.04 0.83,1.35c0.34,0.32 0.75,0.48 1.23,0.48c1.09,0 1.86,-0.54 2.31,-1.61c0.45,-1.08 0.67,-2.75 0.67,-5.03c0,-0.99 -0.04,-1.9 -0.12,-2.71c-0.08,-0.81 -0.24,-1.51 -0.46,-2.09c-0.22,-0.58 -0.52,-1.03 -0.88,-1.35c-0.36,-0.32 -0.83,-0.48 -1.38,-0.48c-1.04,0 -1.77,0.54 -2.19,1.6c-0.42,1.09 -0.63,2.76 -0.63,5.03Z" style="fill:#b9ac96;fill-rule:nonzero;"/><path d="M222.18,116.57l-6.06,0l0,-0.6c0.35,-0.15 0.7,-0.29 1.05,-0.4c0.35,-0.12 0.71,-0.22 1.07,-0.3l0,-10.19l0.08,-1.23c-0.39,0.15 -0.79,0.26 -1.2,0.32c-0.42,0.06 -0.84,0.09 -1.29,0.07l-0.1,-0.5c0.64,-0.21 1.29,-0.47 1.97,-0.78c0.68,-0.31 1.31,-0.7 1.89,-1.17l0.52,0l0,13.47c0.35,0.08 0.69,0.18 1.04,0.3c0.35,0.12 0.69,0.25 1.04,0.4l-0.01,0.61Z" style="fill:#b9ac96;fill-rule:nonzero;"/><path d="M223.32,106.46c0,-0.68 0.1,-1.3 0.3,-1.87c0.2,-0.57 0.5,-1.06 0.89,-1.47c0.39,-0.41 0.88,-0.74 1.45,-0.98c0.57,-0.24 1.23,-0.35 1.98,-0.35c0.8,0 1.5,0.14 2.08,0.4c0.58,0.26 1.08,0.65 1.46,1.13c0.39,0.48 0.67,1.07 0.85,1.77c0.18,0.7 0.27,1.47 0.27,2.31c0,1.29 -0.19,2.48 -0.56,3.57c-0.37,1.09 -0.88,2.05 -1.52,2.87c-0.64,0.82 -1.4,1.49 -2.28,2c-0.88,0.51 -1.82,0.83 -2.83,0.95l-0.37,-0.6c0.82,-0.22 1.54,-0.55 2.17,-0.98c0.63,-0.43 1.17,-0.94 1.62,-1.52c0.45,-0.58 0.81,-1.24 1.09,-1.95c0.28,-0.71 0.47,-1.46 0.58,-2.25c-0.32,0.33 -0.69,0.61 -1.13,0.84c-0.44,0.23 -1.03,0.34 -1.77,0.34c-0.62,0 -1.2,-0.09 -1.72,-0.28c-0.52,-0.19 -0.98,-0.46 -1.35,-0.82c-0.37,-0.36 -0.67,-0.8 -0.88,-1.33c-0.23,-0.5 -0.33,-1.1 -0.33,-1.78Zm1.99,-0.02c0,0.4 0.06,0.79 0.19,1.17c0.12,0.38 0.3,0.72 0.54,1.02c0.23,0.3 0.52,0.54 0.85,0.72c0.33,0.18 0.71,0.27 1.12,0.27c0.66,0 1.21,-0.11 1.65,-0.34c0.44,-0.23 0.76,-0.51 0.96,-0.86c0.03,-0.18 0.04,-0.4 0.04,-0.68l0,-0.63c0,-0.5 -0.05,-1.01 -0.15,-1.52c-0.1,-0.51 -0.27,-0.99 -0.49,-1.4c-0.22,-0.41 -0.51,-0.75 -0.87,-1.02c-0.36,-0.26 -0.79,-0.4 -1.29,-0.4c-0.83,0 -1.46,0.33 -1.9,0.99c-0.43,0.65 -0.65,1.55 -0.65,2.68Z" style="fill:#b9ac96;fill-rule:nonzero;"/></g><defs><linearGradient id="_Linear1" x1="0" y1="0" x2="1" y2="0" gradientUnits="userSpaceOnUse" gradientTransform="matrix(26.7539,-4.50953,4.50953,26.7539,256.714,63.1416)"><stop offset="0" style="stop-color:#cbbca6;stop-opacity:1"/><stop offset="1" style="stop-color:#8d7e6d;stop-opacity:1"/></linearGradient><linearGradient id="_Linear2" x1="0" y1="0" x2="1" y2="0" gradientUnits="userSpaceOnUse" gradientTransform="matrix(29.5385,-3.18425,3.18425,29.5385,249.332,17.1436)"><stop offset="0" style="stop-color:#cbbca6;stop-opacity:1"/><stop offset="1" style="stop-color:#8d7e6d;stop-opacity:1"/></linearGradient><linearGradient id="_Linear3" x1="0" y1="0" x2="1" y2="0" gradientUnits="userSpaceOnUse" gradientTransform="matrix(-28.0232,3.43185e-15,-3.43185e-15,-28.0232,254.156,7.8575)"><stop offset="0" style="stop-color:#cbbca6;stop-opacity:1"/><stop offset="1" style="stop-color:#8d7e6d;stop-opacity:1"/></linearGradient><linearGradient id="_Linear4" x1="0" y1="0" x2="1" y2="0" gradientUnits="userSpaceOnUse" gradientTransform="matrix(11.7031,0,0,11.7031,240.894,13.7205)"><stop offset="0" style="stop-color:#cbbca6;stop-opacity:1"/><stop offset="1" style="stop-color:#8d7e6d;stop-opacity:1"/></linearGradient><linearGradient id="_Linear5" x1="0" y1="0" x2="1" y2="0" gradientUnits="userSpaceOnUse" gradientTransform="matrix(-15.0965,-20.0861,20.0861,-15.0965,271.266,42.9887)"><stop offset="0" style="stop-color:#cbbca6;stop-opacity:1"/><stop offset="0.23" style="stop-color:#c5b6a1;stop-opacity:1"/><stop offset="0.52" style="stop-color:#b5a692;stop-opacity:1"/><stop offset="0.85" style="stop-color:#9b8c7a;stop-opacity:1"/><stop offset="1" style="stop-color:#8d7e6d;stop-opacity:1"/></linearGradient><linearGradient id="_Linear6" x1="0" y1="0" x2="1" y2="0" gradientUnits="userSpaceOnUse" gradientTransform="matrix(-24.277,2.97308e-15,-2.97308e-15,-24.277,258.41,52.7055)"><stop offset="0" style="stop-color:#cbbca6;stop-opacity:1"/><stop offset="1" style="stop-color:#8d7e6d;stop-opacity:1"/></linearGradient><linearGradient id="_Linear7" x1="0" y1="0" x2="1" y2="0" gradientUnits="userSpaceOnUse" gradientTransform="matrix(-12.538,-1.146,1.146,-12.538,240.912,60.0529)"><stop offset="0" style="stop-color:#cbbca6;stop-opacity:1"/><stop offset="1" style="stop-color:#8d7e6d;stop-opacity:1"/></linearGradient><linearGradient id="_Linear8" x1="0" y1="0" x2="1" y2="0" gradientUnits="userSpaceOnUse" gradientTransform="matrix(-15.0154,-0.29244,0.29244,-15.0154,226.114,67.7328)"><stop offset="0" style="stop-color:#cbbca6;stop-opacity:1"/><stop offset="1" style="stop-color:#8d7e6d;stop-opacity:1"/></linearGradient><linearGradient id="_Linear9" x1="0" y1="0" x2="1" y2="0" gradientUnits="userSpaceOnUse" gradientTransform="matrix(-14.7343,1.80443e-15,-1.80443e-15,-14.7343,206.502,81.888)"><stop offset="0" style="stop-color:#cbbca6;stop-opacity:1"/><stop offset="1" style="stop-color:#8d7e6d;stop-opacity:1"/></linearGradient><linearGradient id="_Linear10" x1="0" y1="0" x2="1" y2="0" gradientUnits="userSpaceOnUse" gradientTransform="matrix(-18.3968,29.8854,-29.8854,-18.3968,197.465,85.6993)"><stop offset="0" style="stop-color:#cbbca6;stop-opacity:1"/><stop offset="1" style="stop-color:#8d7e6d;stop-opacity:1"/></linearGradient><linearGradient id="_Linear11" x1="0" y1="0" x2="1" y2="0" gradientUnits="userSpaceOnUse" gradientTransform="matrix(-8.2175,-0.7827,0.7827,-8.2175,212.685,57.8723)"><stop offset="0" style="stop-color:#cbbca6;stop-opacity:1"/><stop offset="1" style="stop-color:#8d7e6d;stop-opacity:1"/></linearGradient><linearGradient id="_Linear12" x1="0" y1="0" x2="1" y2="0" gradientUnits="userSpaceOnUse" gradientTransform="matrix(11.3063,-7.8157,7.8157,11.3063,251.389,50.7093)"><stop offset="0" style="stop-color:#cbbca6;stop-opacity:1"/><stop offset="0.26" style="stop-color:#c0b19c;stop-opacity:1"/><stop offset="0.71" style="stop-color:#a39482;stop-opacity:1"/><stop offset="1" style="stop-color:#8d7e6d;stop-opacity:1"/></linearGradient><linearGradient id="_Linear13" x1="0" y1="0" x2="1" y2="0" gradientUnits="userSpaceOnUse" gradientTransform="matrix(-31.8704,-0.1897,0.1897,-31.8704,282.704,57.7626)"><stop offset="0" style="stop-color:#cbbca6;stop-opacity:1"/><stop offset="0.24" style="stop-color:#c6b7a2;stop-opacity:1"/><stop offset="0.51" style="stop-color:#b9aa96;stop-opacity:1"/><stop offset="0.79" style="stop-color:#a39481;stop-opacity:1"/><stop offset="1" style="stop-color:#8d7e6d;stop-opacity:1"/></linearGradient></defs></svg>