<?xml version="1.0" encoding="UTF-8"?> <!-- Generator: Adobe Illustrator 23.0.6, SVG Export Plug-In . SVG Version: 6.00 Build 0) --> <svg xmlns="http://www.w3.org/2000/svg" xmlns:xlink="http://www.w3.org/1999/xlink" id="Layer_1" x="0px" y="0px" viewBox="0 0 283.46 117.11" style="enable-background:new 0 0 283.46 117.11;" xml:space="preserve"> <style type="text/css"> .st0{fill:#B2A28A;} .st1{fill:url(#SVGID_1_);} .st2{fill:url(#SVGID_2_);} .st3{fill:url(#SVGID_3_);} .st4{fill:url(#SVGID_4_);} .st5{fill:url(#SVGID_5_);} .st6{fill:url(#SVGID_6_);} .st7{fill:url(#SVGID_7_);} .st8{fill:url(#SVGID_8_);} .st9{fill:url(#SVGID_9_);} .st10{fill:url(#SVGID_10_);} .st11{fill:url(#SVGID_11_);} .st12{fill:url(#SVGID_12_);} .st13{fill:url(#SVGID_13_);} .st14{fill:#B9AC96;} </style> <g> <g> <g> <path d="M35.16,68.02h-2.49c0,0-9,8.3-9.73,8.95c-0.12-0.44-0.22-0.77-0.22-1.77c0-2.87,1.8-3.95,3.52-3.95 c0.26,0,1.04,0.01,1.75,0.4l2.76-3.09c-0.67-0.33-2.1-0.96-4.51-0.96c-5.03,0-8.61,3.11-8.61,7.47c0,4.75,2.9,7.99,8.62,7.99 c5.36,0,8.62-3.11,8.62-7.96c0-2.96-1.64-4.66-1.96-5.01L35.16,68.02z M26.22,79.41c-1.08,0-1.93-0.36-2.47-0.89 c0,0,5.56-5.11,5.67-5.22c0.06,0.12,0.3,0.71,0.3,1.9C29.72,76.4,29.35,79.41,26.22,79.41z"></path> <path d="M49.12,77.39l-2.4-0.42c2.03-0.02,5.05-0.72,5.05-4.64c0-3.91-3.89-4.28-6.94-4.28c-3.04,0-7.79,0-7.79,0v14.59h5.12 V77.5h1.44l3.28,5.14h6.12L49.12,77.39z M44.25,74.51c-1.69,0-2.08,0-2.08,0v-3.4c0,0,0.47,0,2.08,0c1.59,0,2.47,0.43,2.47,1.7 C46.72,74.05,45.9,74.51,44.25,74.51z"></path> <path d="M53.34,81.18c0,0,2.12-2.87,2.2-2.98c0.67,0.52,2.27,1.45,4.75,1.45c2.46,0,2.77-0.68,2.77-1.17 c0-0.82-1.14-1.07-2.83-1.28c-1.04-0.13-6.86-0.34-6.86-4.45c0-4.14,4.26-5.14,7.11-5.14c3.21,0,5.48,0.56,7.09,1.44 c0,0-2.03,2.83-2.16,3.01c-0.53-0.38-2.18-0.94-4-0.94s-2.82,0.39-2.82,1.14c0,0.78,0.65,0.97,3.92,1.28 c3.42,0.33,5.66,1.43,5.66,4.48c0,2.99-2.45,5.06-7.69,5.06C55.9,83.08,53.77,81.51,53.34,81.18z"></path> <polygon points="70.06,82.64 70.06,68.05 83.42,68.05 83.42,71.22 75.16,71.22 75.16,73.76 81.82,73.76 81.82,76.9 75.16,76.9 75.16,79.48 83.48,79.48 83.48,82.64 "></polygon> <rect x="103.23" y="77.85" width="4.79" height="4.79"></rect> <path d="M85.58,82.64V68.05h5.41c0,0,3.59,5.47,3.63,5.54c1.48,2.38,2.26,4,2.26,4l-0.54-3.85v-5.69h4.77v14.59h-5.49l-4.19-6.52 c0,0-0.42-0.63-0.84-1.38c-0.44-0.79-0.81-1.47-0.81-1.47l0.57,3.56v5.81L85.58,82.64L85.58,82.64z"></path> <path d="M14.51,75.47c-0.65-0.11-2.28-0.36-2.28-0.36l2.14-0.38c0.6-0.3,1.56-1.25,1.56-3.09c0-2.94-2.64-3.59-5.87-3.59 c-4.18,0-8.97,0-8.97,0v14.59c0,0,5.73,0,9.14,0c4,0,6.13-1.12,6.12-4.18C16.35,76.78,15.31,75.81,14.51,75.47z M6.14,71.13 c0,0,1.87,0,3.02,0c1.2,0,1.61,0.55,1.61,1.15s-0.1,1.37-1.62,1.37s-3.01,0-3.01,0V71.13z M9.15,79.5c-1.72,0-3.01,0-3.01,0 v-2.83c0,0,1.64,0,3.01,0c1.45,0,2.02,0.51,2.01,1.37C11.15,78.94,10.7,79.5,9.15,79.5z"></path> </g> <g> <path class="st0" d="M23.17,114.61c-0.53,0.3-1.15,0.6-1.85,0.9c-0.71,0.29-1.46,0.56-2.25,0.79c-0.79,0.24-1.58,0.43-2.38,0.58 s-1.53,0.23-2.23,0.23c-2.22,0-4.22-0.3-6-0.9c-1.78-0.6-3.29-1.51-4.54-2.75s-2.22-2.8-2.9-4.69C0.34,106.88,0,104.63,0,102.02 c0-2.72,0.4-5.04,1.19-6.96c0.79-1.92,1.85-3.48,3.17-4.69c1.32-1.21,2.82-2.08,4.5-2.62s3.4-0.81,5.15-0.81 c1.83,0,3.38,0.12,4.65,0.35c1.26,0.24,2.37,0.59,3.31,1.06c0,0.42-0.01,0.93-0.04,1.54c-0.03,0.61-0.07,1.25-0.12,1.92 s-0.12,1.33-0.21,1.98s-0.17,1.23-0.25,1.73h-1.08l-2.17-6c-0.31-0.17-0.82-0.28-1.54-0.33c-0.72-0.05-1.43-0.08-2.12-0.08 c-1.39,0-2.7,0.26-3.95,0.77c-1.25,0.51-2.33,1.31-3.26,2.38C6.29,93.32,5.55,94.66,5,96.29c-0.56,1.62-0.83,3.54-0.83,5.73 c0,1.97,0.27,3.75,0.81,5.33c0.54,1.58,1.29,2.94,2.25,4.06c0.96,1.12,2.08,1.99,3.37,2.6c1.29,0.61,2.68,0.92,4.18,0.92 c0.55,0,1.09-0.06,1.62-0.17c0.53-0.11,1.01-0.24,1.46-0.4c0.44-0.15,0.81-0.31,1.1-0.48c0.29-0.16,0.49-0.3,0.6-0.42v-8.42 c-0.72-0.06-1.41-0.18-2.06-0.38c-0.65-0.2-1.3-0.4-1.94-0.63v-1.21h10.21v1.21c-0.28,0.2-0.61,0.38-1,0.54s-0.92,0.32-1.58,0.46 L23.17,114.61L23.17,114.61z"></path> <path class="st0" d="M33.79,116.61h-9.25v-1.21c1-0.44,2-0.78,3-1l10.54-27.47h1.21l10.54,27.47c0.56,0.11,1.1,0.24,1.65,0.38 c0.54,0.14,1.05,0.35,1.52,0.62v1.21H42.25v-1.21c0.56-0.22,1.12-0.42,1.71-0.58c0.58-0.16,1.15-0.31,1.71-0.42l-2.82-7.63h-9.91 l-2.74,7.63c1.17,0.17,2.36,0.5,3.58,1L33.79,116.61L33.79,116.61z M33.77,104.6h8.37l-3.27-8.84l-0.79-3.58H38l-1.04,3.67 L33.77,104.6z"></path> <path class="st0" d="M74.81,108.61h1.08c0.08,0.56,0.16,1.18,0.23,1.88c0.07,0.69,0.12,1.4,0.17,2.13 c0.04,0.72,0.07,1.43,0.08,2.13c0.01,0.7,0.01,1.32-0.02,1.88H54.22v-2.13L71.56,89.6H58.73l-2.54,5.84h-1.04 c-0.08-0.58-0.16-1.22-0.23-1.92c-0.07-0.69-0.12-1.4-0.17-2.12c-0.04-0.72-0.07-1.42-0.08-2.1c-0.01-0.68-0.02-1.3-0.02-1.85 h21.3v2.17l-17.25,24.84h13.59L74.81,108.61z"></path> <path class="st0" d="M99.52,87.43c-0.03,1.11-0.08,2.23-0.15,3.35c-0.07,1.12-0.17,2.26-0.31,3.4h-1.08l-1.71-4.58h-9.09v11.04 h6.79l1.63-3.08h1.04c0.17,2.75,0.17,5.56,0,8.42h-1.04l-1.63-3.17h-6.79v11.63h9.59l2.04-5h1.04c0.19,1.17,0.33,2.35,0.42,3.54 c0.08,1.2,0.1,2.4,0.04,3.62H79.77v-1.21c0.97-0.44,2.11-0.78,3.42-1V89.68c-0.56-0.11-1.12-0.26-1.71-0.44 c-0.58-0.18-1.15-0.38-1.71-0.6v-1.21L99.52,87.43L99.52,87.43z"></path> <path class="st0" d="M104.45,87.43h11.42v1.21c-0.67,0.25-1.33,0.47-2,0.65c-0.67,0.18-1.33,0.31-2,0.4v24.76h9.59l2.46-6.71H125 c0.08,0.58,0.16,1.26,0.23,2.02c0.07,0.77,0.13,1.56,0.17,2.38c0.04,0.82,0.06,1.62,0.06,2.4c0,0.78-0.01,1.47-0.04,2.08h-20.96 v-1.21c0.67-0.31,1.28-0.53,1.83-0.67c0.56-0.14,1.08-0.25,1.58-0.33V89.68c-0.64-0.11-1.25-0.26-1.83-0.44 c-0.58-0.18-1.11-0.38-1.58-0.6L104.45,87.43L104.45,87.43z"></path> <path class="st0" d="M127.65,87.43h11.42v1.21c-0.67,0.25-1.33,0.47-2,0.65c-0.67,0.18-1.34,0.31-2,0.4v24.76h9.59l2.46-6.71 h1.08c0.08,0.58,0.16,1.26,0.23,2.02c0.07,0.77,0.12,1.56,0.17,2.38c0.04,0.82,0.06,1.62,0.06,2.4c0,0.78-0.01,1.47-0.04,2.08 h-20.96v-1.21c0.67-0.31,1.28-0.53,1.83-0.67c0.55-0.14,1.08-0.25,1.58-0.33V89.68c-0.64-0.11-1.25-0.26-1.83-0.44 c-0.58-0.18-1.11-0.38-1.58-0.6L127.65,87.43L127.65,87.43z"></path> <path class="st0" d="M170.29,87.43c-0.03,1.11-0.08,2.23-0.15,3.35c-0.07,1.12-0.17,2.26-0.31,3.4h-1.08l-1.71-4.58h-9.09v11.04 h6.79l1.62-3.08h1.04c0.17,2.75,0.17,5.56,0,8.42h-1.04l-1.62-3.17h-6.79v11.63h9.59l2.04-5h1.04c0.2,1.17,0.33,2.35,0.42,3.54 c0.08,1.2,0.1,2.4,0.04,3.62h-20.55v-1.21c0.97-0.44,2.11-0.78,3.42-1V89.68c-0.56-0.11-1.12-0.26-1.71-0.44 c-0.58-0.18-1.15-0.38-1.71-0.6v-1.21L170.29,87.43L170.29,87.43z"></path> </g> </g> <g> <linearGradient id="SVGID_1_" gradientUnits="userSpaceOnUse" x1="252.9252" y1="-46.5941" x2="279.5301" y2="-46.5941" gradientTransform="matrix(1.0056 -0.1695 -5.000000e-04 -0.9943 2.3493 59.6839)"> <stop offset="0" style="stop-color:#CBBCA6"></stop> <stop offset="1" style="stop-color:#8D7E6D"></stop> </linearGradient> <polygon class="st1" points="256.72,74.75 259.36,74.75 283.46,50.55 281.32,46.94 "></polygon> <linearGradient id="SVGID_2_" gradientUnits="userSpaceOnUse" x1="249.3319" y1="38.8062" x2="278.8704" y2="38.8062" gradientTransform="matrix(1 -0.1078 0 -1 0 82.8278)"> <stop offset="0" style="stop-color:#CBBCA6"></stop> <stop offset="1" style="stop-color:#8D7E6D"></stop> </linearGradient> <polygon class="st2" points="254.19,7.97 277.99,14.73 278,16.89 249.42,25.79 "></polygon> <linearGradient id="SVGID_3_" gradientUnits="userSpaceOnUse" x1="254.1561" y1="115.2485" x2="226.1329" y2="115.2485" gradientTransform="matrix(1 0 0 -1 0 123.106)"> <stop offset="0" style="stop-color:#CBBCA6"></stop> <stop offset="1" style="stop-color:#8D7E6D"></stop> </linearGradient> <polygon class="st3" points="254.19,7.97 226.03,0 252.12,15.72 "></polygon> <linearGradient id="SVGID_4_" gradientUnits="userSpaceOnUse" x1="240.8941" y1="109.3855" x2="252.5972" y2="109.3855" gradientTransform="matrix(1 0 0 -1 0 123.106)"> <stop offset="0" style="stop-color:#CBBCA6"></stop> <stop offset="1" style="stop-color:#8D7E6D"></stop> </linearGradient> <polygon class="st4" points="254.19,7.97 241.49,16.48 246.49,19.48 252.12,15.72 "></polygon> <linearGradient id="SVGID_5_" gradientUnits="userSpaceOnUse" x1="271.2662" y1="80.1173" x2="256.1697" y2="100.2034" gradientTransform="matrix(1 0 0 -1 0 123.106)"> <stop offset="0" style="stop-color:#CBBCA6"></stop> <stop offset="0.2296" style="stop-color:#C5B6A1"></stop> <stop offset="0.5236" style="stop-color:#B5A692"></stop> <stop offset="0.8513" style="stop-color:#9B8C7A"></stop> <stop offset="1" style="stop-color:#8D7E6D"></stop> </linearGradient> <polygon class="st5" points="249.42,25.79 258.37,37.09 267.32,48.49 274.2,35.03 263.14,21.52 "></polygon> <linearGradient id="SVGID_6_" gradientUnits="userSpaceOnUse" x1="258.4099" y1="70.4005" x2="234.1329" y2="70.4005" gradientTransform="matrix(1 0 0 -1 0 123.106)"> <stop offset="0" style="stop-color:#CBBCA6"></stop> <stop offset="1" style="stop-color:#8D7E6D"></stop> </linearGradient> <polygon class="st6" points="233.9,51.03 258.37,37.09 240.19,68.32 "></polygon> <linearGradient id="SVGID_7_" gradientUnits="userSpaceOnUse" x1="240.9118" y1="63.0531" x2="228.3738" y2="64.1991" gradientTransform="matrix(1 0 0 -1 0 123.106)"> <stop offset="0" style="stop-color:#CBBCA6"></stop> <stop offset="1" style="stop-color:#8D7E6D"></stop> </linearGradient> <polygon class="st7" points="226.84,67.15 240.19,68.32 233.9,51.03 "></polygon> <linearGradient id="SVGID_8_" gradientUnits="userSpaceOnUse" x1="226.1136" y1="-9.28" x2="211.0982" y2="-7.3689" gradientTransform="matrix(1 -0.1078 0 -1 0 82.8278)"> <stop offset="0" style="stop-color:#CBBCA6"></stop> <stop offset="1" style="stop-color:#8D7E6D"></stop> </linearGradient> <polygon class="st8" points="216.23,51.56 233.9,51.03 223.52,74.72 205.51,84.19 "></polygon> <linearGradient id="SVGID_9_" gradientUnits="userSpaceOnUse" x1="206.5016" y1="41.218" x2="191.7673" y2="41.218" gradientTransform="matrix(1 0 0 -1 0 123.106)"> <stop offset="0" style="stop-color:#CBBCA6"></stop> <stop offset="1" style="stop-color:#8D7E6D"></stop> </linearGradient> <polygon class="st9" points="195.6,81.6 209.79,71.17 205.51,84.19 190.26,92.61 "></polygon> <linearGradient id="SVGID_10_" gradientUnits="userSpaceOnUse" x1="193.9992" y1="-59.2359" x2="175.6915" y2="-86.1717" gradientTransform="matrix(1.0056 -0.1695 -5.000000e-04 -0.9943 2.3493 59.6839)"> <stop offset="0" style="stop-color:#CBBCA6"></stop> <stop offset="1" style="stop-color:#8D7E6D"></stop> </linearGradient> <polygon class="st10" points="181.11,116.69 199.21,87.67 190.26,92.61 178.44,116.68 "></polygon> <linearGradient id="SVGID_11_" gradientUnits="userSpaceOnUse" x1="212.6853" y1="65.2337" x2="204.4678" y2="66.0164" gradientTransform="matrix(1 0 0 -1 0 123.106)"> <stop offset="0" style="stop-color:#CBBCA6"></stop> <stop offset="1" style="stop-color:#8D7E6D"></stop> </linearGradient> <polygon class="st11" points="203.77,63.67 212.01,64.4 216.23,51.56 "></polygon> <linearGradient id="SVGID_12_" gradientUnits="userSpaceOnUse" x1="251.3889" y1="72.3967" x2="262.6952" y2="80.2124" gradientTransform="matrix(1 0 0 -1 0 123.106)"> <stop offset="0" style="stop-color:#CBBCA6"></stop> <stop offset="0.2577" style="stop-color:#C0B19C"></stop> <stop offset="0.707" style="stop-color:#A39482"></stop> <stop offset="1" style="stop-color:#8D7E6D"></stop> </linearGradient> <polygon class="st12" points="258.37,37.09 267.32,48.49 250.67,50.32 "></polygon> <linearGradient id="SVGID_13_" gradientUnits="userSpaceOnUse" x1="282.7041" y1="65.3434" x2="250.8337" y2="65.5331" gradientTransform="matrix(1 0 0 -1 0 123.106)"> <stop offset="0" style="stop-color:#CBBCA6"></stop> <stop offset="0.2411" style="stop-color:#C6B7A2"></stop> <stop offset="0.5084" style="stop-color:#B9AA96"></stop> <stop offset="0.7874" style="stop-color:#A39481"></stop> <stop offset="1" style="stop-color:#8D7E6D"></stop> </linearGradient> <polygon class="st13" points="250.67,50.32 281.32,46.94 283.46,50.55 240.19,68.32 "></polygon> </g> </g> <g> <path class="st14" d="M195.84,106.09h-0.52c-0.15-0.4-0.31-0.87-0.47-1.41c-0.16-0.54-0.29-1.05-0.4-1.54 c0.48-0.41,1.07-0.74,1.74-0.99c0.68-0.24,1.41-0.36,2.2-0.36c0.69,0,1.29,0.1,1.79,0.29s0.91,0.46,1.23,0.79s0.56,0.72,0.72,1.15 c0.15,0.44,0.23,0.89,0.23,1.36c0,0.77-0.18,1.57-0.54,2.39c-0.36,0.82-0.81,1.61-1.34,2.38c-0.53,0.77-1.11,1.49-1.73,2.17 c-0.62,0.68-1.2,1.27-1.72,1.78l-0.87,0.81v0.08l1.16-0.12h3.57l1.02-2.32h0.52c0.03,0.3,0.05,0.64,0.08,1 c0.03,0.36,0.05,0.72,0.07,1.09c0.02,0.37,0.04,0.72,0.05,1.06s0.02,0.63,0.02,0.88h-8.57v-0.66c0.3-0.32,0.67-0.71,1.11-1.16 c0.44-0.46,0.89-0.96,1.36-1.51c0.47-0.55,0.94-1.14,1.4-1.76c0.46-0.62,0.87-1.26,1.23-1.9c0.36-0.64,0.65-1.28,0.88-1.92 c0.23-0.64,0.34-1.24,0.34-1.82c0-0.4-0.05-0.78-0.16-1.14s-0.26-0.68-0.47-0.94c-0.21-0.27-0.46-0.48-0.76-0.63 c-0.3-0.15-0.64-0.23-1.03-0.23c-0.29,0-0.55,0.02-0.77,0.06c-0.22,0.04-0.46,0.1-0.73,0.19L195.84,106.09z"></path> <path class="st14" d="M204.35,109.3c0-2.49,0.41-4.36,1.24-5.62c0.83-1.26,2.02-1.89,3.57-1.89c1.67,0,2.9,0.62,3.67,1.86 c0.77,1.24,1.16,3.12,1.16,5.65c0,2.49-0.42,4.37-1.26,5.62c-0.84,1.26-2.07,1.89-3.7,1.89c-0.84,0-1.56-0.17-2.16-0.51 s-1.08-0.83-1.45-1.47c-0.37-0.64-0.65-1.43-0.82-2.35S204.35,110.49,204.35,109.3z M206.34,109.32c0,0.99,0.05,1.9,0.15,2.71 c0.1,0.81,0.25,1.51,0.47,2.1c0.21,0.59,0.49,1.04,0.83,1.35c0.34,0.32,0.75,0.48,1.23,0.48c1.09,0,1.86-0.54,2.31-1.61 c0.45-1.08,0.67-2.75,0.67-5.03c0-0.99-0.04-1.9-0.12-2.71s-0.24-1.51-0.46-2.09c-0.22-0.58-0.52-1.03-0.88-1.35 s-0.83-0.48-1.38-0.48c-1.04,0-1.77,0.54-2.19,1.6C206.55,105.38,206.34,107.05,206.34,109.32z"></path> <path class="st14" d="M222.18,116.57h-6.06v-0.6c0.35-0.15,0.7-0.29,1.05-0.4c0.35-0.12,0.71-0.22,1.07-0.3v-10.19l0.08-1.23 c-0.39,0.15-0.79,0.26-1.2,0.32c-0.42,0.06-0.84,0.09-1.29,0.07l-0.1-0.5c0.64-0.21,1.29-0.47,1.97-0.78s1.31-0.7,1.89-1.17h0.52 v13.47c0.35,0.08,0.69,0.18,1.04,0.3c0.35,0.12,0.69,0.25,1.04,0.4L222.18,116.57L222.18,116.57z"></path> <path class="st14" d="M223.32,106.46c0-0.68,0.1-1.3,0.3-1.87c0.2-0.57,0.5-1.06,0.89-1.47c0.39-0.41,0.88-0.74,1.45-0.98 c0.57-0.24,1.23-0.35,1.98-0.35c0.8,0,1.5,0.14,2.08,0.4s1.08,0.65,1.46,1.13c0.39,0.48,0.67,1.07,0.85,1.77 c0.18,0.7,0.27,1.47,0.27,2.31c0,1.29-0.19,2.48-0.56,3.57c-0.37,1.09-0.88,2.05-1.52,2.87c-0.64,0.82-1.4,1.49-2.28,2 c-0.88,0.51-1.82,0.83-2.83,0.95l-0.37-0.6c0.82-0.22,1.54-0.55,2.17-0.98c0.63-0.43,1.17-0.94,1.62-1.52s0.81-1.24,1.09-1.95 c0.28-0.71,0.47-1.46,0.58-2.25c-0.32,0.33-0.69,0.61-1.13,0.84c-0.44,0.23-1.03,0.34-1.77,0.34c-0.62,0-1.2-0.09-1.72-0.28 s-0.98-0.46-1.35-0.82c-0.37-0.36-0.67-0.8-0.88-1.33C223.42,107.74,223.32,107.14,223.32,106.46z M225.31,106.44 c0,0.4,0.06,0.79,0.19,1.17c0.12,0.38,0.3,0.72,0.54,1.02c0.23,0.3,0.52,0.54,0.85,0.72s0.71,0.27,1.12,0.27 c0.66,0,1.21-0.11,1.65-0.34c0.44-0.23,0.76-0.51,0.96-0.86c0.03-0.18,0.04-0.4,0.04-0.68s0-0.48,0-0.63c0-0.5-0.05-1.01-0.15-1.52 s-0.27-0.99-0.49-1.4c-0.22-0.41-0.51-0.75-0.87-1.02c-0.36-0.26-0.79-0.4-1.29-0.4c-0.83,0-1.46,0.33-1.9,0.99 C225.53,104.41,225.31,105.31,225.31,106.44z"></path> </g> </svg> 