<?xml version="1.0" encoding="UTF-8"?> <!-- Generator: Adobe Illustrator 23.0.6, SVG Export Plug-In . SVG Version: 6.00 Build 0) --> <svg xmlns="http://www.w3.org/2000/svg" xmlns:xlink="http://www.w3.org/1999/xlink" id="Layer_1" x="0px" y="0px" viewBox="0 0 350.13 315.39" style="enable-background:new 0 0 350.13 315.39;" xml:space="preserve"> <style type="text/css"> .st0{fill:#FFFFFF;} </style> <g> <path class="st0" d="M326.26,0H23.87C10.69,0,0,10.69,0,23.87v224.69c0,13.19,10.69,23.87,23.87,23.87h106.3v28.48h-17.71 c-3.99,0-7.24,3.25-7.24,7.24c0,3.99,3.25,7.22,7.24,7.24h125.24c3.99,0,7.24-3.25,7.24-7.24c-0.02-3.99-3.25-7.24-7.24-7.24H220 v-28.48h106.26c13.19,0,23.87-10.69,23.87-23.87V23.87C350.13,10.69,339.45,0,326.26,0z M8.93,8.93c3.82-3.84,9.11-6.21,14.94-6.21 h302.41c5.86,0,11.12,2.35,14.96,6.19c3.82,3.84,6.19,9.13,6.19,14.96v216.64H2.74V23.89C2.74,18.04,5.09,12.77,8.93,8.93z M242.21,308.13c0,2.48-2.02,4.5-4.5,4.5H112.47c-2.48,0-4.5-2.02-4.5-4.5c0-2.48,2.02-4.5,4.5-4.5h17.71l0,0H220v0h17.71 C240.19,303.63,242.21,305.65,242.21,308.13z M217.28,300.91H132.9v-28.48h84.39V300.91z M341.25,263.52 c-3.84,3.82-9.13,6.19-14.96,6.19H220h-89.83H23.89c-5.86,0-11.12-2.35-14.96-6.19c-3.82-3.84-6.19-9.13-6.19-14.96v-5.33h344.69 v5.33C347.44,254.42,345.09,259.68,341.25,263.52z"></path> <path class="st0" d="M327.65,22.82h-1.36H22.51v199.35h305.13V22.82z M324.92,219.44H25.25V25.54h299.67V219.44z"></path> </g> </svg> 