<?xml version="1.0" encoding="UTF-8"?> <svg xmlns="http://www.w3.org/2000/svg" id="Capa_1" height="512" viewBox="0 0 512 512" width="512"><path d="m467.738 0h-423.477c-24.406 0-44.261 19.855-44.261 44.261v423.478c0 24.406 19.855 44.261 44.261 44.261h423.477c24.407 0 44.262-19.855 44.262-44.261v-423.478c0-24.406-19.855-44.261-44.262-44.261zm-423.477 30h423.477c7.865 0 14.262 6.397 14.262 14.261v45h-452v-45c0-7.864 6.397-14.261 14.261-14.261zm423.477 452h-423.477c-7.864 0-14.261-6.397-14.261-14.261v-348.478h452v348.478c0 7.864-6.397 14.261-14.262 14.261z"></path><path d="m65.108 74.507h20.501c8.284 0 15-6.716 15-15s-6.716-15-15-15h-20.501c-8.284 0-15 6.716-15 15s6.716 15 15 15z"></path><path d="m129.108 74.507h20.501c8.284 0 15-6.716 15-15s-6.716-15-15-15h-20.501c-8.284 0-15 6.716-15 15s6.716 15 15 15z"></path><path d="m193.108 74.507h20.501c8.284 0 15-6.716 15-15s-6.716-15-15-15h-20.501c-8.284 0-15 6.716-15 15s6.716 15 15 15z"></path><path d="m70.146 284.645h371.933c8.284 0 15-6.716 15-15v-110c0-8.284-6.716-15-15-15h-371.933c-8.284 0-15 6.716-15 15v110c0 8.284 6.716 15 15 15zm15-110h341.933v80h-341.933z"></path><path d="m412.771 324.645c0-8.284-6.716-15-15-15h-327.625c-8.284 0-15 6.716-15 15s6.716 15 15 15h327.625c8.285 0 15-6.716 15-15z"></path><path d="m70.146 391.645h134.541c8.284 0 15-6.716 15-15s-6.716-15-15-15h-134.541c-8.284 0-15 6.716-15 15s6.716 15 15 15z"></path><path d="m353.295 413.62h-286.517c-8.284 0-15 6.716-15 15s6.716 15 15 15h286.517c8.284 0 15-6.716 15-15s-6.716-15-15-15z"></path><path d="m442.249 413.62h-29.475c-8.284 0-15 6.716-15 15s6.716 15 15 15h29.475c8.284 0 15-6.716 15-15s-6.716-15-15-15z"></path></svg> 