<?xml version="1.0" encoding="UTF-8"?> <svg xmlns="http://www.w3.org/2000/svg" id="Layer_1" data-name="Layer 1" viewBox="0 0 179.96 61.69"><defs><style>.cls-1{fill:#fff;}.cls-2{fill:#ddd;}.cls-3{fill:#4285f4;}.cls-4{fill:#757575;}.cls-5{fill:#ea4335;}.cls-6{fill:#fbbc05;}.cls-7{fill:#34a853;}</style></defs><title>google-partner</title><rect class="cls-1" width="179.96" height="61.69"></rect><path class="cls-2" d="M179,1V60.69H1V1H179m1-1H0V61.69H180V0Z"></path><rect class="cls-3" width="16.37" height="61.69"></rect><path class="cls-4" d="M32.54,53.51h-3.2V28.61h8.48a7.88,7.88,0,0,1,5.48,2.1,7.25,7.25,0,0,1,0,10.61,7.88,7.88,0,0,1-5.48,2.1H32.54Zm0-13.15h5.35A4.15,4.15,0,0,0,41.13,39a4.29,4.29,0,0,0,0-6,4.15,4.15,0,0,0-3.24-1.35H32.54Z"></path><path class="cls-4" d="M53.09,54.07a6.76,6.76,0,0,1-4.54-1.57,5.19,5.19,0,0,1-1.82-4.14A5.12,5.12,0,0,1,48.88,44a8.75,8.75,0,0,1,5.33-1.59,9.1,9.1,0,0,1,4.62,1.05V43a3.84,3.84,0,0,0-1.28-3,4.66,4.66,0,0,0-3.17-1.13,4.89,4.89,0,0,0-2.52.66,3.42,3.42,0,0,0-1.55,1.81l-2.92-1.25a6.61,6.61,0,0,1,2.33-2.84,7.46,7.46,0,0,1,4.59-1.3,7.91,7.91,0,0,1,5.43,1.91,6.87,6.87,0,0,1,2.15,5.39v10.3H58.83V51.14h-.14A6.27,6.27,0,0,1,53.09,54.07Zm.53-2.93a5.19,5.19,0,0,0,3.59-1.47,4.59,4.59,0,0,0,1.62-3.5,6.31,6.31,0,0,0-4.07-1.11,5.25,5.25,0,0,0-3.51,1,3,3,0,0,0-1.18,2.36,2.26,2.26,0,0,0,1.08,2A4.25,4.25,0,0,0,53.62,51.14Z"></path><path class="cls-4" d="M68.57,36.47v2.78h.14a4.42,4.42,0,0,1,2.07-2.35,6.64,6.64,0,0,1,3.32-.85,9.68,9.68,0,0,1,1.15.07v3.13A11.4,11.4,0,0,0,74,39.18a5.36,5.36,0,0,0-3.77,1.34,4.68,4.68,0,0,0-1.48,3.67v9.32h-3.2v-17ZM86.1,53.79a4.94,4.94,0,0,1-5.49-5.46V39.39h-3V36.47h3V31.25h3.2v5.22H88v2.92H83.81v8.69c0,1.86.76,2.79,2.29,2.79a3.49,3.49,0,0,0,1.46-.28l1.12,2.75A6.55,6.55,0,0,1,86.1,53.79Z"></path><path class="cls-4" d="M94.27,36.47v2.36h.14a5.74,5.74,0,0,1,2.2-2.07,6.31,6.31,0,0,1,3.2-.85,6,6,0,0,1,4.83,2,7.76,7.76,0,0,1,1.67,5.21V53.51h-3.2V43.56q0-4.73-4.21-4.73a3.94,3.94,0,0,0-3.23,1.58,5.74,5.74,0,0,0-1.26,3.67v9.43h-3.2v-17Z"></path><path class="cls-4" d="M117.79,54.07a8.2,8.2,0,0,1-6.28-2.58,9.11,9.11,0,0,1-2.42-6.5,9.35,9.35,0,0,1,2.35-6.4,7.59,7.59,0,0,1,6-2.68,7.85,7.85,0,0,1,6.07,2.47A9.37,9.37,0,0,1,125.79,45l0,.59H112.29A5.79,5.79,0,0,0,114,49.65a5.26,5.26,0,0,0,3.71,1.49,4.59,4.59,0,0,0,4.66-2.92l2.85,1.19a7.68,7.68,0,0,1-2.75,3.32A8,8,0,0,1,117.79,54.07Zm4.59-11.13A4.56,4.56,0,0,0,121,40.15a4.79,4.79,0,0,0-3.67-1.32,4.61,4.61,0,0,0-3.08,1.11,5.68,5.68,0,0,0-1.79,3Z"></path><path class="cls-4" d="M131.91,53.51h-3.2v-17h3.06v2.78h.14a4.36,4.36,0,0,1,2-2.3,5.75,5.75,0,0,1,2.94-.9,6.07,6.07,0,0,1,2.4.42l-1.22,3a4.66,4.66,0,0,0-1.7-.25,4.17,4.17,0,0,0-3.08,1.38,4.89,4.89,0,0,0-1.34,3.6Z"></path><path class="cls-3" d="M36.63,22.9a7.74,7.74,0,0,1-7.75-7.63,7.74,7.74,0,0,1,7.75-7.64,7.27,7.27,0,0,1,5.23,2.1L40.39,11.2a5.29,5.29,0,0,0-3.76-1.49,5.56,5.56,0,0,0,0,11.11,5.08,5.08,0,0,0,3.85-1.53,4.34,4.34,0,0,0,1.14-2.63h-5V14.52h7a7,7,0,0,1,.11,1.36A6.87,6.87,0,0,1,42,20.76,7,7,0,0,1,36.63,22.9Z"></path><path class="cls-5" d="M54.91,18A4.94,4.94,0,1,1,50,13.07,4.85,4.85,0,0,1,54.91,18Zm-2.16,0a2.78,2.78,0,1,0-5.55,0,2.78,2.78,0,1,0,5.55,0Z"></path><path class="cls-6" d="M66.09,18a4.94,4.94,0,1,1-4.93-4.92A4.85,4.85,0,0,1,66.09,18Zm-2.16,0a2.78,2.78,0,1,0-5.55,0,2.78,2.78,0,1,0,5.55,0Z"></path><path class="cls-3" d="M76.78,13.36V22.2c0,3.63-2.15,5.12-4.68,5.12a4.68,4.68,0,0,1-4.36-2.91l1.88-.78a2.73,2.73,0,0,0,2.48,1.75c1.62,0,2.63-1,2.63-2.89v-.7h-.08a3.35,3.35,0,0,1-2.59,1.11,4.92,4.92,0,0,1,0-9.83,3.38,3.38,0,0,1,2.59,1.1h.08v-.81ZM74.87,18a2.77,2.77,0,0,0-2.62-3,2.85,2.85,0,0,0-2.74,3,2.83,2.83,0,0,0,2.74,3A2.75,2.75,0,0,0,74.87,18Z"></path><path class="cls-7" d="M81,8.15V22.61H78.87V8.15Z"></path><path class="cls-5" d="M89.83,19.61l1.68,1.11a4.86,4.86,0,0,1-4.1,2.18A4.81,4.81,0,0,1,82.53,18a4.68,4.68,0,0,1,4.64-4.92,4.57,4.57,0,0,1,4.21,3.13l.22.56L85,19.48A2.5,2.5,0,0,0,87.41,21,2.81,2.81,0,0,0,89.83,19.61Zm-5.16-1.77L89.07,16a1.91,1.91,0,0,0-1.83-1A2.7,2.7,0,0,0,84.67,17.84Z"></path></svg> 