<?xml version="1.0" encoding="UTF-8"?> <svg xmlns="http://www.w3.org/2000/svg" id="Capa_1" height="512" viewBox="0 0 512 512" width="512"><path d="m467.949 38.5h-423.898c-24.29 0-44.051 19.773-44.051 44.079v267.15c0 24.305 19.761 44.079 44.051 44.079h159.107l-18.707 49.692h-19.619c-8.284 0-15 6.716-15 15s6.716 15 15 15h182.336c8.284 0 15-6.716 15-15s-6.716-15-15-15h-19.619l-18.707-49.693h159.107c24.29 0 44.051-19.773 44.051-44.079v-267.149c0-24.306-19.761-44.079-44.051-44.079zm-423.898 30h423.898c7.748 0 14.051 6.315 14.051 14.079v192.145h-452v-192.145c0-7.764 6.303-14.079 14.051-14.079zm251.443 375h-78.988l18.707-49.693h41.574zm172.455-79.693h-423.898c-7.748 0-14.051-6.315-14.051-14.079v-45.005h452v45.005c0 7.764-6.303 14.079-14.051 14.079z"></path><path d="m268.792 318.426h-25.584c-8.284 0-15 6.716-15 15s6.716 15 15 15h25.584c8.284 0 15-6.716 15-15s-6.716-15-15-15z"></path><path d="m64.439 246h195.835c8.284 0 15-6.716 15-15s-6.716-15-15-15h-10.835v-39.875c0-8.284-6.716-15-15-15s-15 6.716-15 15v39.875h-20v-99.875c0-8.284-6.716-15-15-15s-15 6.716-15 15v99.875h-20v-69.875c0-8.284-6.716-15-15-15s-15 6.716-15 15v69.875h-20v-39.875c0-8.284-6.716-15-15-15s-15 6.716-15 15v39.875h-5c-8.284 0-15 6.716-15 15s6.716 15 15 15z"></path><path d="m322.552 131.125h120.937c8.284 0 15-6.716 15-15s-6.716-15-15-15h-120.937c-8.284 0-15 6.716-15 15s6.716 15 15 15z"></path><path d="m322.552 187.125h120.937c8.284 0 15-6.716 15-15s-6.716-15-15-15h-120.937c-8.284 0-15 6.716-15 15s6.716 15 15 15z"></path><path d="m322.552 246h120.937c8.284 0 15-6.716 15-15s-6.716-15-15-15h-120.937c-8.284 0-15 6.716-15 15s6.716 15 15 15z"></path></svg> 