<?xml version="1.0" encoding="UTF-8"?> <svg xmlns="http://www.w3.org/2000/svg" id="Capa_1" height="512" viewBox="0 0 511.525 511.525" width="512"><path d="m462.632 99.483h-105.361v-52.854c0-8.284-6.716-15-15-15h-173.018c-8.284 0-15 6.716-15 15v52.854h-105.361c-26.959 0-48.892 21.933-48.892 48.893v282.627c0 26.96 21.933 48.893 48.892 48.893h413.74c26.96 0 48.893-21.933 48.893-48.893v-282.627c0-26.96-21.933-48.893-48.893-48.893zm-278.379-37.854h143.018v37.854h-143.018zm297.272 369.374c0 10.418-8.476 18.893-18.893 18.893h-413.74c-10.417 0-18.892-8.476-18.892-18.893v-282.627c0-10.417 8.475-18.893 18.892-18.893h120.265c.033 0 .064.005.097.005s.064-.005.097-.005h172.824c.033 0 .064.005.097.005s.064-.005.097-.005h120.265c10.417 0 18.893 8.475 18.893 18.893v282.627z"></path><path d="m255.762 165.883c-68.267 0-123.807 55.54-123.807 123.807s55.54 123.806 123.807 123.806c68.268 0 123.807-55.539 123.807-123.806 0-68.268-55.539-123.807-123.807-123.807zm0 217.613c-51.725 0-93.807-42.081-93.807-93.806s42.081-93.807 93.807-93.807 93.807 42.081 93.807 93.807-42.081 93.806-93.807 93.806z"></path><path d="m255.762 225.883c-35.183 0-63.807 28.623-63.807 63.806s28.624 63.807 63.807 63.807 63.807-28.624 63.807-63.807-28.624-63.806-63.807-63.806zm0 97.613c-18.641 0-33.807-15.165-33.807-33.807 0-18.641 15.165-33.806 33.807-33.806 18.641 0 33.807 15.165 33.807 33.806s-15.166 33.807-33.807 33.807z"></path><path d="m114.059 167.305h-30.135c-8.284 0-15 6.716-15 15s6.716 15 15 15h30.135c8.284 0 15-6.716 15-15s-6.716-15-15-15z"></path></svg> 