<?xml version="1.0" encoding="UTF-8"?> <svg xmlns="http://www.w3.org/2000/svg" id="Capa_1" height="512px" viewBox="0 0 512 512" width="512px"><circle clip-rule="evenodd" cx="384.533" cy="79.267" fill-rule="evenodd" r="15" fill="#FFFFFF"></circle><path d="m266.326 301.991c-5.605-2.322-9.259-7.791-9.259-13.858v-241c0-26.574 21.647-47.133 47.133-47.133h160.667c25.48 0 47.133 20.555 47.133 47.133v144.6c0 26.3-21.335 47.133-47.133 47.133h-121.867c-.298 0-.607.133-.851.365-14.852 14.891-59.477 59.509-59.477 59.509-4.604 4.605-11.158 5.401-16.346 3.251zm37.874-271.991c-9.355 0-17.133 7.539-17.133 17.133v204.785c12.684-12.687 26.779-26.79 33.906-33.937.028-.028.057-.056.085-.084 5.901-5.824 13.694-9.031 21.943-9.031h121.866c9.348 0 17.133-7.519 17.133-17.133v-144.6c0-9.581-7.767-17.133-17.133-17.133z" fill="#FFFFFF"></path><path d="m384.533 174.6c-8.284 0-15-6.716-15-15v-32.133c0-8.284 6.716-15 15-15s15 6.716 15 15v32.133c0 8.284-6.716 15-15 15z" fill="#FFFFFF"></path><path d="m459.406 389.994-64.276-64.276c-14.763-14.738-38.583-14.719-53.337.01l-8.033 8.033c-42.877 42.878-112.644 42.876-155.521 0-42.877-42.877-42.877-112.643 0-155.52l8.023-8.024c14.436-14.409 15.048-38.317.01-53.356l-64.276-64.276c-14.733-14.708-38.554-14.746-53.336.009l-41.549 41.548c-17.483 17.483-27.111 40.73-27.111 65.458 0 86.024 31.662 177.631 103.215 249.185 71.673 71.672 163.343 103.215 249.184 103.215 24.729 0 47.976-9.628 65.458-27.111l41.539-41.539c14.464-14.437 15.023-38.344.01-53.356zm-21.213 32.133-41.549 41.548c-11.816 11.817-27.53 18.325-44.245 18.325-86.116 0-167.078-33.536-227.971-94.429s-94.428-141.855-94.428-227.971c0-16.715 6.508-32.428 18.324-44.245l41.539-41.539c3.054-3.047 7.932-3.001 10.927-.012l64.27 64.269c3.075 3.075 2.969 7.958-.001 10.921l-8.032 8.033c-54.574 54.574-54.574 143.373 0 197.946 54.573 54.574 143.371 54.575 197.946 0l8.023-8.023c3.054-3.047 7.933-3.001 10.928-.012l64.27 64.269c3.073 3.074 2.966 7.958-.001 10.92z" fill="#FFFFFF"></path></svg> 