<?xml version="1.0" encoding="UTF-8"?> <!-- Generator: Adobe Illustrator 23.0.6, SVG Export Plug-In . SVG Version: 6.00 Build 0) --> <svg xmlns="http://www.w3.org/2000/svg" xmlns:xlink="http://www.w3.org/1999/xlink" id="Layer_1" x="0px" y="0px" viewBox="0 0 223.32 130.92" style="enable-background:new 0 0 223.32 130.92;" xml:space="preserve"> <style type="text/css"> .st0{clip-path:url(#SVGID_2_);} </style> <g> <defs> <path id="SVGID_1_" d="M174.5,5.29c-14.83-5.2-29.9-3.3-44.14,5.73c-4.56,2.89-9.04,6.5-13.4,10.86 c-4.23,4.23-8.16,7.06-11.98,8.54C97.1,33.46,89.69,30.66,81,21.97C53-6.03,26.02-4.11,11.71,10.2 C5.06,16.85,1.23,25.8,0.25,36.23c-0.53,5.66-0.22,11.75,0.93,18.15c1.31,7.24,3.69,14.88,7.17,22.72 c4.21,9.59,10.62,17.95,18.26,24.1c4.54,3.66,9.51,6.54,14.71,8.45c0.02,0.01,0.05,0.02,0.07,0.03 c10.15,3.69,20.55,3.34,29.28-0.98l0.06-0.03l0.06-0.03c7.13-3.61,18.47-1,25.28,5.8c11.73,11.73,25.94,17.36,38.45,16.37 c7.43-0.59,14.27-3.51,19.64-8.88c2.3-2.3,6.8-5.63,12.54-9.31c7.97-5.11,18.36-10.89,28.76-15.59l0.05-0.02l0.05-0.02 c7.64-3.51,13.49-7.35,17.87-11.74c9.12-9.12,12.07-20.85,8.28-33.03c-1.37-4.4-3.62-8.88-6.85-13.59 c-3.02-4.39-6.91-9-11.75-13.94c-0.41-0.41-0.81-0.83-1.22-1.24c-4.06-4.06-8.2-7.52-12.38-10.4 C184.56,9.65,179.54,7.06,174.5,5.29z"></path> </defs> <clipPath id="SVGID_2_"> <use xlink:href="#SVGID_1_" style="overflow:visible;"></use> </clipPath> <g class="st0"> <path d="M200.71-65.82c-7.43,0-14.2,1.76-17.84,2.71c-3.29,0.86-10.14,2.65-17.62,2.65c-7.48,0-14.33-1.79-17.62-2.65 c-3.64-0.95-10.41-2.71-17.83-2.71c-7.42,0-14.2,1.76-17.83,2.71c-3.29,0.86-10.14,2.65-17.62,2.65s-14.33-1.79-17.62-2.65 c-3.64-0.95-10.41-2.71-17.84-2.71c-7.43,0-14.2,1.76-17.84,2.71c-3.29,0.86-10.14,2.65-17.62,2.65c-7.48,0-14.33-1.79-17.62-2.65 c-3.64-0.95-10.41-2.71-17.83-2.71c-7.43,0-14.2,1.76-17.83,2.71c-3.29,0.86-10.14,2.65-17.62,2.65v0.85 c7.59,0,14.51-1.81,17.84-2.68c3.6-0.94,10.3-2.68,17.62-2.68c7.32,0,13.77,1.68,17.62,2.68c3.33,0.87,10.25,2.68,17.84,2.68 c7.59,0,14.51-1.81,17.83-2.68c3.6-0.94,10.3-2.68,17.62-2.68s14.02,1.74,17.62,2.68c3.33,0.87,10.25,2.68,17.84,2.68 c7.59,0,14.51-1.81,17.83-2.68c3.6-0.94,10.3-2.68,17.62-2.68c7.32,0,13.77,1.68,17.62,2.68c3.33,0.87,10.25,2.68,17.83,2.68 c7.59,0,14.51-1.81,17.83-2.68c3.6-0.94,10.3-2.68,17.62-2.68c7.32,0,13.77,1.68,17.62,2.68c3.33,0.87,10.25,2.68,17.83,2.68 v-0.85c-7.48,0-14.33-1.79-17.62-2.65C214.91-64.06,208.14-65.82,200.71-65.82z"></path> <path d="M200.71-60.26c-7.43,0-14.2,1.76-17.84,2.71c-3.29,0.86-10.14,2.65-17.62,2.65c-7.48,0-14.33-1.79-17.62-2.65 c-3.64-0.95-10.41-2.71-17.83-2.71c-7.42,0-14.2,1.76-17.83,2.71c-3.29,0.86-10.14,2.65-17.62,2.65s-14.33-1.79-17.62-2.65 c-3.64-0.95-10.41-2.71-17.84-2.71c-7.43,0-14.2,1.76-17.84,2.71c-3.29,0.86-10.14,2.65-17.62,2.65c-7.48,0-14.33-1.79-17.62-2.65 C2.17-58.5-4.6-60.26-12.03-60.26c-7.43,0-14.2,1.76-17.83,2.71c-3.29,0.86-10.14,2.65-17.62,2.65v0.85 c7.59,0,14.51-1.81,17.84-2.68c3.6-0.94,10.3-2.68,17.62-2.68c7.32,0,13.77,1.68,17.62,2.68c3.33,0.87,10.25,2.68,17.84,2.68 c7.59,0,14.51-1.81,17.83-2.68c3.6-0.94,10.3-2.68,17.62-2.68s14.02,1.74,17.62,2.68c3.33,0.87,10.25,2.68,17.84,2.68 c7.59,0,14.51-1.81,17.83-2.68c3.6-0.94,10.3-2.68,17.62-2.68c7.32,0,13.77,1.68,17.62,2.68c3.33,0.87,10.25,2.68,17.83,2.68 c7.59,0,14.51-1.81,17.83-2.68c3.6-0.94,10.3-2.68,17.62-2.68c7.32,0,13.77,1.68,17.62,2.68c3.33,0.87,10.25,2.68,17.83,2.68 v-0.85c-7.48,0-14.33-1.79-17.62-2.65C214.91-58.5,208.14-60.26,200.71-60.26z"></path> <path d="M200.71-54.7c-7.43,0-14.2,1.76-17.84,2.71c-3.29,0.86-10.14,2.65-17.62,2.65c-7.48,0-14.33-1.79-17.62-2.65 c-3.64-0.95-10.41-2.71-17.83-2.71c-7.42,0-14.2,1.76-17.83,2.71c-3.29,0.86-10.14,2.65-17.62,2.65S80.01-51.14,76.72-52 c-3.64-0.95-10.41-2.71-17.84-2.71c-7.43,0-14.2,1.76-17.84,2.71c-3.29,0.86-10.14,2.65-17.62,2.65c-7.48,0-14.33-1.79-17.62-2.65 C2.17-52.94-4.6-54.7-12.03-54.7c-7.43,0-14.2,1.76-17.83,2.71c-3.29,0.86-10.14,2.65-17.62,2.65v0.85 c7.59,0,14.51-1.81,17.84-2.68c3.6-0.94,10.3-2.68,17.62-2.68c7.32,0,13.77,1.68,17.62,2.68c3.33,0.87,10.25,2.68,17.84,2.68 c7.59,0,14.51-1.81,17.83-2.68c3.6-0.94,10.3-2.68,17.62-2.68s14.02,1.74,17.62,2.68c3.33,0.87,10.25,2.68,17.84,2.68 c7.59,0,14.51-1.81,17.83-2.68c3.6-0.94,10.3-2.68,17.62-2.68c7.32,0,13.77,1.68,17.62,2.68c3.33,0.87,10.25,2.68,17.83,2.68 c7.59,0,14.51-1.81,17.83-2.68c3.6-0.94,10.3-2.68,17.62-2.68c7.32,0,13.77,1.68,17.62,2.68c3.33,0.87,10.25,2.68,17.83,2.68 v-0.85c-7.48,0-14.33-1.79-17.62-2.65C214.91-52.94,208.14-54.7,200.71-54.7z"></path> <path d="M200.71-49.14c-7.43,0-14.2,1.76-17.84,2.71c-3.29,0.86-10.15,2.65-17.62,2.65c-7.47,0-14.33-1.79-17.62-2.65 c-3.64-0.95-10.41-2.71-17.84-2.71c-7.43,0-14.2,1.76-17.83,2.71c-3.29,0.86-10.15,2.65-17.62,2.65c-7.47,0-14.33-1.79-17.62-2.65 c-3.64-0.95-10.41-2.71-17.84-2.71c-7.43,0-14.2,1.76-17.84,2.71c-3.29,0.86-10.15,2.65-17.62,2.65S9.1-45.57,5.81-46.43 c-3.64-0.95-10.41-2.71-17.83-2.71c-7.43,0-14.2,1.76-17.83,2.71c-3.29,0.86-10.15,2.65-17.62,2.65v0.85 c7.59,0,14.51-1.81,17.84-2.68c3.6-0.94,10.3-2.68,17.62-2.68c7.32,0,14.02,1.74,17.62,2.68c3.33,0.87,10.25,2.68,17.84,2.68 s14.51-1.81,17.83-2.68c3.6-0.94,10.3-2.68,17.62-2.68c7.32,0,14.02,1.74,17.62,2.68c3.33,0.87,10.25,2.68,17.84,2.68 s14.51-1.81,17.83-2.68c3.6-0.94,10.3-2.68,17.62-2.68c7.32,0,14.02,1.74,17.62,2.68c3.33,0.87,10.25,2.68,17.83,2.68 s14.51-1.81,17.83-2.68c3.6-0.94,10.3-2.68,17.62-2.68c7.32,0,14.02,1.74,17.62,2.68c3.33,0.87,10.25,2.68,17.83,2.68v-0.85 c-7.47,0-14.33-1.79-17.62-2.65C214.91-47.38,208.14-49.14,200.71-49.14z"></path> <path d="M200.71-43.58c-7.43,0-14.2,1.76-17.84,2.71c-3.29,0.86-10.14,2.65-17.62,2.65c-7.48,0-14.33-1.79-17.62-2.65 c-3.64-0.95-10.41-2.71-17.83-2.71c-7.42,0-14.2,1.76-17.83,2.71c-3.29,0.86-10.14,2.65-17.62,2.65s-14.33-1.79-17.62-2.65 c-3.64-0.95-10.41-2.71-17.84-2.71c-7.43,0-14.2,1.76-17.84,2.71c-3.29,0.86-10.14,2.65-17.62,2.65c-7.48,0-14.33-1.79-17.62-2.65 c-3.64-0.95-10.41-2.71-17.83-2.71c-7.43,0-14.2,1.76-17.83,2.71c-3.29,0.86-10.14,2.65-17.62,2.65v0.85 c7.59,0,14.51-1.81,17.84-2.68c3.6-0.94,10.3-2.68,17.62-2.68c7.32,0,13.77,1.68,17.62,2.68c3.33,0.87,10.25,2.68,17.84,2.68 c7.59,0,14.51-1.81,17.83-2.68c3.6-0.94,10.3-2.68,17.62-2.68s14.02,1.74,17.62,2.68c3.33,0.87,10.25,2.68,17.84,2.68 c7.59,0,14.51-1.81,17.83-2.68c3.6-0.94,10.3-2.68,17.62-2.68c7.32,0,13.77,1.68,17.62,2.68c3.33,0.87,10.25,2.68,17.83,2.68 c7.59,0,14.51-1.81,17.83-2.68c3.6-0.94,10.3-2.68,17.62-2.68c7.32,0,13.77,1.68,17.62,2.68c3.33,0.87,10.25,2.68,17.83,2.68 v-0.85c-7.48,0-14.33-1.79-17.62-2.65C214.91-41.82,208.14-43.58,200.71-43.58z"></path> <path d="M200.71-38.02c-7.43,0-14.2,1.76-17.84,2.71c-3.29,0.86-10.14,2.65-17.62,2.65s-14.33-1.79-17.62-2.65 c-3.64-0.95-10.41-2.71-17.84-2.71c-7.43,0-14.2,1.76-17.83,2.71c-3.29,0.86-10.14,2.65-17.62,2.65c-7.48,0-14.33-1.79-17.62-2.65 c-3.64-0.95-10.41-2.71-17.84-2.71c-7.43,0-14.2,1.76-17.84,2.71c-3.29,0.86-10.14,2.65-17.62,2.65S9.1-34.45,5.81-35.31 c-3.64-0.95-10.41-2.71-17.83-2.71c-7.43,0-14.2,1.76-17.83,2.71c-3.29,0.86-10.14,2.65-17.62,2.65v0.85 c7.59,0,14.51-1.81,17.84-2.68c3.6-0.94,10.3-2.68,17.62-2.68c7.32,0,14.02,1.74,17.62,2.68c3.33,0.87,10.25,2.68,17.84,2.68 c7.59,0,14.51-1.81,17.83-2.68c3.6-0.94,10.3-2.68,17.62-2.68c7.32,0,14.02,1.74,17.62,2.68c3.33,0.87,10.25,2.68,17.84,2.68 c7.59,0,14.51-1.81,17.83-2.68c3.6-0.94,10.3-2.68,17.62-2.68c7.32,0,14.02,1.74,17.62,2.68c3.33,0.87,10.25,2.68,17.83,2.68 c7.59,0,14.51-1.81,17.83-2.68c3.6-0.94,10.3-2.68,17.62-2.68c7.32,0,14.02,1.74,17.62,2.68c3.33,0.87,10.25,2.68,17.83,2.68 v-0.85c-7.48,0-14.33-1.79-17.62-2.65C214.91-36.26,208.14-38.02,200.71-38.02z"></path> <path d="M200.71-32.46c-7.43,0-14.2,1.76-17.84,2.71c-3.29,0.86-10.14,2.65-17.62,2.65c-7.48,0-14.33-1.79-17.62-2.65 c-3.64-0.95-10.41-2.71-17.83-2.71c-7.42,0-14.2,1.76-17.83,2.71c-3.29,0.86-10.14,2.65-17.62,2.65s-14.33-1.79-17.62-2.65 c-3.64-0.95-10.41-2.71-17.84-2.71c-7.43,0-14.2,1.76-17.84,2.71c-3.29,0.86-10.14,2.65-17.62,2.65c-7.48,0-14.33-1.79-17.62-2.65 c-3.64-0.95-10.41-2.71-17.83-2.71c-7.43,0-14.2,1.76-17.83,2.71C-33.15-28.89-40-27.1-47.48-27.1v0.85 c7.59,0,14.51-1.81,17.84-2.68c3.6-0.94,10.3-2.68,17.62-2.68c7.32,0,13.77,1.68,17.62,2.68c3.33,0.87,10.25,2.68,17.84,2.68 c7.59,0,14.51-1.81,17.83-2.68c3.6-0.94,10.3-2.68,17.62-2.68s14.02,1.74,17.62,2.68c3.33,0.87,10.25,2.68,17.84,2.68 c7.59,0,14.51-1.81,17.83-2.68c3.6-0.94,10.3-2.68,17.62-2.68c7.32,0,13.77,1.68,17.62,2.68c3.33,0.87,10.25,2.68,17.83,2.68 c7.59,0,14.51-1.81,17.83-2.68c3.6-0.94,10.3-2.68,17.62-2.68c7.32,0,13.77,1.68,17.62,2.68c3.33,0.87,10.25,2.68,17.83,2.68 v-0.85c-7.48,0-14.33-1.79-17.62-2.65C214.91-30.69,208.14-32.46,200.71-32.46z"></path> <path d="M200.71-26.89c-7.43,0-14.2,1.76-17.84,2.71c-3.29,0.86-10.14,2.65-17.62,2.65c-7.48,0-14.33-1.79-17.62-2.65 c-3.64-0.95-10.41-2.71-17.83-2.71c-7.42,0-14.2,1.76-17.83,2.71c-3.29,0.86-10.14,2.65-17.62,2.65s-14.33-1.79-17.62-2.65 c-3.64-0.95-10.41-2.71-17.84-2.71c-7.43,0-14.2,1.76-17.84,2.71c-3.29,0.86-10.14,2.65-17.62,2.65c-7.48,0-14.33-1.79-17.62-2.65 c-3.64-0.95-10.41-2.71-17.83-2.71c-7.43,0-14.2,1.76-17.83,2.71c-3.29,0.86-10.14,2.65-17.62,2.65v0.85 c7.59,0,14.51-1.81,17.84-2.68c3.6-0.94,10.3-2.68,17.62-2.68c7.32,0,13.77,1.68,17.62,2.68c3.33,0.87,10.25,2.68,17.84,2.68 c7.59,0,14.51-1.81,17.83-2.68c3.6-0.94,10.3-2.68,17.62-2.68s14.02,1.74,17.62,2.68c3.33,0.87,10.25,2.68,17.84,2.68 c7.59,0,14.51-1.81,17.83-2.68c3.6-0.94,10.3-2.68,17.62-2.68c7.32,0,13.77,1.68,17.62,2.68c3.33,0.87,10.25,2.68,17.83,2.68 c7.59,0,14.51-1.81,17.83-2.68c3.6-0.94,10.3-2.68,17.62-2.68c7.32,0,13.77,1.68,17.62,2.68c3.33,0.87,10.25,2.68,17.83,2.68 v-0.85c-7.48,0-14.33-1.79-17.62-2.65C214.91-25.13,208.14-26.89,200.71-26.89z"></path> <path d="M200.71-21.33c-7.43,0-14.2,1.76-17.84,2.71c-3.29,0.86-10.14,2.65-17.62,2.65c-7.48,0-14.33-1.79-17.62-2.65 c-3.64-0.95-10.41-2.71-17.83-2.71c-7.42,0-14.2,1.76-17.83,2.71c-3.29,0.86-10.14,2.65-17.62,2.65s-14.33-1.79-17.62-2.65 c-3.64-0.95-10.41-2.71-17.84-2.71c-7.43,0-14.2,1.76-17.84,2.71c-3.29,0.86-10.14,2.65-17.62,2.65c-7.48,0-14.33-1.79-17.62-2.65 c-3.64-0.95-10.41-2.71-17.83-2.71c-7.43,0-14.2,1.76-17.83,2.71c-3.29,0.86-10.14,2.65-17.62,2.65v0.85 c7.59,0,14.51-1.81,17.84-2.68c3.6-0.94,10.3-2.68,17.62-2.68c7.32,0,13.77,1.68,17.62,2.68c3.33,0.87,10.25,2.68,17.84,2.68 c7.59,0,14.51-1.81,17.83-2.68c3.6-0.94,10.3-2.68,17.62-2.68s14.02,1.74,17.62,2.68c3.33,0.87,10.25,2.68,17.84,2.68 c7.59,0,14.51-1.81,17.83-2.68c3.6-0.94,10.3-2.68,17.62-2.68c7.32,0,13.77,1.68,17.62,2.68c3.33,0.87,10.25,2.68,17.83,2.68 c7.59,0,14.51-1.81,17.83-2.68c3.6-0.94,10.3-2.68,17.62-2.68c7.32,0,13.77,1.68,17.62,2.68c3.33,0.87,10.25,2.68,17.83,2.68 v-0.85c-7.48,0-14.33-1.79-17.62-2.65C214.91-19.57,208.14-21.33,200.71-21.33z"></path> <path d="M200.71-15.77c-7.43,0-14.2,1.76-17.84,2.71c-3.29,0.86-10.14,2.65-17.62,2.65c-7.48,0-14.33-1.79-17.62-2.65 c-3.64-0.95-10.41-2.71-17.83-2.71c-7.42,0-14.2,1.76-17.83,2.71c-3.29,0.86-10.14,2.65-17.62,2.65s-14.33-1.79-17.62-2.65 c-3.64-0.95-10.41-2.71-17.84-2.71c-7.43,0-14.2,1.76-17.84,2.71c-3.29,0.86-10.14,2.65-17.62,2.65c-7.48,0-14.33-1.79-17.62-2.65 c-3.64-0.95-10.41-2.71-17.83-2.71c-7.43,0-14.2,1.76-17.83,2.71c-3.29,0.86-10.14,2.65-17.62,2.65v0.85 c7.59,0,14.51-1.81,17.84-2.68c3.6-0.94,10.3-2.68,17.62-2.68c7.32,0,13.77,1.68,17.62,2.68c3.33,0.87,10.25,2.68,17.84,2.68 c7.59,0,14.51-1.81,17.83-2.68c3.6-0.94,10.3-2.68,17.62-2.68s14.02,1.74,17.62,2.68c3.33,0.87,10.25,2.68,17.84,2.68 c7.59,0,14.51-1.81,17.83-2.68c3.6-0.94,10.3-2.68,17.62-2.68c7.32,0,13.77,1.68,17.62,2.68c3.33,0.87,10.25,2.68,17.83,2.68 c7.59,0,14.51-1.81,17.83-2.68c3.6-0.94,10.3-2.68,17.62-2.68c7.32,0,13.77,1.68,17.62,2.68c3.33,0.87,10.25,2.68,17.83,2.68 v-0.85c-7.48,0-14.33-1.79-17.62-2.65C214.91-14.01,208.14-15.77,200.71-15.77z"></path> <path d="M200.71-10.21c-7.42,0-14.2,1.76-17.84,2.71c-3.29,0.86-10.14,2.65-17.62,2.65s-14.33-1.79-17.62-2.65 c-3.64-0.95-10.41-2.71-17.83-2.71c-7.42,0-14.2,1.76-17.84,2.71c-3.29,0.86-10.14,2.65-17.62,2.65c-7.48,0-14.33-1.79-17.62-2.65 c-3.64-0.95-10.41-2.71-17.84-2.71c-7.42,0-14.2,1.76-17.84,2.71c-3.29,0.86-10.14,2.65-17.62,2.65S9.1-6.64,5.81-7.5 C2.17-8.45-4.6-10.21-12.03-10.21c-7.42,0-14.2,1.76-17.83,2.71C-33.15-6.64-40-4.85-47.48-4.85V-4c7.59,0,14.51-1.81,17.84-2.68 c3.6-0.94,10.31-2.68,17.62-2.68c7.31,0,13.77,1.68,17.62,2.68C8.92-5.81,15.84-4,23.43-4s14.51-1.81,17.83-2.68 c3.6-0.94,10.31-2.68,17.62-2.68c7.32,0,13.77,1.68,17.62,2.68C79.84-5.81,86.75-4,94.34-4c7.59,0,14.51-1.81,17.83-2.68 c3.6-0.94,10.31-2.68,17.62-2.68c7.31,0,13.77,1.68,17.62,2.68C150.75-5.81,157.67-4,165.25-4c7.59,0,14.51-1.81,17.83-2.68 c3.6-0.94,10.31-2.68,17.62-2.68c7.31,0,13.77,1.68,17.62,2.68C221.66-5.81,228.58-4,236.17-4v-0.85 c-7.48,0-14.33-1.79-17.62-2.65C214.91-8.45,208.13-10.21,200.71-10.21z"></path> <path d="M200.71-4.65c-7.43,0-14.2,1.76-17.84,2.71c-3.29,0.86-10.14,2.65-17.62,2.65c-7.48,0-14.33-1.79-17.62-2.65 C144-2.89,137.23-4.65,129.8-4.65c-7.42,0-14.2,1.76-17.83,2.71c-3.29,0.86-10.14,2.65-17.62,2.65S80.01-1.08,76.72-1.94 c-3.64-0.95-10.41-2.71-17.84-2.71c-7.43,0-14.2,1.76-17.84,2.71c-3.29,0.86-10.14,2.65-17.62,2.65c-7.48,0-14.33-1.79-17.62-2.65 C2.17-2.89-4.6-4.65-12.03-4.65c-7.43,0-14.2,1.76-17.83,2.71C-33.15-1.08-40,0.71-47.48,0.71v0.85c7.59,0,14.51-1.81,17.84-2.68 c3.6-0.94,10.3-2.68,17.62-2.68c7.32,0,13.77,1.68,17.62,2.68c3.33,0.87,10.25,2.68,17.84,2.68c7.59,0,14.51-1.81,17.83-2.68 c3.6-0.94,10.3-2.68,17.62-2.68s14.02,1.74,17.62,2.68c3.33,0.87,10.25,2.68,17.84,2.68c7.59,0,14.51-1.81,17.83-2.68 c3.6-0.94,10.3-2.68,17.62-2.68c7.32,0,13.77,1.68,17.62,2.68c3.33,0.87,10.25,2.68,17.83,2.68c7.59,0,14.51-1.81,17.83-2.68 c3.6-0.94,10.3-2.68,17.62-2.68c7.32,0,13.77,1.68,17.62,2.68c3.33,0.87,10.25,2.68,17.83,2.68V0.71 c-7.48,0-14.33-1.79-17.62-2.65C214.91-2.89,208.14-4.65,200.71-4.65z"></path> <path d="M200.71,0.92c-7.43,0-14.2,1.76-17.84,2.71c-3.29,0.86-10.14,2.65-17.62,2.65c-7.48,0-14.33-1.79-17.62-2.65 C144,2.68,137.22,0.92,129.8,0.92c-7.42,0-14.2,1.76-17.83,2.71c-3.29,0.86-10.14,2.65-17.62,2.65c-7.48,0-14.33-1.79-17.62-2.65 c-3.64-0.95-10.41-2.71-17.84-2.71c-7.42,0-14.2,1.76-17.84,2.71c-3.29,0.86-10.15,2.65-17.62,2.65c-7.48,0-14.33-1.79-17.62-2.65 C2.17,2.68-4.6,0.92-12.03,0.92c-7.42,0-14.2,1.76-17.83,2.71C-33.15,4.48-40,6.27-47.48,6.27v0.85c7.59,0,14.51-1.81,17.84-2.68 c3.6-0.94,10.3-2.68,17.62-2.68c7.32,0,13.77,1.68,17.62,2.68c3.33,0.87,10.25,2.68,17.84,2.68c7.58,0,14.51-1.81,17.83-2.68 c3.6-0.94,10.31-2.68,17.62-2.68c7.32,0,14.02,1.74,17.62,2.68c3.33,0.87,10.25,2.68,17.84,2.68s14.51-1.81,17.83-2.68 c3.6-0.94,10.31-2.68,17.62-2.68c7.32,0,13.77,1.68,17.62,2.68c3.33,0.87,10.25,2.68,17.83,2.68c7.58,0,14.51-1.81,17.83-2.68 c3.6-0.94,10.31-2.68,17.62-2.68c7.32,0,13.77,1.68,17.62,2.68c3.33,0.87,10.25,2.68,17.83,2.68V6.27 c-7.47,0-14.33-1.79-17.62-2.65C214.91,2.68,208.14,0.92,200.71,0.92z"></path> <path d="M200.71,6.48c-7.43,0-14.2,1.76-17.84,2.71c-3.29,0.86-10.14,2.65-17.62,2.65c-7.48,0-14.33-1.79-17.62-2.65 C144,8.24,137.23,6.48,129.8,6.48c-7.42,0-14.2,1.76-17.83,2.71c-3.29,0.86-10.14,2.65-17.62,2.65s-14.33-1.79-17.62-2.65 c-3.64-0.95-10.41-2.71-17.84-2.71c-7.43,0-14.2,1.76-17.84,2.71c-3.29,0.86-10.14,2.65-17.62,2.65c-7.48,0-14.33-1.79-17.62-2.65 C2.17,8.24-4.6,6.48-12.03,6.48c-7.43,0-14.2,1.76-17.83,2.71c-3.29,0.86-10.14,2.65-17.62,2.65v0.85 c7.59,0,14.51-1.81,17.84-2.68c3.6-0.94,10.3-2.68,17.62-2.68c7.32,0,13.77,1.68,17.62,2.68c3.33,0.87,10.25,2.68,17.84,2.68 c7.59,0,14.51-1.81,17.83-2.68c3.6-0.94,10.3-2.68,17.62-2.68s14.02,1.74,17.62,2.68c3.33,0.87,10.25,2.68,17.84,2.68 c7.59,0,14.51-1.81,17.83-2.68c3.6-0.94,10.3-2.68,17.62-2.68c7.32,0,13.77,1.68,17.62,2.68c3.33,0.87,10.25,2.68,17.83,2.68 c7.59,0,14.51-1.81,17.83-2.68c3.6-0.94,10.3-2.68,17.62-2.68c7.32,0,13.77,1.68,17.62,2.68c3.33,0.87,10.25,2.68,17.83,2.68 v-0.85c-7.48,0-14.33-1.79-17.62-2.65C214.91,8.24,208.14,6.48,200.71,6.48z"></path> <path d="M200.71,12.04c-7.43,0-14.2,1.76-17.84,2.71c-3.29,0.86-10.14,2.65-17.62,2.65c-7.48,0-14.33-1.79-17.62-2.65 c-3.64-0.95-10.41-2.71-17.83-2.71c-7.42,0-14.2,1.76-17.84,2.71c-3.29,0.86-10.14,2.65-17.62,2.65c-7.48,0-14.33-1.79-17.62-2.65 c-3.64-0.95-10.41-2.71-17.84-2.71c-7.43,0-14.2,1.76-17.84,2.71c-3.29,0.86-10.14,2.65-17.62,2.65S9.1,15.61,5.81,14.75 C2.17,13.8-4.6,12.04-12.03,12.04c-7.43,0-14.2,1.76-17.83,2.71C-33.15,15.61-40,17.4-47.48,17.4v0.85 c7.59,0,14.51-1.81,17.84-2.68c3.6-0.94,10.3-2.68,17.62-2.68c7.32,0,13.77,1.68,17.62,2.68c3.33,0.87,10.25,2.68,17.84,2.68 c7.59,0,14.51-1.81,17.83-2.68c3.6-0.94,10.3-2.68,17.62-2.68s14.02,1.74,17.62,2.68c3.33,0.87,10.25,2.68,17.84,2.68 c7.59,0,14.51-1.81,17.83-2.68c3.6-0.94,10.3-2.68,17.62-2.68c7.32,0,13.77,1.68,17.62,2.68c3.33,0.87,10.25,2.68,17.84,2.68 c7.59,0,14.51-1.81,17.83-2.68c3.6-0.94,10.3-2.68,17.62-2.68c7.32,0,13.77,1.68,17.62,2.68c3.33,0.87,10.25,2.68,17.83,2.68V17.4 c-7.48,0-14.33-1.79-17.62-2.65C214.91,13.8,208.14,12.04,200.71,12.04z"></path> <path d="M200.71,17.6c-7.43,0-14.2,1.76-17.84,2.71c-3.29,0.86-10.14,2.65-17.62,2.65c-7.48,0-14.33-1.79-17.62-2.65 c-3.64-0.95-10.41-2.71-17.83-2.71c-7.42,0-14.2,1.76-17.83,2.71c-3.29,0.86-10.14,2.65-17.62,2.65s-14.33-1.79-17.62-2.65 c-3.64-0.95-10.41-2.71-17.84-2.71c-7.43,0-14.2,1.76-17.84,2.71c-3.29,0.86-10.14,2.65-17.62,2.65c-7.48,0-14.33-1.79-17.62-2.65 C2.17,19.36-4.6,17.6-12.03,17.6c-7.43,0-14.2,1.76-17.83,2.71c-3.29,0.86-10.14,2.65-17.62,2.65v0.85 c7.59,0,14.51-1.81,17.84-2.68c3.6-0.94,10.3-2.68,17.62-2.68c7.32,0,13.77,1.68,17.62,2.68c3.33,0.87,10.25,2.68,17.84,2.68 c7.59,0,14.51-1.81,17.83-2.68c3.6-0.94,10.3-2.68,17.62-2.68s14.02,1.74,17.62,2.68c3.33,0.87,10.25,2.68,17.84,2.68 c7.59,0,14.51-1.81,17.83-2.68c3.6-0.94,10.3-2.68,17.62-2.68c7.32,0,13.77,1.68,17.62,2.68c3.33,0.87,10.25,2.68,17.83,2.68 c7.59,0,14.51-1.81,17.83-2.68c3.6-0.94,10.3-2.68,17.62-2.68c7.32,0,13.77,1.68,17.62,2.68c3.33,0.87,10.25,2.68,17.83,2.68 v-0.85c-7.48,0-14.33-1.79-17.62-2.65C214.91,19.36,208.14,17.6,200.71,17.6z"></path> <path d="M200.71,23.16c-7.43,0-14.2,1.76-17.84,2.71c-3.29,0.86-10.14,2.65-17.62,2.65c-7.48,0-14.33-1.79-17.62-2.65 c-3.64-0.95-10.41-2.71-17.83-2.71c-7.42,0-14.2,1.76-17.83,2.71c-3.29,0.86-10.14,2.65-17.62,2.65s-14.33-1.79-17.62-2.65 c-3.64-0.95-10.41-2.71-17.84-2.71c-7.43,0-14.2,1.76-17.84,2.71c-3.29,0.86-10.14,2.65-17.62,2.65c-7.48,0-14.33-1.79-17.62-2.65 c-3.64-0.95-10.41-2.71-17.83-2.71c-7.43,0-14.2,1.76-17.83,2.71c-3.29,0.86-10.14,2.65-17.62,2.65v0.85 c7.59,0,14.51-1.81,17.84-2.68c3.6-0.94,10.3-2.68,17.62-2.68c7.32,0,13.77,1.68,17.62,2.68c3.33,0.87,10.25,2.68,17.84,2.68 c7.59,0,14.51-1.81,17.83-2.68c3.6-0.94,10.3-2.68,17.62-2.68s14.02,1.74,17.62,2.68c3.33,0.87,10.25,2.68,17.84,2.68 c7.59,0,14.51-1.81,17.83-2.68c3.6-0.94,10.3-2.68,17.62-2.68c7.32,0,13.77,1.68,17.62,2.68c3.33,0.87,10.25,2.68,17.83,2.68 c7.59,0,14.51-1.81,17.83-2.68c3.6-0.94,10.3-2.68,17.62-2.68c7.32,0,13.77,1.68,17.62,2.68c3.33,0.87,10.25,2.68,17.83,2.68 v-0.85c-7.48,0-14.33-1.79-17.62-2.65C214.91,24.92,208.14,23.16,200.71,23.16z"></path> <path d="M200.71,28.72c-7.43,0-14.2,1.76-17.84,2.71c-3.29,0.86-10.14,2.65-17.62,2.65c-7.48,0-14.33-1.79-17.62-2.65 c-3.64-0.95-10.41-2.71-17.84-2.71c-7.43,0-14.2,1.76-17.83,2.71c-3.29,0.86-10.14,2.65-17.62,2.65s-14.33-1.79-17.62-2.65 c-3.64-0.95-10.41-2.71-17.84-2.71c-7.43,0-14.2,1.76-17.84,2.71c-3.29,0.86-10.14,2.65-17.62,2.65c-7.48,0-14.33-1.79-17.62-2.65 c-3.64-0.95-10.41-2.71-17.83-2.71c-7.43,0-14.2,1.76-17.83,2.71c-3.29,0.86-10.14,2.65-17.62,2.65v0.85 c7.59,0,14.51-1.81,17.84-2.68c3.6-0.94,10.3-2.68,17.62-2.68c7.32,0,14.02,1.74,17.62,2.68c3.33,0.87,10.25,2.68,17.84,2.68 c7.59,0,14.51-1.81,17.83-2.68c3.6-0.94,10.3-2.68,17.62-2.68c7.32,0,14.02,1.74,17.62,2.68c3.33,0.87,10.25,2.68,17.84,2.68 c7.59,0,14.51-1.81,17.83-2.68c3.6-0.94,10.3-2.68,17.62-2.68c7.32,0,14.02,1.74,17.62,2.68c3.33,0.87,10.25,2.68,17.83,2.68 c7.59,0,14.51-1.81,17.83-2.68c3.6-0.94,10.3-2.68,17.62-2.68c7.32,0,14.02,1.74,17.62,2.68c3.33,0.87,10.25,2.68,17.83,2.68 v-0.85c-7.48,0-14.33-1.79-17.62-2.65C214.91,30.49,208.14,28.72,200.71,28.72z"></path> <path d="M200.71,34.29c-7.43,0-14.2,1.76-17.84,2.71c-3.29,0.86-10.14,2.65-17.62,2.65c-7.48,0-14.33-1.79-17.62-2.65 c-3.64-0.95-10.41-2.71-17.83-2.71c-7.42,0-14.2,1.76-17.83,2.71c-3.29,0.86-10.14,2.65-17.62,2.65s-14.33-1.79-17.62-2.65 c-3.64-0.95-10.41-2.71-17.84-2.71c-7.43,0-14.2,1.76-17.84,2.71c-3.29,0.86-10.14,2.65-17.62,2.65c-7.48,0-14.33-1.79-17.62-2.65 c-3.64-0.95-10.41-2.71-17.83-2.71c-7.43,0-14.2,1.76-17.83,2.71c-3.29,0.86-10.14,2.65-17.62,2.65v0.85 c7.59,0,14.51-1.81,17.84-2.68c3.6-0.94,10.3-2.68,17.62-2.68c7.32,0,13.77,1.68,17.62,2.68c3.33,0.87,10.25,2.68,17.84,2.68 c7.59,0,14.51-1.81,17.83-2.68c3.6-0.94,10.3-2.68,17.62-2.68s14.02,1.74,17.62,2.68c3.33,0.87,10.25,2.68,17.84,2.68 c7.59,0,14.51-1.81,17.83-2.68c3.6-0.94,10.3-2.68,17.62-2.68c7.32,0,13.77,1.68,17.62,2.68c3.33,0.87,10.25,2.68,17.83,2.68 c7.59,0,14.51-1.81,17.83-2.68c3.6-0.94,10.3-2.68,17.62-2.68c7.32,0,13.77,1.68,17.62,2.68c3.33,0.87,10.25,2.68,17.83,2.68 v-0.85c-7.48,0-14.33-1.79-17.62-2.65C214.91,36.05,208.14,34.29,200.71,34.29z"></path> <path d="M200.71,39.85c-7.43,0-14.2,1.76-17.84,2.71c-3.29,0.86-10.14,2.65-17.62,2.65c-7.48,0-14.33-1.79-17.62-2.65 c-3.64-0.95-10.41-2.71-17.83-2.71c-7.43,0-14.2,1.76-17.83,2.71c-3.29,0.86-10.14,2.65-17.62,2.65s-14.33-1.79-17.62-2.65 c-3.64-0.95-10.41-2.71-17.84-2.71c-7.43,0-14.2,1.76-17.84,2.71c-3.29,0.86-10.14,2.65-17.62,2.65c-7.48,0-14.33-1.79-17.62-2.65 c-3.64-0.95-10.41-2.71-17.83-2.71c-7.43,0-14.2,1.76-17.83,2.71C-33.15,43.42-40,45.2-47.48,45.2v0.85 c7.59,0,14.51-1.81,17.84-2.68c3.6-0.94,10.3-2.68,17.62-2.68c7.32,0,14.02,1.74,17.62,2.68c3.33,0.87,10.25,2.68,17.84,2.68 c7.59,0,14.51-1.81,17.83-2.68c3.6-0.94,10.3-2.68,17.62-2.68c7.32,0,14.02,1.74,17.62,2.68c3.33,0.87,10.25,2.68,17.84,2.68 c7.59,0,14.51-1.81,17.83-2.68c3.6-0.94,10.3-2.68,17.62-2.68c7.32,0,14.02,1.74,17.62,2.68c3.33,0.87,10.25,2.68,17.83,2.68 c7.59,0,14.51-1.81,17.83-2.68c3.6-0.94,10.3-2.68,17.62-2.68c7.32,0,14.02,1.74,17.62,2.68c3.33,0.87,10.25,2.68,17.83,2.68V45.2 c-7.48,0-14.33-1.79-17.62-2.65C214.91,41.61,208.14,39.85,200.71,39.85z"></path> <path d="M200.71,45.41c-7.43,0-14.2,1.76-17.84,2.71c-3.29,0.86-10.14,2.65-17.62,2.65c-7.48,0-14.33-1.79-17.62-2.65 c-3.64-0.95-10.41-2.71-17.83-2.71c-7.42,0-14.2,1.76-17.83,2.71c-3.29,0.86-10.14,2.65-17.62,2.65s-14.33-1.79-17.62-2.65 c-3.64-0.95-10.41-2.71-17.84-2.71c-7.43,0-14.2,1.76-17.84,2.71c-3.29,0.86-10.14,2.65-17.62,2.65c-7.48,0-14.33-1.79-17.62-2.65 c-3.64-0.95-10.41-2.71-17.83-2.71c-7.43,0-14.2,1.76-17.83,2.71c-3.29,0.86-10.14,2.65-17.62,2.65v0.85 c7.59,0,14.51-1.81,17.84-2.68c3.6-0.94,10.3-2.68,17.62-2.68c7.32,0,13.77,1.68,17.62,2.68c3.33,0.87,10.25,2.68,17.84,2.68 c7.59,0,14.51-1.81,17.83-2.68c3.6-0.94,10.3-2.68,17.62-2.68S72.91,48,76.51,48.94c3.33,0.87,10.25,2.68,17.84,2.68 c7.59,0,14.51-1.81,17.83-2.68c3.6-0.94,10.3-2.68,17.62-2.68c7.32,0,13.77,1.68,17.62,2.68c3.33,0.87,10.25,2.68,17.83,2.68 c7.59,0,14.51-1.81,17.83-2.68c3.6-0.94,10.3-2.68,17.62-2.68c7.32,0,13.77,1.68,17.62,2.68c3.33,0.87,10.25,2.68,17.83,2.68 v-0.85c-7.48,0-14.33-1.79-17.62-2.65C214.91,47.17,208.14,45.41,200.71,45.41z"></path> <path d="M200.71,50.97c-7.43,0-14.2,1.76-17.84,2.71c-3.29,0.86-10.14,2.65-17.62,2.65c-7.48,0-14.33-1.79-17.62-2.65 c-3.64-0.95-10.41-2.71-17.84-2.71c-7.43,0-14.2,1.76-17.83,2.71c-3.29,0.86-10.14,2.65-17.62,2.65c-7.48,0-14.33-1.79-17.62-2.65 c-3.64-0.95-10.41-2.71-17.84-2.71c-7.43,0-14.2,1.76-17.84,2.71c-3.29,0.86-10.15,2.65-17.62,2.65c-7.48,0-14.33-1.79-17.62-2.65 c-3.64-0.95-10.41-2.71-17.83-2.71c-7.43,0-14.2,1.76-17.83,2.71c-3.29,0.86-10.14,2.65-17.62,2.65v0.85 c7.59,0,14.51-1.81,17.84-2.68c3.6-0.94,10.3-2.68,17.62-2.68c7.32,0,14.02,1.74,17.62,2.68c3.33,0.87,10.25,2.68,17.84,2.68 c7.58,0,14.51-1.81,17.83-2.68c3.6-0.94,10.3-2.68,17.62-2.68c7.32,0,14.02,1.74,17.62,2.68c3.33,0.87,10.25,2.68,17.84,2.68 s14.51-1.81,17.83-2.68c3.6-0.94,10.3-2.68,17.62-2.68c7.32,0,14.02,1.74,17.62,2.68c3.33,0.87,10.25,2.68,17.83,2.68 c7.58,0,14.51-1.81,17.83-2.68c3.6-0.94,10.3-2.68,17.62-2.68c7.32,0,14.02,1.74,17.62,2.68c3.33,0.87,10.25,2.68,17.83,2.68 v-0.85c-7.47,0-14.33-1.79-17.62-2.65C214.91,52.73,208.14,50.97,200.71,50.97z"></path> <path d="M200.71,56.53c-7.43,0-14.2,1.76-17.84,2.71c-3.29,0.86-10.14,2.65-17.62,2.65c-7.48,0-14.33-1.79-17.62-2.65 c-3.64-0.95-10.41-2.71-17.83-2.71c-7.42,0-14.2,1.76-17.83,2.71c-3.29,0.86-10.14,2.65-17.62,2.65s-14.33-1.79-17.62-2.65 c-3.64-0.95-10.41-2.71-17.84-2.71c-7.43,0-14.2,1.76-17.84,2.71c-3.29,0.86-10.14,2.65-17.62,2.65c-7.48,0-14.33-1.79-17.62-2.65 c-3.64-0.95-10.41-2.71-17.83-2.71c-7.43,0-14.2,1.76-17.83,2.71c-3.29,0.86-10.14,2.65-17.62,2.65v0.85 c7.59,0,14.51-1.81,17.84-2.68c3.6-0.94,10.3-2.68,17.62-2.68c7.32,0,13.77,1.68,17.62,2.68c3.33,0.87,10.25,2.68,17.84,2.68 c7.59,0,14.51-1.81,17.83-2.68c3.6-0.94,10.3-2.68,17.62-2.68s14.02,1.74,17.62,2.68c3.33,0.87,10.25,2.68,17.84,2.68 c7.59,0,14.51-1.81,17.83-2.68c3.6-0.94,10.3-2.68,17.62-2.68c7.32,0,13.77,1.68,17.62,2.68c3.33,0.87,10.25,2.68,17.83,2.68 c7.59,0,14.51-1.81,17.83-2.68c3.6-0.94,10.3-2.68,17.62-2.68c7.32,0,13.77,1.68,17.62,2.68c3.33,0.87,10.25,2.68,17.83,2.68 v-0.85c-7.48,0-14.33-1.79-17.62-2.65C214.91,58.29,208.14,56.53,200.71,56.53z"></path> <path d="M200.71,62.1c-7.43,0-14.2,1.76-17.84,2.71c-3.29,0.86-10.14,2.65-17.62,2.65c-7.48,0-14.33-1.79-17.62-2.65 c-3.64-0.95-10.41-2.71-17.83-2.71c-7.42,0-14.2,1.76-17.83,2.71c-3.29,0.86-10.14,2.65-17.62,2.65s-14.33-1.79-17.62-2.65 c-3.64-0.95-10.41-2.71-17.84-2.71c-7.43,0-14.2,1.76-17.84,2.71c-3.29,0.86-10.14,2.65-17.62,2.65c-7.48,0-14.33-1.79-17.62-2.65 C2.17,63.86-4.6,62.1-12.03,62.1c-7.43,0-14.2,1.76-17.83,2.71c-3.29,0.86-10.14,2.65-17.62,2.65v0.85 c7.59,0,14.51-1.81,17.84-2.68c3.6-0.94,10.3-2.68,17.62-2.68c7.32,0,13.77,1.68,17.62,2.68c3.33,0.87,10.25,2.68,17.84,2.68 c7.59,0,14.51-1.81,17.83-2.68c3.6-0.94,10.3-2.68,17.62-2.68s14.02,1.74,17.62,2.68c3.33,0.87,10.25,2.68,17.84,2.68 c7.59,0,14.51-1.81,17.83-2.68c3.6-0.94,10.3-2.68,17.62-2.68c7.32,0,13.77,1.68,17.62,2.68c3.33,0.87,10.25,2.68,17.83,2.68 c7.59,0,14.51-1.81,17.83-2.68c3.6-0.94,10.3-2.68,17.62-2.68c7.32,0,13.77,1.68,17.62,2.68c3.33,0.87,10.25,2.68,17.83,2.68 v-0.85c-7.48,0-14.33-1.79-17.62-2.65C214.91,63.86,208.14,62.1,200.71,62.1z"></path> <path d="M200.71,67.66c-7.43,0-14.2,1.76-17.84,2.71c-3.29,0.86-10.14,2.65-17.62,2.65s-14.33-1.79-17.62-2.65 c-3.64-0.95-10.41-2.71-17.83-2.71c-7.42,0-14.2,1.76-17.84,2.71c-3.29,0.86-10.14,2.65-17.62,2.65c-7.48,0-14.33-1.79-17.62-2.65 c-3.64-0.95-10.41-2.71-17.84-2.71c-7.42,0-14.2,1.76-17.84,2.71c-3.29,0.86-10.14,2.65-17.62,2.65S9.1,71.22,5.81,70.36 c-3.64-0.95-10.41-2.71-17.83-2.71c-7.42,0-14.2,1.76-17.83,2.71c-3.29,0.86-10.14,2.65-17.62,2.65v0.85 c7.59,0,14.51-1.81,17.84-2.68c3.6-0.94,10.31-2.68,17.62-2.68c7.32,0,13.77,1.68,17.62,2.68c3.33,0.87,10.25,2.68,17.84,2.68 s14.51-1.81,17.83-2.68c3.6-0.94,10.31-2.68,17.62-2.68c7.32,0,13.77,1.68,17.62,2.68c3.33,0.87,10.25,2.68,17.84,2.68 c7.59,0,14.51-1.81,17.83-2.68c3.6-0.94,10.31-2.68,17.62-2.68c7.32,0,13.77,1.68,17.62,2.68c3.33,0.87,10.25,2.68,17.84,2.68 c7.59,0,14.51-1.81,17.83-2.68c3.6-0.94,10.31-2.68,17.62-2.68c7.31,0,13.77,1.68,17.62,2.68c3.33,0.87,10.25,2.68,17.83,2.68 v-0.85c-7.48,0-14.33-1.79-17.62-2.65C214.91,69.42,208.14,67.66,200.71,67.66z"></path> <path d="M200.71,73.22c-7.43,0-14.2,1.76-17.84,2.71c-3.29,0.86-10.14,2.65-17.62,2.65c-7.48,0-14.33-1.79-17.62-2.65 c-3.64-0.95-10.41-2.71-17.83-2.71c-7.42,0-14.2,1.76-17.83,2.71c-3.29,0.86-10.14,2.65-17.62,2.65s-14.33-1.79-17.62-2.65 c-3.64-0.95-10.41-2.71-17.84-2.71c-7.43,0-14.2,1.76-17.84,2.71c-3.29,0.86-10.14,2.65-17.62,2.65c-7.48,0-14.33-1.79-17.62-2.65 c-3.64-0.95-10.41-2.71-17.83-2.71c-7.43,0-14.2,1.76-17.83,2.71c-3.29,0.86-10.14,2.65-17.62,2.65v0.85 c7.59,0,14.51-1.81,17.84-2.68c3.6-0.94,10.3-2.68,17.62-2.68c7.32,0,13.77,1.68,17.62,2.68c3.33,0.87,10.25,2.68,17.84,2.68 c7.59,0,14.51-1.81,17.83-2.68c3.6-0.94,10.3-2.68,17.62-2.68s14.02,1.74,17.62,2.68c3.33,0.87,10.25,2.68,17.84,2.68 c7.59,0,14.51-1.81,17.83-2.68c3.6-0.94,10.3-2.68,17.62-2.68c7.32,0,13.77,1.68,17.62,2.68c3.33,0.87,10.25,2.68,17.83,2.68 c7.59,0,14.51-1.81,17.83-2.68c3.6-0.94,10.3-2.68,17.62-2.68c7.32,0,13.77,1.68,17.62,2.68c3.33,0.87,10.25,2.68,17.83,2.68 v-0.85c-7.48,0-14.33-1.79-17.62-2.65C214.91,74.98,208.14,73.22,200.71,73.22z"></path> <path d="M200.71,78.78c-7.43,0-14.2,1.76-17.84,2.71c-3.29,0.86-10.15,2.65-17.62,2.65c-7.47,0-14.33-1.79-17.62-2.65 c-3.64-0.95-10.41-2.71-17.84-2.71c-7.43,0-14.2,1.76-17.83,2.71c-3.29,0.86-10.15,2.65-17.62,2.65c-7.47,0-14.33-1.79-17.62-2.65 c-3.64-0.95-10.41-2.71-17.84-2.71c-7.43,0-14.2,1.76-17.84,2.71c-3.29,0.86-10.15,2.65-17.62,2.65S9.1,82.35,5.81,81.49 c-3.64-0.95-10.41-2.71-17.83-2.71c-7.43,0-14.2,1.76-17.83,2.71c-3.29,0.86-10.15,2.65-17.62,2.65v0.85 c7.59,0,14.51-1.81,17.84-2.68c3.6-0.94,10.3-2.68,17.62-2.68c7.32,0,14.02,1.74,17.62,2.68c3.33,0.87,10.25,2.68,17.84,2.68 s14.51-1.81,17.83-2.68c3.6-0.94,10.3-2.68,17.62-2.68c7.32,0,14.02,1.74,17.62,2.68c3.33,0.87,10.25,2.68,17.84,2.68 s14.51-1.81,17.83-2.68c3.6-0.94,10.3-2.68,17.62-2.68c7.32,0,14.02,1.74,17.62,2.68c3.33,0.87,10.25,2.68,17.83,2.68 s14.51-1.81,17.83-2.68c3.6-0.94,10.3-2.68,17.62-2.68c7.32,0,14.02,1.74,17.62,2.68c3.33,0.87,10.25,2.68,17.83,2.68v-0.85 c-7.47,0-14.33-1.79-17.62-2.65C214.91,80.54,208.14,78.78,200.71,78.78z"></path> <path d="M200.71,84.34c-7.43,0-14.2,1.76-17.84,2.71c-3.29,0.86-10.14,2.65-17.62,2.65c-7.48,0-14.33-1.79-17.62-2.65 c-3.64-0.95-10.41-2.71-17.83-2.71c-7.42,0-14.2,1.76-17.83,2.71c-3.29,0.86-10.14,2.65-17.62,2.65s-14.33-1.79-17.62-2.65 c-3.64-0.95-10.41-2.71-17.84-2.71c-7.43,0-14.2,1.76-17.84,2.71c-3.29,0.86-10.14,2.65-17.62,2.65c-7.48,0-14.33-1.79-17.62-2.65 C2.17,86.1-4.6,84.34-12.03,84.34c-7.43,0-14.2,1.76-17.83,2.71C-33.15,87.91-40,89.7-47.48,89.7v0.85 c7.59,0,14.51-1.81,17.84-2.68c3.6-0.94,10.3-2.68,17.62-2.68c7.32,0,13.77,1.68,17.62,2.68c3.33,0.87,10.25,2.68,17.84,2.68 c7.59,0,14.51-1.81,17.83-2.68c3.6-0.94,10.3-2.68,17.62-2.68s14.02,1.74,17.62,2.68c3.33,0.87,10.25,2.68,17.84,2.68 c7.59,0,14.51-1.81,17.83-2.68c3.6-0.94,10.3-2.68,17.62-2.68c7.32,0,13.77,1.68,17.62,2.68c3.33,0.87,10.25,2.68,17.83,2.68 c7.59,0,14.51-1.81,17.83-2.68c3.6-0.94,10.3-2.68,17.62-2.68c7.32,0,13.77,1.68,17.62,2.68c3.33,0.87,10.25,2.68,17.83,2.68V89.7 c-7.48,0-14.33-1.79-17.62-2.65C214.91,86.1,208.14,84.34,200.71,84.34z"></path> <path d="M200.71,89.9c-7.43,0-14.2,1.76-17.84,2.71c-3.29,0.86-10.14,2.65-17.62,2.65c-7.48,0-14.33-1.79-17.62-2.65 c-3.64-0.95-10.41-2.71-17.83-2.71c-7.42,0-14.2,1.76-17.83,2.71c-3.29,0.86-10.14,2.65-17.62,2.65s-14.33-1.79-17.62-2.65 c-3.64-0.95-10.41-2.71-17.84-2.71c-7.43,0-14.2,1.76-17.84,2.71c-3.29,0.86-10.14,2.65-17.62,2.65c-7.48,0-14.33-1.79-17.62-2.65 C2.17,91.66-4.6,89.9-12.03,89.9c-7.43,0-14.2,1.76-17.83,2.71c-3.29,0.86-10.14,2.65-17.62,2.65v0.85 c7.59,0,14.51-1.81,17.84-2.68c3.6-0.94,10.3-2.68,17.62-2.68c7.32,0,13.77,1.68,17.62,2.68c3.33,0.87,10.25,2.68,17.84,2.68 c7.59,0,14.51-1.81,17.83-2.68c3.6-0.94,10.3-2.68,17.62-2.68s14.02,1.74,17.62,2.68c3.33,0.87,10.25,2.68,17.84,2.68 c7.59,0,14.51-1.81,17.83-2.68c3.6-0.94,10.3-2.68,17.62-2.68c7.32,0,13.77,1.68,17.62,2.68c3.33,0.87,10.25,2.68,17.83,2.68 c7.59,0,14.51-1.81,17.83-2.68c3.6-0.94,10.3-2.68,17.62-2.68c7.32,0,13.77,1.68,17.62,2.68c3.33,0.87,10.25,2.68,17.83,2.68 v-0.85c-7.48,0-14.33-1.79-17.62-2.65C214.91,91.66,208.14,89.9,200.71,89.9z"></path> <path d="M200.71,95.47c-7.43,0-14.2,1.76-17.84,2.71c-3.29,0.86-10.14,2.65-17.62,2.65c-7.48,0-14.33-1.79-17.62-2.65 c-3.64-0.95-10.41-2.71-17.83-2.71c-7.42,0-14.2,1.76-17.83,2.71c-3.29,0.86-10.14,2.65-17.62,2.65s-14.33-1.79-17.62-2.65 c-3.64-0.95-10.41-2.71-17.84-2.71c-7.43,0-14.2,1.76-17.84,2.71c-3.29,0.86-10.14,2.65-17.62,2.65c-7.48,0-14.33-1.79-17.62-2.65 c-3.64-0.95-10.41-2.71-17.83-2.71c-7.43,0-14.2,1.76-17.83,2.71c-3.29,0.86-10.14,2.65-17.62,2.65v0.85 c7.59,0,14.51-1.81,17.84-2.68c3.6-0.94,10.3-2.68,17.62-2.68c7.32,0,13.77,1.68,17.62,2.68c3.33,0.87,10.25,2.68,17.84,2.68 c7.59,0,14.51-1.81,17.83-2.68c3.6-0.94,10.3-2.68,17.62-2.68S72.91,98.06,76.51,99c3.33,0.87,10.25,2.68,17.84,2.68 c7.59,0,14.51-1.81,17.83-2.68c3.6-0.94,10.3-2.68,17.62-2.68c7.32,0,13.77,1.68,17.62,2.68c3.33,0.87,10.25,2.68,17.83,2.68 c7.59,0,14.51-1.81,17.83-2.68c3.6-0.94,10.3-2.68,17.62-2.68c7.32,0,13.77,1.68,17.62,2.68c3.33,0.87,10.25,2.68,17.83,2.68 v-0.85c-7.48,0-14.33-1.79-17.62-2.65C214.91,97.23,208.14,95.47,200.71,95.47z"></path> <path d="M200.71,101.03c-7.43,0-14.2,1.76-17.84,2.71c-3.29,0.86-10.14,2.65-17.62,2.65c-7.48,0-14.33-1.79-17.62-2.65 c-3.64-0.95-10.41-2.71-17.83-2.71c-7.42,0-14.2,1.76-17.83,2.71c-3.29,0.86-10.14,2.65-17.62,2.65c-7.48,0-14.33-1.79-17.62-2.65 c-3.64-0.95-10.41-2.71-17.84-2.71c-7.43,0-14.2,1.76-17.84,2.71c-3.29,0.86-10.14,2.65-17.62,2.65c-7.48,0-14.33-1.79-17.62-2.65 c-3.64-0.95-10.41-2.71-17.83-2.71c-7.43,0-14.2,1.76-17.83,2.71c-3.29,0.86-10.14,2.65-17.62,2.65v0.85 c7.59,0,14.51-1.81,17.84-2.68c3.6-0.94,10.3-2.68,17.62-2.68c7.32,0,13.77,1.68,17.62,2.68c3.33,0.87,10.25,2.68,17.84,2.68 c7.59,0,14.51-1.81,17.83-2.68c3.6-0.94,10.3-2.68,17.62-2.68s14.02,1.74,17.62,2.68c3.33,0.87,10.25,2.68,17.84,2.68 s14.51-1.81,17.83-2.68c3.6-0.94,10.3-2.68,17.62-2.68c7.32,0,13.77,1.68,17.62,2.68c3.33,0.87,10.25,2.68,17.83,2.68 c7.59,0,14.51-1.81,17.83-2.68c3.6-0.94,10.3-2.68,17.62-2.68c7.32,0,13.77,1.68,17.62,2.68c3.33,0.87,10.25,2.68,17.83,2.68 v-0.85c-7.48,0-14.33-1.79-17.62-2.65C214.91,102.79,208.14,101.03,200.71,101.03z"></path> <path d="M200.71,106.59c-7.43,0-14.2,1.76-17.84,2.71c-3.29,0.86-10.14,2.65-17.62,2.65c-7.48,0-14.33-1.79-17.62-2.65 c-3.64-0.95-10.41-2.71-17.83-2.71c-7.42,0-14.2,1.76-17.83,2.71c-3.29,0.86-10.14,2.65-17.62,2.65s-14.33-1.79-17.62-2.65 c-3.64-0.95-10.41-2.71-17.84-2.71c-7.43,0-14.2,1.76-17.84,2.71c-3.29,0.86-10.14,2.65-17.62,2.65c-7.48,0-14.33-1.79-17.62-2.65 c-3.64-0.95-10.41-2.71-17.83-2.71c-7.43,0-14.2,1.76-17.83,2.71c-3.29,0.86-10.14,2.65-17.62,2.65v0.85 c7.59,0,14.51-1.81,17.84-2.68c3.6-0.94,10.3-2.68,17.62-2.68c7.32,0,13.77,1.68,17.62,2.68c3.33,0.87,10.25,2.68,17.84,2.68 c7.59,0,14.51-1.81,17.83-2.68c3.6-0.94,10.3-2.68,17.62-2.68s14.02,1.74,17.62,2.68c3.33,0.87,10.25,2.68,17.84,2.68 c7.59,0,14.51-1.81,17.83-2.68c3.6-0.94,10.3-2.68,17.62-2.68c7.32,0,13.77,1.68,17.62,2.68c3.33,0.87,10.25,2.68,17.83,2.68 c7.59,0,14.51-1.81,17.83-2.68c3.6-0.94,10.3-2.68,17.62-2.68c7.32,0,13.77,1.68,17.62,2.68c3.33,0.87,10.25,2.68,17.83,2.68 v-0.85c-7.48,0-14.33-1.79-17.62-2.65C214.91,108.35,208.14,106.59,200.71,106.59z"></path> <path d="M200.71,112.15c-7.43,0-14.2,1.76-17.84,2.71c-3.29,0.86-10.14,2.65-17.62,2.65c-7.48,0-14.33-1.79-17.62-2.65 c-3.64-0.95-10.41-2.71-17.83-2.71c-7.42,0-14.2,1.76-17.83,2.71c-3.29,0.86-10.14,2.65-17.62,2.65s-14.33-1.79-17.62-2.65 c-3.64-0.95-10.41-2.71-17.84-2.71c-7.43,0-14.2,1.76-17.84,2.71c-3.29,0.86-10.14,2.65-17.62,2.65c-7.48,0-14.33-1.79-17.62-2.65 c-3.64-0.95-10.41-2.71-17.83-2.71c-7.43,0-14.2,1.76-17.83,2.71c-3.29,0.86-10.14,2.65-17.62,2.65v0.85 c7.59,0,14.51-1.81,17.84-2.68c3.6-0.94,10.3-2.68,17.62-2.68c7.32,0,13.77,1.68,17.62,2.68c3.33,0.87,10.25,2.68,17.84,2.68 c7.59,0,14.51-1.81,17.83-2.68c3.6-0.94,10.3-2.68,17.62-2.68s14.02,1.74,17.62,2.68c3.33,0.87,10.25,2.68,17.84,2.68 c7.59,0,14.51-1.81,17.83-2.68c3.6-0.94,10.3-2.68,17.62-2.68c7.32,0,13.77,1.68,17.62,2.68c3.33,0.87,10.25,2.68,17.83,2.68 c7.59,0,14.51-1.81,17.83-2.68c3.6-0.94,10.3-2.68,17.62-2.68c7.32,0,13.77,1.68,17.62,2.68c3.33,0.87,10.25,2.68,17.83,2.68 v-0.85c-7.48,0-14.33-1.79-17.62-2.65C214.91,113.91,208.14,112.15,200.71,112.15z"></path> <path d="M200.71,117.71c-7.43,0-14.2,1.76-17.84,2.71c-3.29,0.86-10.14,2.65-17.62,2.65s-14.33-1.79-17.62-2.65 c-3.64-0.95-10.41-2.71-17.83-2.71c-7.42,0-14.2,1.76-17.84,2.71c-3.29,0.86-10.14,2.65-17.62,2.65c-7.48,0-14.33-1.79-17.62-2.65 c-3.64-0.95-10.41-2.71-17.84-2.71c-7.43,0-14.2,1.76-17.84,2.71c-3.29,0.86-10.14,2.65-17.62,2.65s-14.33-1.79-17.62-2.65 c-3.64-0.95-10.41-2.71-17.83-2.71c-7.43,0-14.2,1.76-17.83,2.71c-3.29,0.86-10.14,2.65-17.62,2.65v0.85 c7.59,0,14.51-1.81,17.84-2.68c3.6-0.94,10.3-2.68,17.62-2.68c7.32,0,13.77,1.68,17.62,2.68c3.33,0.87,10.25,2.68,17.84,2.68 s14.51-1.81,17.83-2.68c3.6-0.94,10.3-2.68,17.62-2.68s14.02,1.74,17.62,2.68c3.33,0.87,10.25,2.68,17.84,2.68 c7.59,0,14.51-1.81,17.83-2.68c3.6-0.94,10.3-2.68,17.62-2.68c7.32,0,13.77,1.68,17.62,2.68c3.33,0.87,10.25,2.68,17.84,2.68 c7.59,0,14.51-1.81,17.83-2.68c3.6-0.94,10.3-2.68,17.62-2.68c7.32,0,13.77,1.68,17.62,2.68c3.33,0.87,10.25,2.68,17.83,2.68 v-0.85c-7.48,0-14.33-1.79-17.62-2.65C214.91,119.47,208.14,117.71,200.71,117.71z"></path> <path d="M200.71,123.27c-7.43,0-14.2,1.76-17.84,2.71c-3.29,0.86-10.14,2.65-17.62,2.65c-7.48,0-14.33-1.79-17.62-2.65 c-3.64-0.95-10.41-2.71-17.83-2.71c-7.42,0-14.2,1.76-17.83,2.71c-3.29,0.86-10.14,2.65-17.62,2.65s-14.33-1.79-17.62-2.65 c-3.64-0.95-10.41-2.71-17.84-2.71c-7.43,0-14.2,1.76-17.84,2.71c-3.29,0.86-10.14,2.65-17.62,2.65c-7.48,0-14.33-1.79-17.62-2.65 c-3.64-0.95-10.41-2.71-17.83-2.71c-7.43,0-14.2,1.76-17.83,2.71c-3.29,0.86-10.14,2.65-17.62,2.65v0.85 c7.59,0,14.51-1.81,17.84-2.68c3.6-0.94,10.3-2.68,17.62-2.68c7.32,0,13.77,1.68,17.62,2.68c3.33,0.87,10.25,2.68,17.84,2.68 c7.59,0,14.51-1.81,17.83-2.68c3.6-0.94,10.3-2.68,17.62-2.68s14.02,1.74,17.62,2.68c3.33,0.87,10.25,2.68,17.84,2.68 c7.59,0,14.51-1.81,17.83-2.68c3.6-0.94,10.3-2.68,17.62-2.68c7.32,0,13.77,1.68,17.62,2.68c3.33,0.87,10.25,2.68,17.83,2.68 c7.59,0,14.51-1.81,17.83-2.68c3.6-0.94,10.3-2.68,17.62-2.68c7.32,0,13.77,1.68,17.62,2.68c3.33,0.87,10.25,2.68,17.83,2.68 v-0.85c-7.48,0-14.33-1.79-17.62-2.65C214.91,125.03,208.14,123.27,200.71,123.27z"></path> <path d="M200.71,128.84c-7.43,0-14.2,1.76-17.84,2.71c-3.29,0.86-10.15,2.65-17.62,2.65c-7.47,0-14.33-1.79-17.62-2.65 c-3.64-0.95-10.41-2.71-17.84-2.71c-7.43,0-14.2,1.76-17.83,2.71c-3.29,0.86-10.15,2.65-17.62,2.65c-7.47,0-14.33-1.79-17.62-2.65 c-3.64-0.95-10.41-2.71-17.84-2.71c-7.43,0-14.2,1.76-17.84,2.71c-3.29,0.86-10.15,2.65-17.62,2.65S9.1,132.4,5.81,131.54 c-3.64-0.95-10.41-2.71-17.83-2.71c-7.43,0-14.2,1.76-17.83,2.71c-3.29,0.86-10.15,2.65-17.62,2.65v0.85 c7.59,0,14.51-1.81,17.84-2.68c3.6-0.94,10.3-2.68,17.62-2.68c7.32,0,14.02,1.74,17.62,2.68c3.33,0.87,10.25,2.68,17.84,2.68 s14.51-1.81,17.83-2.68c3.6-0.94,10.3-2.68,17.62-2.68c7.32,0,14.02,1.74,17.62,2.68c3.33,0.87,10.25,2.68,17.84,2.68 s14.51-1.81,17.83-2.68c3.6-0.94,10.3-2.68,17.62-2.68c7.32,0,14.02,1.74,17.62,2.68c3.33,0.87,10.25,2.68,17.83,2.68 s14.51-1.81,17.83-2.68c3.6-0.94,10.3-2.68,17.62-2.68c7.32,0,14.02,1.74,17.62,2.68c3.33,0.87,10.25,2.68,17.83,2.68v-0.85 c-7.47,0-14.33-1.79-17.62-2.65C214.91,130.6,208.14,128.84,200.71,128.84z"></path> <path d="M200.71,134.4c-7.43,0-14.2,1.76-17.84,2.71c-3.29,0.86-10.14,2.65-17.62,2.65c-7.48,0-14.33-1.79-17.62-2.65 c-3.64-0.95-10.41-2.71-17.83-2.71c-7.42,0-14.2,1.76-17.83,2.71c-3.29,0.86-10.14,2.65-17.62,2.65s-14.33-1.79-17.62-2.65 c-3.64-0.95-10.41-2.71-17.84-2.71c-7.43,0-14.2,1.76-17.84,2.71c-3.29,0.86-10.14,2.65-17.62,2.65c-7.48,0-14.33-1.79-17.62-2.65 c-3.64-0.95-10.41-2.71-17.83-2.71c-7.43,0-14.2,1.76-17.83,2.71c-3.29,0.86-10.14,2.65-17.62,2.65v0.85 c7.59,0,14.51-1.81,17.84-2.68c3.6-0.94,10.3-2.68,17.62-2.68c7.32,0,13.77,1.68,17.62,2.68c3.33,0.87,10.25,2.68,17.84,2.68 c7.59,0,14.51-1.81,17.83-2.68c3.6-0.94,10.3-2.68,17.62-2.68s14.02,1.74,17.62,2.68c3.33,0.87,10.25,2.68,17.84,2.68 c7.59,0,14.51-1.81,17.83-2.68c3.6-0.94,10.3-2.68,17.62-2.68c7.32,0,13.77,1.68,17.62,2.68c3.33,0.87,10.25,2.68,17.83,2.68 c7.59,0,14.51-1.81,17.83-2.68c3.6-0.94,10.3-2.68,17.62-2.68c7.32,0,13.77,1.68,17.62,2.68c3.33,0.87,10.25,2.68,17.83,2.68 v-0.85c-7.48,0-14.33-1.79-17.62-2.65C214.91,136.16,208.14,134.4,200.71,134.4z"></path> <path d="M200.71,139.96c-7.43,0-14.2,1.76-17.84,2.71c-3.29,0.86-10.14,2.65-17.62,2.65c-7.48,0-14.33-1.79-17.62-2.65 c-3.64-0.95-10.41-2.71-17.83-2.71c-7.42,0-14.2,1.76-17.83,2.71c-3.29,0.86-10.14,2.65-17.62,2.65s-14.33-1.79-17.62-2.65 c-3.64-0.95-10.41-2.71-17.84-2.71c-7.43,0-14.2,1.76-17.84,2.71c-3.29,0.86-10.14,2.65-17.62,2.65c-7.48,0-14.33-1.79-17.62-2.65 c-3.64-0.95-10.41-2.71-17.83-2.71c-7.43,0-14.2,1.76-17.83,2.71c-3.29,0.86-10.14,2.65-17.62,2.65v0.85 c7.59,0,14.51-1.81,17.84-2.68c3.6-0.94,10.3-2.68,17.62-2.68c7.32,0,13.77,1.68,17.62,2.68c3.33,0.87,10.25,2.68,17.84,2.68 c7.59,0,14.51-1.81,17.83-2.68c3.6-0.94,10.3-2.68,17.62-2.68s14.02,1.74,17.62,2.68c3.33,0.87,10.25,2.68,17.84,2.68 c7.59,0,14.51-1.81,17.83-2.68c3.6-0.94,10.3-2.68,17.62-2.68c7.32,0,13.77,1.68,17.62,2.68c3.33,0.87,10.25,2.68,17.83,2.68 c7.59,0,14.51-1.81,17.83-2.68c3.6-0.94,10.3-2.68,17.62-2.68c7.32,0,13.77,1.68,17.62,2.68c3.33,0.87,10.25,2.68,17.83,2.68 v-0.85c-7.48,0-14.33-1.79-17.62-2.65C214.91,141.72,208.14,139.96,200.71,139.96z"></path> <path d="M200.71,145.52c-7.43,0-14.2,1.76-17.84,2.71c-3.29,0.86-10.14,2.65-17.62,2.65c-7.48,0-14.33-1.79-17.62-2.65 c-3.64-0.95-10.41-2.71-17.83-2.71c-7.42,0-14.2,1.76-17.83,2.71c-3.29,0.86-10.14,2.65-17.62,2.65s-14.33-1.79-17.62-2.65 c-3.64-0.95-10.41-2.71-17.84-2.71c-7.43,0-14.2,1.76-17.84,2.71c-3.29,0.86-10.14,2.65-17.62,2.65c-7.48,0-14.33-1.79-17.62-2.65 c-3.64-0.95-10.41-2.71-17.83-2.71c-7.43,0-14.2,1.76-17.83,2.71c-3.29,0.86-10.14,2.65-17.62,2.65v0.85 c7.59,0,14.51-1.81,17.84-2.68c3.6-0.94,10.3-2.68,17.62-2.68c7.32,0,13.77,1.68,17.62,2.68c3.33,0.87,10.25,2.68,17.84,2.68 c7.59,0,14.51-1.81,17.83-2.68c3.6-0.94,10.3-2.68,17.62-2.68s14.02,1.74,17.62,2.68c3.33,0.87,10.25,2.68,17.84,2.68 c7.59,0,14.51-1.81,17.83-2.68c3.6-0.94,10.3-2.68,17.62-2.68c7.32,0,13.77,1.68,17.62,2.68c3.33,0.87,10.25,2.68,17.83,2.68 c7.59,0,14.51-1.81,17.83-2.68c3.6-0.94,10.3-2.68,17.62-2.68c7.32,0,13.77,1.68,17.62,2.68c3.33,0.87,10.25,2.68,17.83,2.68 v-0.85c-7.48,0-14.33-1.79-17.62-2.65C214.91,147.28,208.14,145.52,200.71,145.52z"></path> <path d="M200.71,151.08c-7.43,0-14.2,1.76-17.84,2.71c-3.29,0.86-10.14,2.65-17.62,2.65c-7.48,0-14.33-1.79-17.62-2.65 c-3.64-0.95-10.41-2.71-17.83-2.71c-7.42,0-14.2,1.76-17.83,2.71c-3.29,0.86-10.14,2.65-17.62,2.65s-14.33-1.79-17.62-2.65 c-3.64-0.95-10.41-2.71-17.84-2.71c-7.43,0-14.2,1.76-17.84,2.71c-3.29,0.86-10.14,2.65-17.62,2.65c-7.48,0-14.33-1.79-17.62-2.65 c-3.64-0.95-10.41-2.71-17.83-2.71c-7.43,0-14.2,1.76-17.83,2.71c-3.29,0.86-10.14,2.65-17.62,2.65v0.85 c7.59,0,14.51-1.81,17.84-2.68c3.6-0.94,10.3-2.68,17.62-2.68c7.32,0,13.77,1.68,17.62,2.68c3.33,0.87,10.25,2.68,17.84,2.68 c7.59,0,14.51-1.81,17.83-2.68c3.6-0.94,10.3-2.68,17.62-2.68s14.02,1.74,17.62,2.68c3.33,0.87,10.25,2.68,17.84,2.68 c7.59,0,14.51-1.81,17.83-2.68c3.6-0.94,10.3-2.68,17.62-2.68c7.32,0,13.77,1.68,17.62,2.68c3.33,0.87,10.25,2.68,17.83,2.68 c7.59,0,14.51-1.81,17.83-2.68c3.6-0.94,10.3-2.68,17.62-2.68c7.32,0,13.77,1.68,17.62,2.68c3.33,0.87,10.25,2.68,17.83,2.68 v-0.85c-7.48,0-14.33-1.79-17.62-2.65C214.91,152.84,208.14,151.08,200.71,151.08z"></path> <path d="M200.71,156.65c-7.43,0-14.2,1.76-17.84,2.71c-3.29,0.86-10.14,2.65-17.62,2.65s-14.33-1.79-17.62-2.65 c-3.64-0.95-10.41-2.71-17.83-2.71c-7.42,0-14.2,1.76-17.84,2.71c-3.29,0.86-10.14,2.65-17.62,2.65c-7.48,0-14.33-1.79-17.62-2.65 c-3.64-0.95-10.41-2.71-17.84-2.71c-7.42,0-14.2,1.76-17.84,2.71c-3.29,0.86-10.14,2.65-17.62,2.65s-14.33-1.79-17.62-2.65 c-3.64-0.95-10.41-2.71-17.83-2.71c-7.42,0-14.2,1.76-17.83,2.71C-33.15,160.21-40,162-47.48,162v0.85 c7.59,0,14.51-1.81,17.84-2.68c3.6-0.94,10.31-2.68,17.62-2.68c7.32,0,13.77,1.68,17.62,2.68c3.33,0.87,10.25,2.68,17.84,2.68 s14.51-1.81,17.83-2.68c3.6-0.94,10.31-2.68,17.62-2.68c7.32,0,13.77,1.68,17.62,2.68c3.33,0.87,10.25,2.68,17.84,2.68 c7.59,0,14.51-1.81,17.83-2.68c3.6-0.94,10.31-2.68,17.62-2.68c7.32,0,13.77,1.68,17.62,2.68c3.33,0.87,10.25,2.68,17.84,2.68 c7.59,0,14.51-1.81,17.83-2.68c3.6-0.94,10.31-2.68,17.62-2.68c7.31,0,13.77,1.68,17.62,2.68c3.33,0.87,10.25,2.68,17.83,2.68V162 c-7.48,0-14.33-1.79-17.62-2.65C214.91,158.41,208.14,156.65,200.71,156.65z"></path> <path d="M200.71,162.21c-7.43,0-14.2,1.76-17.84,2.71c-3.29,0.86-10.14,2.65-17.62,2.65c-7.48,0-14.33-1.79-17.62-2.65 c-3.64-0.95-10.41-2.71-17.83-2.71c-7.42,0-14.2,1.76-17.83,2.71c-3.29,0.86-10.14,2.65-17.62,2.65s-14.33-1.79-17.62-2.65 c-3.64-0.95-10.41-2.71-17.84-2.71c-7.43,0-14.2,1.76-17.84,2.71c-3.29,0.86-10.14,2.65-17.62,2.65c-7.48,0-14.33-1.79-17.62-2.65 c-3.64-0.95-10.41-2.71-17.83-2.71c-7.43,0-14.2,1.76-17.83,2.71c-3.29,0.86-10.14,2.65-17.62,2.65v0.85 c7.59,0,14.51-1.81,17.84-2.68c3.6-0.94,10.3-2.68,17.62-2.68c7.32,0,13.77,1.68,17.62,2.68c3.33,0.87,10.25,2.68,17.84,2.68 c7.59,0,14.51-1.81,17.83-2.68c3.6-0.94,10.3-2.68,17.62-2.68s14.02,1.74,17.62,2.68c3.33,0.87,10.25,2.68,17.84,2.68 c7.59,0,14.51-1.81,17.83-2.68c3.6-0.94,10.3-2.68,17.62-2.68c7.32,0,13.77,1.68,17.62,2.68c3.33,0.87,10.25,2.68,17.83,2.68 c7.59,0,14.51-1.81,17.83-2.68c3.6-0.94,10.3-2.68,17.62-2.68c7.32,0,13.77,1.68,17.62,2.68c3.33,0.87,10.25,2.68,17.83,2.68 v-0.85c-7.48,0-14.33-1.79-17.62-2.65C214.91,163.97,208.14,162.21,200.71,162.21z"></path> <path d="M200.71,167.77c-7.42,0-14.2,1.76-17.84,2.71c-3.29,0.86-10.14,2.65-17.62,2.65c-7.48,0-14.33-1.79-17.62-2.65 c-3.64-0.95-10.41-2.71-17.83-2.71c-7.42,0-14.2,1.76-17.84,2.71c-3.29,0.86-10.14,2.65-17.62,2.65c-7.48,0-14.33-1.79-17.62-2.65 c-3.64-0.95-10.41-2.71-17.84-2.71c-7.42,0-14.2,1.76-17.84,2.71c-3.29,0.86-10.14,2.65-17.62,2.65s-14.33-1.79-17.62-2.65 c-3.64-0.95-10.41-2.71-17.83-2.71c-7.42,0-14.2,1.76-17.83,2.71c-3.29,0.86-10.14,2.65-17.62,2.65v0.85 c7.59,0,14.51-1.81,17.84-2.68c3.6-0.94,10.31-2.68,17.62-2.68c7.31,0,13.77,1.68,17.62,2.68c3.33,0.87,10.25,2.68,17.84,2.68 c7.59,0,14.51-1.81,17.83-2.68c3.6-0.94,10.31-2.68,17.62-2.68c7.32,0,13.77,1.68,17.62,2.68c3.33,0.87,10.25,2.68,17.84,2.68 c7.59,0,14.51-1.81,17.83-2.68c3.6-0.94,10.31-2.68,17.62-2.68c7.31,0,13.77,1.68,17.62,2.68c3.33,0.87,10.25,2.68,17.84,2.68 c7.59,0,14.51-1.81,17.83-2.68c3.6-0.94,10.31-2.68,17.62-2.68c7.31,0,13.77,1.68,17.62,2.68c3.33,0.87,10.25,2.68,17.83,2.68 v-0.85c-7.48,0-14.33-1.79-17.62-2.65C214.91,169.53,208.13,167.77,200.71,167.77z"></path> <path d="M200.71,173.33c-7.43,0-14.2,1.76-17.84,2.71c-3.29,0.86-10.14,2.65-17.62,2.65c-7.48,0-14.33-1.79-17.62-2.65 c-3.64-0.95-10.41-2.71-17.83-2.71c-7.42,0-14.2,1.76-17.83,2.71c-3.29,0.86-10.14,2.65-17.62,2.65s-14.33-1.79-17.62-2.65 c-3.64-0.95-10.41-2.71-17.84-2.71c-7.43,0-14.2,1.76-17.84,2.71c-3.29,0.86-10.14,2.65-17.62,2.65c-7.48,0-14.33-1.79-17.62-2.65 c-3.64-0.95-10.41-2.71-17.83-2.71c-7.43,0-14.2,1.76-17.83,2.71c-3.29,0.86-10.14,2.65-17.62,2.65v0.85 c7.59,0,14.51-1.81,17.84-2.68c3.6-0.94,10.3-2.68,17.62-2.68c7.32,0,13.77,1.68,17.62,2.68c3.33,0.87,10.25,2.68,17.84,2.68 c7.59,0,14.51-1.81,17.83-2.68c3.6-0.94,10.3-2.68,17.62-2.68s14.02,1.74,17.62,2.68c3.33,0.87,10.25,2.68,17.84,2.68 c7.59,0,14.51-1.81,17.83-2.68c3.6-0.94,10.3-2.68,17.62-2.68c7.32,0,13.77,1.68,17.62,2.68c3.33,0.87,10.25,2.68,17.83,2.68 c7.59,0,14.51-1.81,17.83-2.68c3.6-0.94,10.3-2.68,17.62-2.68c7.32,0,13.77,1.68,17.62,2.68c3.33,0.87,10.25,2.68,17.83,2.68 v-0.85c-7.48,0-14.33-1.79-17.62-2.65C214.91,175.09,208.14,173.33,200.71,173.33z"></path> <path d="M200.71,178.89c-7.43,0-14.2,1.76-17.84,2.71c-3.29,0.86-10.14,2.65-17.62,2.65c-7.48,0-14.33-1.79-17.62-2.65 c-3.64-0.95-10.41-2.71-17.83-2.71c-7.42,0-14.2,1.76-17.83,2.71c-3.29,0.86-10.14,2.65-17.62,2.65s-14.33-1.79-17.62-2.65 c-3.64-0.95-10.41-2.71-17.84-2.71c-7.43,0-14.2,1.76-17.84,2.71c-3.29,0.86-10.14,2.65-17.62,2.65c-7.48,0-14.33-1.79-17.62-2.65 c-3.64-0.95-10.41-2.71-17.83-2.71c-7.43,0-14.2,1.76-17.83,2.71c-3.29,0.86-10.14,2.65-17.62,2.65v0.85 c7.59,0,14.51-1.81,17.84-2.68c3.6-0.94,10.3-2.68,17.62-2.68c7.32,0,13.77,1.68,17.62,2.68c3.33,0.87,10.25,2.68,17.84,2.68 c7.59,0,14.51-1.81,17.83-2.68c3.6-0.94,10.3-2.68,17.62-2.68s14.02,1.74,17.62,2.68c3.33,0.87,10.25,2.68,17.84,2.68 c7.59,0,14.51-1.81,17.83-2.68c3.6-0.94,10.3-2.68,17.62-2.68c7.32,0,13.77,1.68,17.62,2.68c3.33,0.87,10.25,2.68,17.83,2.68 c7.59,0,14.51-1.81,17.83-2.68c3.6-0.94,10.3-2.68,17.62-2.68c7.32,0,13.77,1.68,17.62,2.68c3.33,0.87,10.25,2.68,17.83,2.68 v-0.85c-7.48,0-14.33-1.79-17.62-2.65C214.91,180.65,208.14,178.89,200.71,178.89z"></path> <path d="M200.71,184.45c-7.43,0-14.2,1.76-17.84,2.71c-3.29,0.86-10.14,2.65-17.62,2.65c-7.48,0-14.33-1.79-17.62-2.65 c-3.64-0.95-10.41-2.71-17.83-2.71c-7.42,0-14.2,1.76-17.83,2.71c-3.29,0.86-10.14,2.65-17.62,2.65s-14.33-1.79-17.62-2.65 c-3.64-0.95-10.41-2.71-17.84-2.71c-7.43,0-14.2,1.76-17.84,2.71c-3.29,0.86-10.14,2.65-17.62,2.65c-7.48,0-14.33-1.79-17.62-2.65 c-3.64-0.95-10.41-2.71-17.83-2.71c-7.43,0-14.2,1.76-17.83,2.71c-3.29,0.86-10.14,2.65-17.62,2.65v0.85 c7.59,0,14.51-1.81,17.84-2.68c3.6-0.94,10.3-2.68,17.62-2.68c7.32,0,13.77,1.68,17.62,2.68c3.33,0.87,10.25,2.68,17.84,2.68 c7.59,0,14.51-1.81,17.83-2.68c3.6-0.94,10.3-2.68,17.62-2.68s14.02,1.74,17.62,2.68c3.33,0.87,10.25,2.68,17.84,2.68 c7.59,0,14.51-1.81,17.83-2.68c3.6-0.94,10.3-2.68,17.62-2.68c7.32,0,13.77,1.68,17.62,2.68c3.33,0.87,10.25,2.68,17.83,2.68 c7.59,0,14.51-1.81,17.83-2.68c3.6-0.94,10.3-2.68,17.62-2.68c7.32,0,13.77,1.68,17.62,2.68c3.33,0.87,10.25,2.68,17.83,2.68 v-0.85c-7.48,0-14.33-1.79-17.62-2.65C214.91,186.21,208.14,184.45,200.71,184.45z"></path> <path d="M200.71,190.02c-7.43,0-14.2,1.76-17.84,2.71c-3.29,0.86-10.14,2.65-17.62,2.65c-7.48,0-14.33-1.79-17.62-2.65 c-3.64-0.95-10.41-2.71-17.83-2.71c-7.42,0-14.2,1.76-17.83,2.71c-3.29,0.86-10.14,2.65-17.62,2.65s-14.33-1.79-17.62-2.65 c-3.64-0.95-10.41-2.71-17.84-2.71c-7.43,0-14.2,1.76-17.84,2.71c-3.29,0.86-10.14,2.65-17.62,2.65c-7.48,0-14.33-1.79-17.62-2.65 c-3.64-0.95-10.41-2.71-17.83-2.71c-7.43,0-14.2,1.76-17.83,2.71c-3.29,0.86-10.14,2.65-17.62,2.65v0.85 c7.59,0,14.51-1.81,17.84-2.68c3.6-0.94,10.3-2.68,17.62-2.68c7.32,0,13.77,1.68,17.62,2.68c3.33,0.87,10.25,2.68,17.84,2.68 c7.59,0,14.51-1.81,17.83-2.68c3.6-0.94,10.3-2.68,17.62-2.68s14.02,1.74,17.62,2.68c3.33,0.87,10.25,2.68,17.84,2.68 c7.59,0,14.51-1.81,17.83-2.68c3.6-0.94,10.3-2.68,17.62-2.68c7.32,0,13.77,1.68,17.62,2.68c3.33,0.87,10.25,2.68,17.83,2.68 c7.59,0,14.51-1.81,17.83-2.68c3.6-0.94,10.3-2.68,17.62-2.68c7.32,0,13.77,1.68,17.62,2.68c3.33,0.87,10.25,2.68,17.83,2.68 v-0.85c-7.48,0-14.33-1.79-17.62-2.65C214.91,191.77,208.14,190.02,200.71,190.02z"></path> <path d="M200.71,195.58c-7.43,0-14.2,1.76-17.84,2.71c-3.29,0.86-10.15,2.65-17.62,2.65c-7.47,0-14.33-1.79-17.62-2.65 c-3.64-0.95-10.41-2.71-17.84-2.71c-7.43,0-14.2,1.76-17.83,2.71c-3.29,0.86-10.15,2.65-17.62,2.65c-7.47,0-14.33-1.79-17.62-2.65 c-3.64-0.95-10.41-2.71-17.84-2.71c-7.43,0-14.2,1.76-17.84,2.71c-3.29,0.86-10.15,2.65-17.62,2.65s-14.33-1.79-17.62-2.65 c-3.64-0.95-10.41-2.71-17.83-2.71c-7.43,0-14.2,1.76-17.83,2.71c-3.29,0.86-10.15,2.65-17.62,2.65v0.85 c7.59,0,14.51-1.81,17.84-2.68c3.6-0.94,10.3-2.68,17.62-2.68c7.32,0,14.02,1.74,17.62,2.68c3.33,0.87,10.25,2.68,17.84,2.68 s14.51-1.81,17.83-2.68c3.6-0.94,10.3-2.68,17.62-2.68c7.32,0,14.02,1.74,17.62,2.68c3.33,0.87,10.25,2.68,17.84,2.68 s14.51-1.81,17.83-2.68c3.6-0.94,10.3-2.68,17.62-2.68c7.32,0,14.02,1.74,17.62,2.68c3.33,0.87,10.25,2.68,17.83,2.68 s14.51-1.81,17.83-2.68c3.6-0.94,10.3-2.68,17.62-2.68c7.32,0,14.02,1.74,17.62,2.68c3.33,0.87,10.25,2.68,17.83,2.68v-0.85 c-7.47,0-14.33-1.79-17.62-2.65C214.91,197.34,208.14,195.58,200.71,195.58z"></path> </g> </g> </svg> 