<?xml version="1.0" encoding="UTF-8"?> <!-- Generator: Adobe Illustrator 23.0.6, SVG Export Plug-In . SVG Version: 6.00 Build 0) --> <svg xmlns="http://www.w3.org/2000/svg" xmlns:xlink="http://www.w3.org/1999/xlink" id="Layer_1" x="0px" y="0px" viewBox="0 0 1057.31 190.74" style="enable-background:new 0 0 1057.31 190.74;" xml:space="preserve"> <style type="text/css"> .st0{fill:#333333;} .st1{display:none;fill:#333333;} .st2{fill:#776B5D;} .st3{fill:#557A56;} .st4{fill:#779578;} .st5{fill:#95AD96;} </style> <g> <g> <path class="st0" d="M0,62.05h29.88l10.08,38.16c1.98,7.38,4.14,17.82,4.14,17.82h0.36c0,0,2.16-10.62,4.14-18.36l9.72-37.62 h24.84l10.08,37.62c1.98,7.92,4.32,18.54,4.32,18.54h0.36c0,0,2.34-10.62,4.32-18l10.26-38.16h28.98l-28.26,92.16H85.68 l-10.8-41.76c-1.98-7.2-3.96-16.56-3.96-16.56h-0.36c0,0-2.16,9.36-4.14,16.56L55.44,154.2H28.26L0,62.05z"></path> <path class="st1" d="M132.3,107.94c0-27.54,19.26-48.6,47.34-48.6c13.14,0,23.58,4.32,31.5,11.52 c10.98,10.08,16.38,26.1,16.2,44.82H161.1c1.8,12.42,8.64,20.16,20.7,20.16c7.74,0,12.78-3.42,15.3-9.18h28.62 c-1.98,8.28-7.38,16.2-15.48,21.78c-7.74,5.4-17.1,8.46-28.8,8.46C151.02,156.9,132.3,135.84,132.3,107.94z M197.64,98.22 c-1.08-10.98-7.92-18-17.46-18c-11.16,0-16.92,7.02-18.9,18H197.64z"></path> <path class="st0" d="M266.4,142.5h-0.36v11.7h-28.08V25.51h29.34v46.98h0.54c5.76-7.92,13.68-13.14,26.28-13.14 c23.94,0,39.42,21.06,39.42,48.78c0,30.6-15.48,48.96-39.24,48.96C282.06,157.08,272.16,152.04,266.4,142.5z M303.83,107.94 c0-15.84-6.3-26.28-18.18-26.28c-12.96,0-19.26,11.34-19.26,26.46c0,15.3,7.56,25.74,19.62,25.74 C297.53,133.86,303.83,123.96,303.83,107.94z"></path> <path class="st0" d="M343.26,96.42h48.96v25.2h-48.96V96.42z"></path> <path class="st0" d="M403.92,25.51h28.98v67.68l27.36-31.14h33.84l-32.4,34.56l36.18,57.6h-34.02l-22.14-37.62l-8.82,9.36v28.26 h-28.98V25.51z"></path> <path class="st0" d="M491.76,108.3c0-27.72,19.8-48.78,49.32-48.78c29.7,0,49.14,21.06,49.14,48.78s-19.44,48.78-49.14,48.78 C511.55,157.08,491.76,136.02,491.76,108.3z M560.51,108.3c0-16.74-6.84-28.08-19.62-28.08s-19.44,11.34-19.44,28.08 s6.66,27.9,19.44,27.9S560.51,125.04,560.51,108.3z"></path> <path class="st0" d="M599.21,62.05h28.26v12.6h0.54c6.84-9.9,15.66-15.3,28.44-15.3c20.16,0,32.04,14.4,32.04,34.92v59.94h-29.34 v-54c0-9.72-4.86-16.38-14.4-16.38c-9.72,0-16.2,8.1-16.2,19.44v50.94h-29.34V62.05z"></path> <path class="st0" d="M697.31,108.3c0-27.72,19.08-48.78,48.24-48.78c25.02,0,41.04,14.58,43.74,35.28h-28.26 c-1.8-8.28-6.84-13.68-15.12-13.68c-12.6,0-18.9,10.44-18.9,27.18c0,16.38,6.3,26.82,18.9,26.82c9.18,0,14.76-5.4,16.02-15.84 h28.08c-0.72,21.24-17.64,37.8-43.74,37.8C716.57,157.08,697.31,136.02,697.31,108.3z"></path> <path class="st0" d="M796.49,107.94c0-27.54,19.26-48.6,47.34-48.6c13.14,0,23.58,4.32,31.5,11.52 c10.98,10.08,16.38,26.1,16.2,44.82h-66.24c1.8,12.42,8.64,20.16,20.7,20.16c7.74,0,12.78-3.42,15.3-9.18h28.62 c-1.98,8.28-7.38,16.2-15.48,21.78c-7.74,5.4-17.1,8.46-28.8,8.46C815.21,156.9,796.49,135.84,796.49,107.94z M861.83,98.22 c-1.08-10.98-7.92-18-17.46-18c-11.16,0-16.92,7.02-18.9,18H861.83z"></path> <path class="st0" d="M901.07,62.05h28.08v11.16h0.54c6.3-8.28,15.3-13.86,27.9-13.86c24.48,0,39.42,21.06,39.42,48.78 c0,29.88-16.02,48.96-40.14,48.96c-11.88,0-20.34-4.68-26.1-12.42h-0.36v46.08h-29.34V62.05z M967.31,109.2 c0-15.84-5.94-26.28-18.54-26.28c-12.78,0-19.26,11.34-19.26,26.28s7.2,25.2,19.8,25.2C960.47,134.4,967.31,124.86,967.31,109.2z"></path> <path class="st0" d="M1011.95,129.9v-49.5h-12.24V62.05h12.24V32.89h28.62v29.16h16.74v18.36h-16.74v43.2c0,7.2,3.96,9,10.26,9 c2.52,0,5.4-0.18,6.48-0.18v21.42c-2.52,0.72-8.1,1.44-16.02,1.44C1024.19,155.28,1011.95,149.7,1011.95,129.9z"></path> </g> <g> <path class="st2" d="M151.72,134.2h68.4v20h-68.4V134.2z"></path> <path class="st3" d="M151.72,98.12h68.4v20h-68.4V98.12z"></path> <g> <path class="st4" d="M173.86,62.05h-1.45c-1.3-5.22-1.69-10.7-2.09-14.74c0,0-2.81-32.15-29.69-35.31c0,0,26.35-2.81,35.49,34.26 c0,0,8.19-22.89-7.91-35.48c-18.41-14.4-37.42-10.19-37.42-10.19s-5.58,39.39,31.78,45.9c2.52,0.44,4.42,2.54,4.64,5.09 c0.33,3.85,0.85,7.33,1.52,10.48h-17v20h68.4v-20H173.86z"></path> <path class="st5" d="M209.82,20.82c-17.74,9.66-19.32,31.62-19.32,31.62c44.66-4.3,25.56-50.42,25.56-50.42 c-1.32,11.77-7.99,8.26-21.34,19.32c-13.35,11.07-7.91,28.63-7.91,28.63C192.35,23.58,209.82,20.82,209.82,20.82z"></path> </g> </g> </g> </svg> 