<?xml version="1.0" encoding="UTF-8" standalone="no"?><!DOCTYPE svg PUBLIC "-//W3C//DTD SVG 1.1//EN" "http://www.w3.org/Graphics/SVG/1.1/DTD/svg11.dtd"><svg width="100%" height="100%" viewBox="0 0 1058 191" version="1.1" xmlns="http://www.w3.org/2000/svg" xmlns:xlink="http://www.w3.org/1999/xlink" xml:space="preserve" style="fill-rule:evenodd;clip-rule:evenodd;stroke-linejoin:round;stroke-miterlimit:2;"><g><g><path d="M0,62.05l29.88,0l10.08,38.16c1.98,7.38 4.14,17.82 4.14,17.82l0.36,0c0,0 2.16,-10.62 4.14,-18.36l9.72,-37.62l24.84,0l10.08,37.62c1.98,7.92 4.32,18.54 4.32,18.54l0.36,0c0,0 2.34,-10.62 4.32,-18l10.26,-38.16l28.98,0l-28.26,92.16l-27.54,0l-10.8,-41.76c-1.98,-7.2 -3.96,-16.56 -3.96,-16.56l-0.36,0c0,0 -2.16,9.36 -4.14,16.56l-10.98,41.75l-27.18,0l-28.26,-92.15Z" style="fill:#333;fill-rule:nonzero;"/><path d="M266.4,142.5l-0.36,0l0,11.7l-28.08,0l0,-128.69l29.34,0l0,46.98l0.54,0c5.76,-7.92 13.68,-13.14 26.28,-13.14c23.94,0 39.42,21.06 39.42,48.78c0,30.6 -15.48,48.96 -39.24,48.96c-12.24,-0.01 -22.14,-5.05 -27.9,-14.59Zm37.43,-34.56c0,-15.84 -6.3,-26.28 -18.18,-26.28c-12.96,0 -19.26,11.34 -19.26,26.46c0,15.3 7.56,25.74 19.62,25.74c11.52,0 17.82,-9.9 17.82,-25.92Z" style="fill:#333;fill-rule:nonzero;"/><rect x="343.26" y="96.42" width="48.96" height="25.2" style="fill:#333;fill-rule:nonzero;"/><path d="M403.92,25.51l28.98,0l0,67.68l27.36,-31.14l33.84,0l-32.4,34.56l36.18,57.6l-34.02,0l-22.14,-37.62l-8.82,9.36l0,28.26l-28.98,0l0,-128.7Z" style="fill:#333;fill-rule:nonzero;"/><path d="M491.76,108.3c0,-27.72 19.8,-48.78 49.32,-48.78c29.7,0 49.14,21.06 49.14,48.78c0,27.72 -19.44,48.78 -49.14,48.78c-29.53,0 -49.32,-21.06 -49.32,-48.78Zm68.75,0c0,-16.74 -6.84,-28.08 -19.62,-28.08c-12.78,0 -19.44,11.34 -19.44,28.08c0,16.74 6.66,27.9 19.44,27.9c12.78,0 19.62,-11.16 19.62,-27.9Z" style="fill:#333;fill-rule:nonzero;"/><path d="M599.21,62.05l28.26,0l0,12.6l0.54,0c6.84,-9.9 15.66,-15.3 28.44,-15.3c20.16,0 32.04,14.4 32.04,34.92l0,59.94l-29.34,0l0,-54c0,-9.72 -4.86,-16.38 -14.4,-16.38c-9.72,0 -16.2,8.1 -16.2,19.44l0,50.94l-29.34,0l0,-92.16Z" style="fill:#333;fill-rule:nonzero;"/><path d="M697.31,108.3c0,-27.72 19.08,-48.78 48.24,-48.78c25.02,0 41.04,14.58 43.74,35.28l-28.26,0c-1.8,-8.28 -6.84,-13.68 -15.12,-13.68c-12.6,0 -18.9,10.44 -18.9,27.18c0,16.38 6.3,26.82 18.9,26.82c9.18,0 14.76,-5.4 16.02,-15.84l28.08,0c-0.72,21.24 -17.64,37.8 -43.74,37.8c-29.7,0 -48.96,-21.06 -48.96,-48.78Z" style="fill:#333;fill-rule:nonzero;"/><path d="M796.49,107.94c0,-27.54 19.26,-48.6 47.34,-48.6c13.14,0 23.58,4.32 31.5,11.52c10.98,10.08 16.38,26.1 16.2,44.82l-66.24,0c1.8,12.42 8.64,20.16 20.7,20.16c7.74,0 12.78,-3.42 15.3,-9.18l28.62,0c-1.98,8.28 -7.38,16.2 -15.48,21.78c-7.74,5.4 -17.1,8.46 -28.8,8.46c-30.42,0 -49.14,-21.06 -49.14,-48.96Zm65.34,-9.72c-1.08,-10.98 -7.92,-18 -17.46,-18c-11.16,0 -16.92,7.02 -18.9,18l36.36,0Z" style="fill:#333;fill-rule:nonzero;"/><path d="M901.07,62.05l28.08,0l0,11.16l0.54,0c6.3,-8.28 15.3,-13.86 27.9,-13.86c24.48,0 39.42,21.06 39.42,48.78c0,29.88 -16.02,48.96 -40.14,48.96c-11.88,0 -20.34,-4.68 -26.1,-12.42l-0.36,0l0,46.08l-29.34,0l0,-128.7Zm66.24,47.15c0,-15.84 -5.94,-26.28 -18.54,-26.28c-12.78,0 -19.26,11.34 -19.26,26.28c0,14.94 7.2,25.2 19.8,25.2c11.16,0 18,-9.54 18,-25.2Z" style="fill:#333;fill-rule:nonzero;"/><path d="M1011.95,129.9l0,-49.5l-12.24,0l0,-18.35l12.24,0l0,-29.16l28.62,0l0,29.16l16.74,0l0,18.36l-16.74,0l0,43.2c0,7.2 3.96,9 10.26,9c2.52,0 5.4,-0.18 6.48,-0.18l0,21.42c-2.52,0.72 -8.1,1.44 -16.02,1.44c-17.1,-0.01 -29.34,-5.59 -29.34,-25.39Z" style="fill:#333;fill-rule:nonzero;"/></g><g><rect x="151.72" y="134.2" width="68.4" height="20" style="fill:#776b5d;fill-rule:nonzero;"/><rect x="151.72" y="98.12" width="68.4" height="20" style="fill:#557a56;fill-rule:nonzero;"/><g><path d="M173.86,62.05l-1.45,0c-1.3,-5.22 -1.69,-10.7 -2.09,-14.74c0,0 -2.81,-32.15 -29.69,-35.31c0,0 26.35,-2.81 35.49,34.26c0,0 8.19,-22.89 -7.91,-35.48c-18.41,-14.4 -37.42,-10.19 -37.42,-10.19c0,0 -5.58,39.39 31.78,45.9c2.52,0.44 4.42,2.54 4.64,5.09c0.33,3.85 0.85,7.33 1.52,10.48l-17,0l0,20l68.4,0l0,-20l-46.27,0l0,-0.01Z" style="fill:#779578;fill-rule:nonzero;"/><path d="M209.82,20.82c-17.74,9.66 -19.32,31.62 -19.32,31.62c44.66,-4.3 25.56,-50.42 25.56,-50.42c-1.32,11.77 -7.99,8.26 -21.34,19.32c-13.35,11.07 -7.91,28.63 -7.91,28.63c5.54,-26.39 23.01,-29.15 23.01,-29.15Z" style="fill:#95ad96;fill-rule:nonzero;"/></g></g></g></svg>