<?xml version="1.0" encoding="UTF-8"?> <!-- Generator: Adobe Illustrator 23.0.6, SVG Export Plug-In . SVG Version: 6.00 Build 0) --> <svg xmlns="http://www.w3.org/2000/svg" xmlns:xlink="http://www.w3.org/1999/xlink" id="Layer_1" x="0px" y="0px" viewBox="0 0 500 200" style="enable-background:new 0 0 500 200;" xml:space="preserve"> <style type="text/css"> .st0{opacity:0.1;} .st1{fill:#4A646D;} .st2{fill:#FFFFFF;} .st3{opacity:0.2;} </style> <g class="st0"> <path class="st1" d="M468.33,147.84h-37.22v-0.28c7.5-1.04,13.05-4.8,13.05-9.28c0-4.48-5.56-8.25-13.05-9.28v-0.28h-50.95 c-9.52,0-17.23-4.28-17.23-9.57c0-5.28,7.71-9.57,17.23-9.57h54.29c9.52,0,17.23-4.28,17.23-9.57c0-5.28-7.71-9.57-17.23-9.57 h25.77c9.52,0,17.23-4.28,17.23-9.57c0-5.28-7.71-9.57-17.23-9.57h-58.59c-9.52,0-17.23-4.28-17.23-9.57s7.71-9.57,17.23-9.57 h81.13c9.52,0,17.23-4.28,17.23-9.57c0-5.28-7.71-9.57-17.23-9.57H61.25c-9.52,0-17.23,4.28-17.23,9.57 c0,5.28,7.71,9.57,17.23,9.57H88.7c9.52,0,17.23,4.28,17.23,9.57s-7.71,9.57-17.23,9.57H17.23C7.71,71.29,0,75.58,0,80.86 c0,5.28,7.71,9.57,17.23,9.57H72.6c9.52,0,17.23,4.28,17.23,9.57c0,5.28-7.71,9.57-17.23,9.57H56.96c-9.52,0-17.23,4.28-17.23,9.57 c0,5.28,7.71,9.57,17.23,9.57h71.27c9.52,0,17.23,4.28,17.23,9.57c0,5.28-7.71,9.57-17.23,9.57H31.7c-9.52,0-17.23,4.28-17.23,9.57 c0,5.28,7.71,9.57,17.23,9.57h436.63c9.52,0,17.23-4.28,17.23-9.57C485.56,152.13,477.85,147.84,468.33,147.84z"></path> </g> <g> <g> <g> <path class="st1" d="M288,159.39l0-7.91c0-5.95,4.82-10.77,10.77-10.77l0,0h7.33c2.63,0,5.01-1.07,6.73-2.79l0,0 c1.73-1.73,2.79-4.1,2.79-6.73l0,0c0-2.63-1.06-5.01-2.79-6.74l0,0c-1.73-1.72-4.1-2.79-6.73-2.79l0,0h-27.47v-1.24h27.47 c5.95,0,10.77,4.82,10.77,10.77l0,0c0,5.95-4.82,10.77-10.77,10.77l0,0l-7.33,0c-2.63,0-5.01,1.06-6.74,2.79l0,0 c-1.73,1.73-2.79,4.1-2.79,6.74l0,0l0,7.91H288L288,159.39z"></path> </g> <g> <path class="st2" d="M288.62,159.39c-5.65,0-10.24,4.58-10.24,10.24v13.6c0,5.65,4.58,10.24,10.24,10.24 c5.65,0,10.24-4.58,10.24-10.24v-13.6C298.86,163.97,294.27,159.39,288.62,159.39z"></path> <path class="st1" d="M277.77,183.23v-13.6c0-6,4.86-10.86,10.86-10.86l0,0v0.62v0.62c-2.66,0-5.06,1.07-6.8,2.82l0,0 c-1.74,1.74-2.82,4.14-2.82,6.8l0,0v13.6c0,2.66,1.07,5.06,2.82,6.8l0,0c1.74,1.74,4.14,2.82,6.8,2.82l0,0 c2.66,0,5.06-1.07,6.8-2.82l0,0c1.74-1.74,2.82-4.14,2.82-6.8l0,0v-13.6c0-2.66-1.07-5.06-2.82-6.8l0,0 c-1.74-1.74-4.14-2.82-6.8-2.82l0,0v-0.62v-0.62c6,0,10.86,4.86,10.86,10.86l0,0v13.6c0,6-4.86,10.86-10.86,10.86l0,0 C282.63,194.08,277.77,189.22,277.77,183.23L277.77,183.23z"></path> </g> <g> <path class="st1" d="M288.62,190.54c-4.04-0.01-7.31-3.28-7.32-7.32l0,0v-4.85h0c0-0.34,0.28-0.62,0.62-0.62l0,0 c0.34,0,0.62,0.28,0.62,0.62l0,0v4.85c0.01,3.36,2.72,6.07,6.08,6.08l0,0c0.34,0,0.62,0.28,0.62,0.62l0,0 C289.24,190.27,288.96,190.54,288.62,190.54L288.62,190.54C288.62,190.54,288.62,190.54,288.62,190.54L288.62,190.54z"></path> </g> <g> <polygon class="st1" points="278.39,172.63 278.39,171.39 298.86,171.39 298.86,172.63 278.39,172.63 "></polygon> </g> <g> <path class="st1" d="M286.28,167.65v-3.9c0-1.29,1.05-2.34,2.34-2.34l0,0c1.29,0,2.34,1.05,2.34,2.34l0,0v3.9 c0,1.29-1.05,2.34-2.34,2.34l0,0C287.33,169.99,286.28,168.94,286.28,167.65L286.28,167.65z M287.52,163.75v3.9 c0,0.61,0.49,1.1,1.1,1.1l0,0c0.61,0,1.1-0.49,1.1-1.1l0,0v-3.9c0-0.61-0.49-1.1-1.1-1.1l0,0 C288.01,162.65,287.52,163.14,287.52,163.75L287.52,163.75z"></path> </g> <g> <polygon class="st1" points="288,172.01 288,169.37 289.24,169.37 289.24,172.01 288,172.01 "></polygon> </g> <g> <polygon class="st1" points="288,162.03 288,159.39 289.24,159.39 289.24,162.03 288,162.03 "></polygon> </g> </g> <g> <g> <path class="st1" d="M209.8,154.04v-6.8c-0.01-4.48-3.63-8.1-8.11-8.11l0,0h-6.31c-5.16,0-9.35-4.19-9.35-9.35l0,0 c0-5.16,4.19-9.35,9.35-9.35l0,0h43.55v0v1.24h-43.55c-4.48,0.01-8.1,3.63-8.11,8.11l0,0c0.01,4.48,3.63,8.1,8.11,8.11l0,0h6.31 c5.16,0,9.35,4.19,9.35,9.35l0,0l0,6.8H209.8L209.8,154.04z"></path> </g> <g> <path class="st2" d="M256.08,192.02c0,4.07-3.3,7.36-7.36,7.36h-75.74c-4.07,0-7.36-3.3-7.36-7.36V161.4 c0-4.07,3.3-7.36,7.36-7.36h75.74c4.07,0,7.36,3.3,7.36,7.36V192.02z"></path> <path class="st1" d="M172.98,200c-4.41,0-7.98-3.57-7.98-7.98l0,0V161.4c0-4.41,3.57-7.98,7.98-7.98l0,0h75.74 c4.41,0,7.98,3.58,7.98,7.98l0,0v30.62h0c0,4.41-3.57,7.98-7.99,7.98l0,0H172.98L172.98,200z M166.23,161.4v30.62 c0.01,3.72,3.02,6.74,6.74,6.74l0,0h75.74c3.72-0.01,6.74-3.02,6.74-6.74l0,0V161.4c-0.01-3.72-3.02-6.74-6.74-6.74l0,0h-75.74 C169.25,154.66,166.24,157.68,166.23,161.4L166.23,161.4z"></path> </g> <g> <g> <g> <path class="st1" d="M173.96,171.56c-1.18,0-2.14-0.96-2.14-2.14l0,0v-4.02c0-1.18,0.96-2.14,2.14-2.14l0,0h4.02 c1.18,0,2.14,0.96,2.14,2.14l0,0v4.02c0,1.18-0.96,2.14-2.14,2.14l0,0H173.96L173.96,171.56z M173.06,165.39v4.02 c0,0.5,0.4,0.9,0.9,0.9l0,0h4.02c0.5,0,0.9-0.4,0.9-0.9l0,0l0-4.02c0-0.5-0.4-0.9-0.9-0.9l0,0h-4.02 C173.46,164.49,173.06,164.9,173.06,165.39L173.06,165.39z"></path> </g> <g> <path class="st1" d="M184.94,171.56c-1.18,0-2.14-0.96-2.14-2.14l0,0v-4.02c0-1.18,0.96-2.14,2.14-2.14l0,0h4.02 c1.18,0,2.14,0.96,2.14,2.14l0,0v4.02c0,1.18-0.96,2.14-2.14,2.14l0,0H184.94L184.94,171.56z M184.04,165.39v4.02 c0,0.5,0.4,0.9,0.9,0.9l0,0h4.02c0.5,0,0.9-0.4,0.9-0.9l0,0v-4.02c0-0.5-0.4-0.9-0.9-0.9l0,0h-4.02 C184.44,164.49,184.04,164.9,184.04,165.39L184.04,165.39z"></path> </g> <g> <path class="st1" d="M195.91,171.56c-1.18,0-2.14-0.96-2.14-2.14l0,0v-4.02c0-1.18,0.96-2.14,2.14-2.14l0,0h4.02 c1.18,0,2.14,0.96,2.14,2.14l0,0v4.02c0,1.18-0.96,2.14-2.14,2.14l0,0H195.91L195.91,171.56z M195.01,165.39v4.02 c0,0.5,0.4,0.9,0.9,0.9l0,0h4.02c0.5,0,0.9-0.4,0.9-0.9l0,0v-4.02c0-0.5-0.4-0.9-0.9-0.9l0,0h-4.02 C195.42,164.49,195.01,164.9,195.01,165.39L195.01,165.39z"></path> </g> <g> <path class="st1" d="M206.89,171.56c-1.18,0-2.14-0.96-2.14-2.14l0,0v-4.02c0-1.18,0.96-2.14,2.14-2.14l0,0h4.02 c1.18,0,2.14,0.96,2.14,2.14l0,0v4.02c0,1.18-0.96,2.14-2.14,2.14l0,0H206.89L206.89,171.56z M205.99,165.39v4.02 c0,0.5,0.4,0.9,0.9,0.9l0,0h4.02c0.5,0,0.9-0.4,0.9-0.9l0,0v-4.02c0-0.5-0.4-0.9-0.9-0.9l0,0h-4.02 C206.39,164.49,205.99,164.9,205.99,165.39L205.99,165.39z"></path> </g> <g> <path class="st1" d="M217.86,171.56c-1.18,0-2.14-0.96-2.14-2.14l0,0v-4.02c0-1.18,0.96-2.14,2.14-2.14l0,0h4.02 c1.18,0,2.14,0.96,2.14,2.14l0,0v4.02c0,1.18-0.96,2.14-2.14,2.14l0,0H217.86L217.86,171.56z M216.96,165.39v4.02 c0,0.5,0.4,0.9,0.9,0.9l0,0h4.02c0.5,0,0.9-0.4,0.9-0.9l0,0l0-4.02c0-0.5-0.4-0.9-0.9-0.9l0,0h-4.02 C217.37,164.49,216.96,164.9,216.96,165.39L216.96,165.39z"></path> </g> <g> <path class="st1" d="M228.84,171.56c-1.18,0-2.14-0.96-2.14-2.14l0,0v-4.02c0-1.18,0.96-2.14,2.14-2.14l0,0h4.02 c1.18,0,2.14,0.96,2.14,2.14l0,0v4.02c0,1.18-0.96,2.14-2.14,2.14l0,0H228.84L228.84,171.56z M227.94,165.39v4.02 c0,0.5,0.4,0.9,0.9,0.9l0,0h4.02c0.5,0,0.9-0.4,0.9-0.9l0,0v-4.02c0-0.5-0.4-0.9-0.9-0.9l0,0h-4.02 C228.34,164.49,227.94,164.9,227.94,165.39L227.94,165.39z"></path> </g> <g> <path class="st1" d="M239.81,171.56c-1.18,0-2.14-0.96-2.14-2.14l0,0v-4.02c0-1.18,0.96-2.14,2.14-2.14l0,0h4.02 c1.18,0,2.14,0.96,2.14,2.14l0,0v4.02c0,1.18-0.96,2.14-2.14,2.14l0,0H239.81L239.81,171.56z M238.91,165.39v4.02 c0,0.5,0.4,0.9,0.9,0.9l0,0h4.02c0.5,0,0.9-0.4,0.9-0.9l0,0v-4.02c0-0.5-0.4-0.9-0.9-0.9l0,0h-4.02 C239.32,164.49,238.91,164.9,238.91,165.39L238.91,165.39z"></path> </g> </g> <g> <g> <path class="st1" d="M180.05,182.8c-1.18,0-2.14-0.96-2.14-2.14l0,0v-4.02c0-1.18,0.96-2.14,2.14-2.14l0,0h4.02 c1.18,0,2.14,0.96,2.14,2.14l0,0v4.02c0,1.18-0.96,2.14-2.14,2.14l0,0H180.05L180.05,182.8z M179.15,176.64l0,4.02 c0,0.5,0.4,0.9,0.9,0.9l0,0h4.02c0.5,0,0.9-0.4,0.9-0.9l0,0v-4.02c0-0.5-0.4-0.9-0.9-0.9l0,0h-4.02 C179.55,175.74,179.15,176.14,179.15,176.64L179.15,176.64z"></path> </g> <g> <path class="st1" d="M191.03,182.8c-1.18,0-2.14-0.96-2.14-2.14l0,0v-4.02c0-1.18,0.96-2.14,2.14-2.14l0,0h4.02 c1.18,0,2.14,0.96,2.14,2.14l0,0v4.02c0,1.18-0.96,2.14-2.14,2.14l0,0H191.03L191.03,182.8z M190.13,176.64l0,4.02 c0,0.5,0.4,0.9,0.9,0.9l0,0h4.02c0.5,0,0.9-0.4,0.9-0.9l0,0h0v-4.02c0-0.5-0.4-0.9-0.9-0.9l0,0h-4.02 C190.53,175.74,190.13,176.14,190.13,176.64L190.13,176.64z"></path> </g> <g> <path class="st1" d="M202,182.8c-1.18,0-2.14-0.96-2.14-2.14l0,0v-4.02c0-1.18,0.96-2.14,2.14-2.14l0,0h4.02 c1.18,0,2.14,0.96,2.14,2.14l0,0v4.02c0,1.18-0.96,2.14-2.14,2.14l0,0H202L202,182.8z M201.1,176.64v4.02 c0,0.5,0.4,0.9,0.9,0.9l0,0h4.02c0.5,0,0.9-0.4,0.9-0.9l0,0v-4.02c0-0.5-0.4-0.9-0.9-0.9l0,0H202 C201.5,175.74,201.1,176.14,201.1,176.64L201.1,176.64z"></path> </g> <g> <path class="st1" d="M212.98,182.8c-1.18,0-2.14-0.96-2.14-2.14l0,0v-4.02c0-1.18,0.96-2.14,2.14-2.14l0,0H217 c1.18,0,2.14,0.96,2.14,2.14l0,0v4.02c0,1.18-0.96,2.14-2.14,2.14l0,0H212.98L212.98,182.8z M212.08,176.64v4.02 c0,0.5,0.4,0.9,0.9,0.9l0,0H217c0.5,0,0.9-0.4,0.9-0.9l0,0v-4.02c0-0.5-0.4-0.9-0.9-0.9l0,0h-4.02 C212.48,175.74,212.08,176.14,212.08,176.64L212.08,176.64z"></path> </g> <g> <path class="st1" d="M223.95,182.8c-1.18,0-2.14-0.96-2.14-2.14l0,0v-4.02c0-1.18,0.96-2.14,2.14-2.14l0,0h4.02 c1.18,0,2.14,0.96,2.14,2.14l0,0v4.02c0,1.18-0.96,2.14-2.14,2.14l0,0H223.95L223.95,182.8z M223.05,176.64v4.02 c0,0.5,0.4,0.9,0.9,0.9l0,0h4.02c0.5,0,0.9-0.4,0.9-0.9l0,0v-4.02c0-0.5-0.4-0.9-0.9-0.9l0,0h-4.02 C223.45,175.74,223.05,176.14,223.05,176.64L223.05,176.64z"></path> </g> <g> <path class="st1" d="M234.93,182.8c-1.18,0-2.14-0.96-2.14-2.14l0,0v-4.02c0-1.18,0.96-2.14,2.14-2.14l0,0h15 c1.18,0,2.14,0.96,2.14,2.14l0,0v4.02c0,1.18-0.96,2.14-2.14,2.14l0,0H234.93L234.93,182.8z M234.03,176.64v4.02 c0,0.5,0.4,0.9,0.9,0.9l0,0h15c0.5,0,0.9-0.4,0.9-0.9l0,0v-4.02c0-0.5-0.4-0.9-0.9-0.9l0,0h-15 C234.43,175.74,234.03,176.14,234.03,176.64L234.03,176.64z"></path> </g> </g> <g> <g> <path class="st1" d="M173.96,194.58c-1.18,0-2.14-0.96-2.14-2.14l0,0v-4.02c0-1.18,0.96-2.14,2.14-2.14l0,0h4.02 c1.18,0,2.14,0.96,2.14,2.14l0,0v4.02c0,1.18-0.96,2.14-2.14,2.14l0,0H173.96L173.96,194.58z M173.06,188.41v4.02 c0,0.5,0.4,0.9,0.9,0.9l0,0h4.02c0.5,0,0.9-0.4,0.9-0.9l0,0h0l0-4.02c0-0.5-0.4-0.9-0.9-0.9l0,0h-4.02 C173.46,187.51,173.06,187.92,173.06,188.41L173.06,188.41z"></path> </g> <g> <path class="st1" d="M184.94,194.58c-1.18,0-2.14-0.96-2.14-2.14l0,0v-4.02c0-1.18,0.96-2.14,2.14-2.14l0,0h36.95 c1.18,0,2.14,0.96,2.14,2.14l0,0v4.02c0,1.18-0.96,2.14-2.14,2.14l0,0H184.94L184.94,194.58z M184.04,188.41v4.02 c0,0.5,0.4,0.9,0.9,0.9l0,0h36.95c0.5,0,0.9-0.4,0.9-0.9l0,0v-4.02c0-0.5-0.4-0.9-0.9-0.9l0,0h-36.95 C184.44,187.51,184.04,187.92,184.04,188.41L184.04,188.41z"></path> </g> <g> <path class="st1" d="M228.84,194.58c-1.18,0-2.14-0.96-2.14-2.14l0,0l0-4.02c0-1.18,0.96-2.14,2.14-2.14l0,0h4.02 c1.18,0,2.14,0.96,2.14,2.14l0,0v4.02h0c0,1.18-0.96,2.14-2.14,2.14l0,0H228.84L228.84,194.58z M227.94,188.41l0,4.02 c0,0.5,0.4,0.9,0.9,0.9l0,0h4.02c0.5,0,0.9-0.4,0.9-0.9l0,0h0l0-4.02c0-0.5-0.41-0.9-0.9-0.9l0,0h-4.02 C228.34,187.51,227.94,187.92,227.94,188.41L227.94,188.41z"></path> </g> <g> <path class="st1" d="M239.81,194.58c-1.18,0-2.14-0.96-2.14-2.14l0,0v-4.02c0-1.18,0.96-2.14,2.14-2.14l0,0h4.02 c1.18,0,2.14,0.96,2.14,2.14l0,0v4.02c0,1.18-0.96,2.14-2.14,2.14l0,0H239.81L239.81,194.58z M238.91,188.41l0,4.02 c0,0.5,0.4,0.9,0.9,0.9l0,0h4.02c0.5,0,0.9-0.4,0.9-0.9l0,0v-4.02c0-0.5-0.4-0.9-0.9-0.9l0,0h-4.02 C239.32,187.51,238.91,187.92,238.91,188.41L238.91,188.41z"></path> </g> </g> </g> <g> <g> <path class="st1" d="M172.44,160.05c-0.34,0-0.62-0.28-0.62-0.62l0,0c0-0.34,0.28-0.62,0.62-0.62l0,0h7.07 c0.34,0,0.62,0.28,0.62,0.62l0,0c0,0.34-0.28,0.62-0.62,0.62l0,0H172.44L172.44,160.05z"></path> </g> <g> <path class="st1" d="M183.42,160.05c-0.34,0-0.62-0.28-0.62-0.62l0,0c0-0.34,0.28-0.62,0.62-0.62l0,0h7.07 c0.34,0,0.62,0.28,0.62,0.62l0,0c0,0.34-0.28,0.62-0.62,0.62l0,0H183.42L183.42,160.05z"></path> </g> <g> <path class="st1" d="M194.39,160.05c-0.34,0-0.62-0.28-0.62-0.62l0,0c0-0.34,0.28-0.62,0.62-0.62l0,0h7.07 c0.34,0,0.62,0.28,0.62,0.62l0,0c0,0.34-0.28,0.62-0.62,0.62l0,0H194.39L194.39,160.05z"></path> </g> <g> <path class="st1" d="M205.37,160.05c-0.34,0-0.62-0.28-0.62-0.62l0,0c0-0.34,0.28-0.62,0.62-0.62l0,0h7.07 c0.34,0,0.62,0.28,0.62,0.62l0,0c0,0.34-0.28,0.62-0.62,0.62l0,0H205.37L205.37,160.05z"></path> </g> <g> <path class="st1" d="M216.34,160.05c-0.34,0-0.62-0.28-0.62-0.62l0,0c0-0.34,0.28-0.62,0.62-0.62l0,0h7.07 c0.34,0,0.62,0.28,0.62,0.62l0,0c0,0.34-0.28,0.62-0.62,0.62l0,0H216.34L216.34,160.05z"></path> </g> <g> <path class="st1" d="M227.32,160.05c-0.34,0-0.62-0.28-0.62-0.62l0,0c0-0.34,0.28-0.62,0.62-0.62l0,0h7.07 c0.34,0,0.62,0.28,0.62,0.62l0,0c0,0.34-0.28,0.62-0.62,0.62l0,0H227.32L227.32,160.05z"></path> </g> <g> <path class="st1" d="M238.29,160.05c-0.34,0-0.62-0.28-0.62-0.62l0,0c0-0.34,0.28-0.62,0.62-0.62l0,0h7.07 c0.34,0,0.62,0.28,0.62,0.62l0,0c0,0.34-0.28,0.62-0.62,0.62l0,0H238.29L238.29,160.05z"></path> </g> </g> </g> <g> <g> <path class="st1" d="M352.84,162.3v-5.4c0-0.28-0.23-0.51-0.51-0.51l0,0h-3.41c-0.28,0-0.51,0.23-0.51,0.51l0,0v5.4h0 c0,0.34-0.28,0.62-0.62,0.62l0,0c-0.34,0-0.62-0.28-0.62-0.62l0,0l0-5.4c0-0.97,0.78-1.75,1.75-1.75l0,0h3.41 c0.97,0,1.75,0.78,1.75,1.75l0,0v5.4c0,0.34-0.28,0.62-0.62,0.62l0,0C353.11,162.92,352.84,162.64,352.84,162.3L352.84,162.3z"></path> </g> <g> <rect x="347.41" y="162.3" class="st2" width="6.41" height="7.81"></rect> <path class="st1" d="M347.41,170.72c-0.16,0-0.32-0.07-0.44-0.18l0,0c-0.12-0.12-0.18-0.28-0.18-0.44l0,0v-7.81 c0-0.16,0.07-0.32,0.18-0.44l0,0c0.12-0.12,0.28-0.18,0.44-0.18l0,0h6.41c0.16,0,0.32,0.07,0.44,0.18l0,0 c0.11,0.12,0.18,0.28,0.18,0.44l0,0v7.81c0,0.17-0.06,0.32-0.18,0.44l0,0c-0.12,0.12-0.27,0.18-0.44,0.18l0,0H347.41 L347.41,170.72z M353.82,170.1v-0.62V170.1L353.82,170.1z M348.03,169.48h5.17v-6.56h-5.17V169.48L348.03,169.48z"></path> </g> <g> <rect x="347.65" y="170.1" class="st2" width="5.94" height="15.96"></rect> <path class="st1" d="M347.65,186.68c-0.16,0-0.32-0.07-0.44-0.18l0,0c-0.12-0.12-0.18-0.28-0.18-0.44l0,0V170.1 c0-0.16,0.07-0.32,0.18-0.44l0,0c0.12-0.12,0.28-0.18,0.44-0.18l0,0h5.94c0.16,0,0.32,0.07,0.44,0.18l0,0 c0.12,0.12,0.18,0.27,0.18,0.44l0,0v15.96c0,0.16-0.07,0.32-0.18,0.44l0,0c-0.12,0.12-0.28,0.18-0.44,0.18l0,0H347.65 L347.65,186.68z M353.59,186.06v-0.62V186.06L353.59,186.06z M348.27,185.44h4.7v-14.72h-4.7V185.44L348.27,185.44z"></path> </g> <g> <path class="st1" d="M350,186.06V170.1c0-0.34,0.28-0.62,0.62-0.62l0,0c0.34,0,0.62,0.28,0.62,0.62l0,0v15.96 c0,0.34-0.28,0.62-0.62,0.62l0,0C350.28,186.68,350,186.41,350,186.06L350,186.06z"></path> </g> <g> <path class="st1" d="M350.02,197.41l-2.97-11.19l0,0c-0.09-0.33,0.11-0.67,0.44-0.76l0,0c0.33-0.09,0.67,0.11,0.76,0.44l0,0 l2.37,8.93l2.37-8.93c0.09-0.33,0.43-0.53,0.76-0.44l0,0c0.33,0.09,0.53,0.43,0.44,0.76l0,0l-2.97,11.19 c-0.07,0.27-0.32,0.46-0.6,0.46l0,0C350.34,197.87,350.09,197.68,350.02,197.41L350.02,197.41z"></path> </g> </g> <g> <g> <path class="st2" d="M337.68,193.15c0,3.44-2.79,6.23-6.23,6.23h-12.59c-3.44,0-6.23-2.79-6.23-6.23v-34.26 c0-3.44,2.79-6.23,6.23-6.23h12.59c3.44,0,6.23,2.79,6.23,6.23V193.15z"></path> </g> <g> <path class="st1" d="M318.86,200c-3.79,0-6.85-3.07-6.85-6.85l0,0v-34.26c0-3.79,3.07-6.85,6.85-6.85l0,0h12.59 c3.79,0,6.85,3.07,6.85,6.85l0,0v34.26c0,3.78-3.07,6.85-6.85,6.85l0,0H318.86L318.86,200z M313.24,158.88v34.26 c0.01,3.1,2.51,5.61,5.61,5.61l0,0h12.59c3.1-0.01,5.61-2.51,5.61-5.61l0,0v-34.26c-0.01-3.1-2.51-5.61-5.61-5.61l0,0h-12.59 C315.76,153.28,313.25,155.78,313.24,158.88L313.24,158.88z"></path> <g> <path class="st1" d="M318.64,164.86c-0.34,0-0.62-0.28-0.62-0.62l0,0c0-0.34,0.28-0.62,0.62-0.62l0,0h13.01 c0.34,0,0.62,0.28,0.62,0.62l0,0c0,0.34-0.28,0.62-0.62,0.62l0,0H318.64L318.64,164.86z"></path> </g> <g> <path class="st1" d="M318.64,167.8c-0.34,0-0.62-0.28-0.62-0.62l0,0c0-0.34,0.28-0.62,0.62-0.62l0,0h13.01 c0.34,0,0.62,0.28,0.62,0.62l0,0c0,0.34-0.28,0.62-0.62,0.62l0,0H318.64L318.64,167.8z"></path> </g> <g> <path class="st1" d="M318.64,170.75c-0.34,0-0.62-0.28-0.62-0.62l0,0c0-0.34,0.28-0.62,0.62-0.62l0,0h7.12 c0.34,0,0.62,0.28,0.62,0.62l0,0c0,0.34-0.28,0.62-0.62,0.62l0,0H318.64L318.64,170.75z"></path> </g> </g> <g> <path class="st1" d="M312.62,161.38c-0.34,0-0.62-0.28-0.62-0.62l0,0c0-0.34,0.28-0.62,0.62-0.62l0,0h25.05 c0.34,0,0.62,0.28,0.62,0.62l0,0c0,0.34-0.28,0.62-0.62,0.62l0,0H312.62L312.62,161.38z"></path> </g> <g> <path class="st1" d="M312.62,191.89c-0.34,0-0.62-0.28-0.62-0.62l0,0c0-0.34,0.28-0.62,0.62-0.62l0,0h25.05 c0.34,0,0.62,0.28,0.62,0.62l0,0c0,0.34-0.28,0.62-0.62,0.62l0,0H312.62L312.62,191.89z"></path> </g> <g> <path class="st1" d="M322.45,195.34c0-1.49,1.21-2.7,2.7-2.7l0,0c1.49,0,2.7,1.21,2.7,2.7l0,0c0,1.49-1.21,2.7-2.7,2.7l0,0 C323.66,198.04,322.45,196.83,322.45,195.34L322.45,195.34z M323.69,195.34c0,0.8,0.65,1.46,1.46,1.46l0,0 c0.8,0,1.46-0.65,1.46-1.46l0,0c0-0.8-0.65-1.45-1.46-1.46l0,0C324.35,193.88,323.69,194.54,323.69,195.34L323.69,195.34z"></path> </g> <g> <g> <path class="st1" d="M320.05,157.62c-0.34,0-0.62-0.28-0.62-0.62l0,0c0-0.34,0.28-0.62,0.62-0.62l0,0h6.07 c0.34,0,0.62,0.28,0.62,0.62l0,0c0,0.34-0.28,0.62-0.62,0.62l0,0H320.05L320.05,157.62z"></path> </g> <g> <path class="st1" d="M329.43,157.62c-0.34,0-0.62-0.28-0.62-0.62l0,0c0-0.34,0.28-0.62,0.62-0.62l0,0h0.82 c0.34,0,0.62,0.28,0.62,0.62l0,0c0,0.34-0.28,0.62-0.62,0.62l0,0H329.43L329.43,157.62z"></path> </g> </g> </g> <g> <path class="st2" d="M337.95,102c0,5.67-4.59,10.26-10.26,10.26H189.86c-5.67,0-10.26-4.59-10.26-10.26V10.88 c0-5.67,4.59-10.26,10.26-10.26h137.83c5.67,0,10.26,4.59,10.26,10.26V102z"></path> <path class="st1" d="M189.86,112.88c-6.01,0-10.88-4.87-10.88-10.88l0,0V10.88c0-6.01,4.87-10.88,10.88-10.88l0,0h137.82 c6.01,0,10.88,4.87,10.88,10.88l0,0V102c0,6.01-4.87,10.88-10.88,10.88l0,0H189.86L189.86,112.88z M183.05,4.07 c-1.75,1.75-2.82,4.15-2.82,6.82l0,0V102c0,2.66,1.08,5.07,2.82,6.82l0,0c1.75,1.75,4.15,2.82,6.82,2.82l0,0h137.82 c2.66,0,5.07-1.08,6.82-2.82l0,0c1.75-1.75,2.82-4.15,2.82-6.82l0,0V10.88c0-2.66-1.08-5.07-2.82-6.82l0,0 c-1.75-1.75-4.15-2.82-6.82-2.82l0,0H189.86C187.2,1.24,184.79,2.32,183.05,4.07L183.05,4.07z"></path> </g> <g class="st3"> <path class="st1" d="M337.43,98.95h-157.3V10.88c0-5.37,4.37-9.74,9.74-9.74h137.83c5.37,0,9.74,4.37,9.74,9.74V98.95 L337.43,98.95z"></path> </g> <g> <rect x="189.87" y="11.02" class="st2" width="137.83" height="78.33"></rect> <path class="st1" d="M189.24,89.97V10.4h138.45v0.62V10.4h0.62v79.57H189.24L189.24,89.97z M190.49,88.73h136.58V11.64H190.49 V88.73L190.49,88.73z"></path> </g> <g> <rect x="238.93" y="112.26" class="st2" width="39.7" height="14.22"></rect> <path class="st1" d="M238.31,127.1v-15.46h40.94v14.84v0.62H238.31L238.31,127.1z M278.63,126.48v-0.62V126.48L278.63,126.48z M239.55,125.86h38.46v-12.98h-38.46V125.86L239.55,125.86z"></path> </g> <g> <path class="st2" d="M289.99,129.16c0,1.48-1.2,2.68-2.67,2.68h-57.08c-1.48,0-2.68-1.2-2.68-2.68l0,0c0-1.48,1.2-2.68,2.68-2.68 h57.08C288.79,126.48,289.99,127.68,289.99,129.16L289.99,129.16z"></path> <path class="st1" d="M226.94,129.16c0-1.82,1.48-3.3,3.3-3.3l0,0l57.08,0c1.82,0,3.29,1.48,3.3,3.3l0,0c0,1.82-1.48,3.3-3.3,3.3 l0,0l-57.08,0C228.42,132.45,226.94,130.98,226.94,129.16L226.94,129.16z M230.24,127.1c-1.13,0-2.05,0.92-2.05,2.05l0,0 c0,1.13,0.92,2.05,2.05,2.05l0,0l57.08,0c1.13,0,2.05-0.92,2.05-2.05l0,0c0-1.13-0.92-2.05-2.05-2.05l0,0L230.24,127.1 L230.24,127.1z"></path> </g> <g> <polygon class="st1" points="179.86,99.57 179.86,98.33 337.99,98.33 337.99,99.57 179.86,99.57 "></polygon> </g> </g> </svg> 