<?xml version="1.0" encoding="UTF-8"?> <!-- Generator: Adobe Illustrator 23.0.6, SVG Export Plug-In . SVG Version: 6.00 Build 0) --> <svg xmlns="http://www.w3.org/2000/svg" xmlns:xlink="http://www.w3.org/1999/xlink" id="Capa_1_copia" x="0px" y="0px" viewBox="0 0 1728.42 1728.42" style="enable-background:new 0 0 1728.42 1728.42;" xml:space="preserve"> <style type="text/css"> .st0{fill:#FFFFFF;} </style> <g> <path class="st0" d="M864.21,0C386.92,0,0,386.92,0,864.21s386.92,864.21,864.21,864.21c477.29,0,864.21-386.92,864.21-864.21 S1341.5,0,864.21,0z M864.21,1676.7c-448.73,0-812.49-363.76-812.49-812.49S415.49,51.72,864.21,51.72s812.49,363.76,812.49,812.49 S1312.94,1676.7,864.21,1676.7z"></path> <g> <path class="st0" d="M128.9,900.57l157.01-19.62l8.46,67.67c0.96,7.66,0.26,14.94-2.1,21.82c-2.36,6.88-5.79,12.96-10.3,18.24 c-4.51,5.28-9.88,9.66-16.1,13.13c-6.23,3.47-12.66,5.62-19.29,6.46c-6.93,0.87-13.83,0.45-20.7-1.23 c-6.88-1.69-13.13-4.46-18.78-8.32c-5.65-3.86-10.39-8.81-14.21-14.84c-3.83-6.04-6.21-12.89-7.17-20.55l-3.21-25.65l-48.21,6.03 L128.9,900.57z M220.09,932.97l2.85,22.78c0.33,2.65,1.86,4.97,4.57,6.95c2.72,1.98,7.25,2.58,13.59,1.78 c6.49-0.81,10.74-2.69,12.77-5.64c2.02-2.95,2.88-5.75,2.54-8.4l-2.71-21.67L220.09,932.97z"></path> <path class="st0" d="M153.86,1057.19l149.44-52l14.28,41.04l-113.66,39.55l23.58,67.78l-35.78,12.45L153.86,1057.19z"></path> <path class="st0" d="M363.68,1150.07l20.88,33.73l-105.7,129.89l-23.22-37.52l21.3-24.45l-22.17-35.81l-31.27,8.34l-23.34-37.71 L363.68,1150.07z M297.94,1230.6l34.3-37.74l-49.43,13.29L297.94,1230.6z"></path> <path class="st0" d="M387.84,1316.57l-54.14,55.84l-31.2-30.25l110.14-113.6l24.32,23.58l-10.4,101.97l56-57.76l31.2,30.25 l-110.14,113.6l-24.8-24.04L387.84,1316.57z"></path> <path class="st0" d="M611.71,1427.89l-39.19-23.04l-60.99,103.74l-37.46-22.03l60.99-103.74l-39.38-23.16l19.2-32.66l116.04,68.22 L611.71,1427.89z"></path> <path class="st0" d="M708.65,1473.85c-3.41-3.92-7.05-7.61-10.93-11.06c-3.26-2.94-7.02-5.92-11.27-8.94 c-4.25-3.03-8.64-5.27-13.15-6.75c-3.67-1.2-6.79-1.58-9.35-1.17c-2.56,0.42-4.28,1.97-5.15,4.65c-0.64,1.98-0.54,3.81,0.32,5.5 c0.86,1.69,2.31,3.45,4.37,5.29c2.06,1.84,4.65,3.82,7.79,5.94c3.14,2.12,6.67,4.6,10.59,7.43c6.23,4.37,11.72,8.74,16.47,13.1 c4.75,4.36,8.54,8.92,11.37,13.66c2.82,4.75,4.5,9.94,5,15.58c0.51,5.64-0.39,11.98-2.69,19.05c-2.95,9.04-7.08,16.09-12.4,21.16 c-5.32,5.06-11.3,8.55-17.94,10.45c-6.64,1.9-13.65,2.55-21.02,1.94c-7.38-0.61-14.53-2.04-21.45-4.29 c-5.51-1.8-11.02-4.06-16.54-6.79c-5.52-2.74-10.88-5.81-16.1-9.23c-5.21-3.42-10.13-7.05-14.73-10.89 c-4.61-3.84-8.74-7.84-12.38-12l29.6-30.44c3.93,4.72,8.19,9.15,12.78,13.3c3.83,3.59,8.33,7.17,13.5,10.73 c5.17,3.56,10.72,6.31,16.65,8.24c4.52,1.47,7.86,1.9,10.02,1.27c2.16-0.62,3.56-1.92,4.2-3.9c0.69-2.12,0.39-4.21-0.89-6.27 c-1.29-2.06-3.3-4.16-6.03-6.3c-2.74-2.14-5.94-4.43-9.6-6.88c-3.66-2.44-7.5-5.17-11.51-8.2c-5.91-4.42-10.83-8.72-14.78-12.9 c-3.95-4.18-6.94-8.43-8.97-12.77c-2.03-4.33-3.09-8.86-3.19-13.58s0.74-9.84,2.54-15.34c2.71-8.33,6.62-15.19,11.73-20.55 c5.11-5.37,10.96-9.32,17.57-11.85c6.61-2.54,13.62-3.8,21.05-3.81c7.42,0,14.88,1.21,22.37,3.65c5.51,1.79,10.7,4.07,15.58,6.84 c4.88,2.76,9.49,5.75,13.84,8.96c4.34,3.21,8.33,6.46,11.94,9.75c3.62,3.29,6.84,6.33,9.68,9.13L708.65,1473.85z"></path> <path class="st0" d="M866.42,1599.75c-12.03,0.05-22.96-2.2-32.79-6.77c-9.83-4.56-18.25-10.58-25.26-18.06 c-7.02-7.47-12.48-16.03-16.38-25.67c-3.91-9.64-5.88-19.59-5.92-29.84c-0.04-10.4,1.92-20.43,5.89-30.11 c3.97-9.67,9.54-18.2,16.72-25.59c7.17-7.39,15.69-13.29,25.55-17.71c9.86-4.42,20.66-6.66,32.4-6.71 c12.03-0.05,22.96,2.21,32.79,6.77c9.83,4.57,18.24,10.62,25.26,18.17c7.01,7.55,12.44,16.14,16.27,25.78 c3.83,9.64,5.77,19.51,5.81,29.62c0.04,10.4-1.92,20.4-5.89,30c-3.97,9.6-9.5,18.09-16.6,25.48c-7.1,7.38-15.58,13.33-25.44,17.83 C888.95,1597.43,878.15,1599.7,866.42,1599.75z M830.19,1519.68c0.02,5.35,0.79,10.51,2.29,15.48c1.5,4.97,3.75,9.38,6.74,13.23 c2.99,3.85,6.75,6.96,11.29,9.31c4.54,2.36,9.93,3.52,16.17,3.5c6.24-0.03,11.66-1.28,16.25-3.75c4.59-2.47,8.33-5.68,11.21-9.63 c2.88-3.95,5.01-8.45,6.41-13.51c1.39-5.06,2.07-10.19,2.05-15.39c-0.02-5.35-0.79-10.5-2.3-15.48 c-1.51-4.97-3.79-9.34-6.85-13.12c-3.06-3.78-6.86-6.8-11.41-9.09c-4.54-2.28-9.86-3.41-15.95-3.39 c-6.24,0.03-11.62,1.24-16.14,3.64c-4.52,2.4-8.26,5.57-11.21,9.52c-2.96,3.95-5.13,8.42-6.52,13.4 C830.85,1509.39,830.17,1514.48,830.19,1519.68z"></path> <path class="st0" d="M1011.9,1504.49l20.49,75.03l-41.92,11.45l-41.67-152.64l32.68-8.92l82.46,60.88l-21.19-77.61l41.92-11.45 l41.68,152.64l-33.32,9.1L1011.9,1504.49z"></path> <path class="st0" d="M1252.33,1445.59l18.28,33.18l-98.77,54.42l-76.36-138.58l97.01-53.45l18.28,33.18l-58.95,32.48l10.75,19.52 l50.36-27.75l16.99,30.84l-50.36,27.75l12.04,21.86L1252.33,1445.59z"></path> <path class="st0" d="M1344.81,1251.99l-32.22,32.07l84.9,85.29l-30.8,30.66l-84.9-85.29l-32.38,32.23l-26.73-26.85l95.4-94.96 L1344.81,1251.99z"></path> <path class="st0" d="M1452.56,1307.75l-133.8-84.46l38.78-61.44c4.12-6.53,9.28-11.71,15.47-15.53c6.19-3.82,12.7-6.34,19.54-7.57 c6.83-1.22,13.76-1.2,20.78,0.07c7.02,1.27,13.35,3.69,19.01,7.25c7.79,4.92,13.98,11.19,18.55,18.83 c4.58,7.64,7.1,15.82,7.57,24.54l67.03,2.78l-26.17,41.46l-55.95-2.38l-8.68,13.76l41.08,25.93L1452.56,1307.75z M1402.64,1224.84 l14.63-23.18c1.43-2.26,1.5-5.16,0.22-8.69c-1.28-3.53-4.19-6.73-8.71-9.58c-4.65-2.93-8.91-4.04-12.79-3.33 c-3.88,0.71-6.53,2.2-7.96,4.46l-14.04,22.24L1402.64,1224.84z"></path> <path class="st0" d="M1540.69,1040.71l35.7,12.69l-37.75,106.26l-149.1-52.98l37.08-104.37l35.7,12.68l-22.53,63.42l21,7.46 l19.25-54.18l33.18,11.79l-19.25,54.18l23.52,8.36L1540.69,1040.71z"></path> <path class="st0" d="M1562.39,897.4l37.56,4.99l-14.85,111.78l-156.85-20.83l14.59-109.79l37.55,4.99l-8.86,66.72l22.09,2.93 l7.57-57l34.91,4.64l-7.57,57l24.74,3.29L1562.39,897.4z"></path> </g> <g> <path class="st0" d="M296.58,780.63l-162.71,8.16c6.17-60.44,19.7-118.71,39.63-173.91l146.16,68.35 C309.25,714.58,301.47,747.13,296.58,780.63z"></path> </g> <g> <path class="st0" d="M1431.84,780.63l162.71,8.16c-6.17-60.44-19.7-118.71-39.63-173.91l-146.16,68.35 C1419.17,714.58,1426.95,747.13,1431.84,780.63z"></path> </g> <g> <path class="st0" d="M309.57,441.55l-23.97,38.63l102.26,63.44l-22.91,36.93l-102.26-63.44l-24.08,38.82l-32.19-19.97 l70.96-114.38L309.57,441.55z"></path> <path class="st0" d="M398.53,295.21l111.41,112.35l-30.86,30.6l-43.62-43.99l-37.66,37.35l43.62,43.99l-30.86,30.6L299.15,393.75 l30.86-30.6l41.11,41.46l37.66-37.35l-41.11-41.46L398.53,295.21z"></path> <path class="st0" d="M521.51,403.55l-89.69-130.35l35.8-24.63l89.69,130.35L521.51,403.55z"></path> <path class="st0" d="M606.93,233.03c-5.18-0.48-10.36-0.63-15.54-0.45c-4.39,0.13-9.16,0.57-14.33,1.31 c-5.16,0.75-9.89,2.15-14.17,4.21c-3.48,1.67-6,3.54-7.57,5.61c-1.56,2.07-1.73,4.38-0.51,6.92c0.9,1.88,2.24,3.13,4.03,3.75 c1.78,0.63,4.05,0.9,6.81,0.81c2.76-0.09,6-0.45,9.74-1.09c3.73-0.63,8-1.28,12.79-1.93c7.53-1.14,14.51-1.77,20.96-1.9 c6.45-0.13,12.33,0.55,17.66,2.03c5.32,1.49,10.12,4.09,14.38,7.81c4.26,3.73,8,8.94,11.21,15.63c4.11,8.57,5.99,16.53,5.64,23.87 c-0.35,7.34-2.27,13.99-5.76,19.94c-3.49,5.96-8.11,11.27-13.87,15.92c-5.76,4.66-11.92,8.56-18.48,11.71 c-5.22,2.51-10.78,4.68-16.65,6.51c-5.88,1.83-11.88,3.31-18.01,4.44c-6.13,1.13-12.19,1.89-18.18,2.3 c-5.99,0.4-11.74,0.36-17.24-0.13l0.39-42.46c6.1,0.7,12.24,0.97,18.43,0.8c5.25-0.05,10.97-0.57,17.17-1.56 c6.2-1,12.11-2.84,17.73-5.54c4.29-2.06,6.99-4.05,8.12-6c1.13-1.94,1.24-3.85,0.34-5.73c-0.96-2.01-2.62-3.31-4.97-3.92 c-2.35-0.6-5.26-0.73-8.72-0.39c-3.46,0.34-7.36,0.9-11.69,1.65c-4.33,0.76-8.99,1.43-13.99,2.01c-7.33,0.88-13.86,1.17-19.6,0.88 c-5.74-0.29-10.85-1.3-15.3-3.04c-4.46-1.73-8.35-4.27-11.69-7.62c-3.33-3.34-6.26-7.63-8.76-12.85 c-3.79-7.9-5.7-15.56-5.71-22.97c-0.01-7.41,1.49-14.31,4.52-20.71c3.03-6.4,7.23-12.16,12.59-17.29c5.37-5.13,11.6-9.4,18.7-12.8 c5.22-2.51,10.55-4.45,15.99-5.82c5.44-1.37,10.84-2.4,16.2-3.08c5.36-0.68,10.48-1.08,15.37-1.19c4.89-0.12,9.32-0.15,13.31-0.08 L606.93,233.03z"></path> <path class="st0" d="M789.3,186.84c-4.84-1.89-9.78-3.45-14.82-4.71c-4.25-1.08-8.97-1.98-14.13-2.68 c-5.17-0.7-10.1-0.65-14.78,0.15c-3.81,0.65-6.75,1.75-8.82,3.31c-2.07,1.56-2.87,3.73-2.39,6.51c0.35,2.05,1.3,3.62,2.84,4.72 c1.54,1.09,3.65,1.98,6.33,2.65c2.68,0.67,5.9,1.22,9.66,1.63c3.76,0.42,8.04,0.97,12.83,1.66c7.55,0.97,14.44,2.29,20.68,3.94 c6.23,1.65,11.71,3.92,16.42,6.81c4.71,2.89,8.6,6.71,11.67,11.46c3.07,4.75,5.23,10.79,6.48,18.11c1.6,9.38,1.22,17.54-1.14,24.5 c-2.36,6.96-6.03,12.82-11.02,17.59c-4.99,4.77-10.89,8.6-17.71,11.5c-6.82,2.89-13.81,4.96-20.99,6.18 c-5.71,0.97-11.65,1.53-17.8,1.68c-6.16,0.14-12.33-0.08-18.54-0.68c-6.21-0.6-12.24-1.53-18.11-2.79 c-5.87-1.26-11.38-2.88-16.54-4.87l12.05-40.71c5.67,2.35,11.51,4.29,17.5,5.83c5.06,1.4,10.71,2.47,16.94,3.22 c6.23,0.75,12.42,0.59,18.57-0.45c4.69-0.8,7.84-1.98,9.46-3.53c1.62-1.55,2.25-3.36,1.9-5.41c-0.37-2.2-1.61-3.91-3.7-5.13 c-2.09-1.23-4.85-2.15-8.27-2.77c-3.42-0.62-7.32-1.16-11.69-1.62c-4.37-0.46-9.04-1.09-14-1.91c-7.29-1.17-13.65-2.68-19.09-4.55 c-5.44-1.86-10.07-4.24-13.88-7.13c-3.81-2.89-6.86-6.4-9.14-10.54c-2.29-4.13-3.92-9.05-4.89-14.77 c-1.47-8.64-1.2-16.52,0.83-23.65c2.02-7.13,5.37-13.35,10.04-18.67c4.67-5.32,10.29-9.7,16.86-13.16 c6.57-3.45,13.73-5.85,21.5-7.17c5.71-0.97,11.37-1.37,16.98-1.2c5.6,0.18,11.08,0.68,16.42,1.5c5.34,0.82,10.38,1.85,15.11,3.08 c4.73,1.23,9,2.42,12.82,3.58L789.3,186.84z"></path> <path class="st0" d="M946.1,255.13l-1.35,37.86l-112.69-4l5.62-158.13l110.69,3.93l-1.35,37.86l-67.26-2.39l-0.79,22.27 l57.46,2.04l-1.25,35.19l-57.46-2.04l-0.89,24.94L946.1,255.13z"></path> <path class="st0" d="M948.11,293.24l39.48-153.22l70.35,18.13c7.48,1.93,13.99,5.25,19.52,9.98c5.53,4.73,9.93,10.15,13.18,16.28 c3.25,6.13,5.35,12.73,6.29,19.8c0.94,7.07,0.58,13.84-1.09,20.32c-2.3,8.92-6.38,16.73-12.25,23.42 c-5.87,6.7-12.88,11.6-21.05,14.71l17.86,64.67l-47.48-12.23l-14.85-54l-15.75-4.06l-12.12,47.05L948.11,293.24z M1011.77,220.35 l26.54,6.84c2.59,0.67,5.37-0.15,8.34-2.45c2.97-2.3,5.12-6.04,6.46-11.22c1.37-5.32,1.12-9.72-0.74-13.19 c-1.87-3.47-4.09-5.54-6.68-6.21l-25.47-6.56L1011.77,220.35z"></path> <path class="st0" d="M1170.38,198.52l-19.71,106.35l74.44-78.29l40.66,20.84l-123.94,114.27l-32.13-16.47l19.82-167.64 L1170.38,198.52z"></path> <path class="st0" d="M1188.5,390.38l94.34-127.03l34.89,25.91l-94.34,127.03L1188.5,390.38z"></path> <path class="st0" d="M1286.61,359.54c6.97-6.68,15.09-11.95,24.37-15.8c9.28-3.85,19.01-5.82,29.21-5.92 c10.19-0.1,20.4,1.85,30.61,5.85c10.21,4,19.74,10.61,28.58,19.83c10.59,11.04,17.48,22.8,20.69,35.27 c3.2,12.47,2.95,24.28-0.75,35.45l-40.03-7.62c1.76-3.75,2.7-7.38,2.83-10.89c0.13-3.52-0.3-6.86-1.29-10.04 c-0.99-3.17-2.37-6.12-4.15-8.83c-1.79-2.72-3.7-5.15-5.76-7.29c-4.32-4.5-8.93-7.54-13.83-9.12c-4.91-1.58-9.78-2.04-14.63-1.41 c-4.85,0.63-9.56,2.16-14.12,4.59c-4.57,2.42-8.62,5.33-12.16,8.73c-3.97,3.8-7.21,8.04-9.73,12.72 c-2.52,4.68-4.09,9.48-4.72,14.4c-0.63,4.93-0.21,9.82,1.27,14.69c1.47,4.87,4.16,9.33,8.07,13.41c2.06,2.14,4.41,4.11,7.05,5.9 s5.53,3.19,8.66,4.2s6.38,1.5,9.74,1.47c3.36-0.03,6.79-0.8,10.29-2.3l9.24,40.23c-5.83,2.29-12.08,3.29-18.74,2.99 c-6.67-0.3-13.26-1.6-19.78-3.89c-6.52-2.29-12.81-5.42-18.87-9.38c-6.06-3.96-11.41-8.36-16.04-13.18 c-8.12-8.47-13.86-17.84-17.22-28.1c-3.36-10.26-4.69-20.62-3.99-31.06c0.69-10.44,3.24-20.45,7.65-30.02 C1273.47,374.82,1279.32,366.54,1286.61,359.54z"></path> <path class="st0" d="M1418.46,598.5l-32.39,19.65l-58.5-96.4l135.27-82.09l57.46,94.69l-32.39,19.65L1453,496.47l-19.05,11.56 l29.83,49.15l-30.1,18.27l-29.83-49.15l-21.34,12.95L1418.46,598.5z"></path> </g> <g> <path class="st0" d="M1371.85,864.21c0-280.36-227.28-507.64-507.64-507.64S356.57,583.85,356.57,864.21 c0,145.85,61.53,277.3,160.01,369.9l29.94-45.17c-84.29-82.48-136.63-197.48-136.63-324.73c0-250.91,203.4-454.31,454.31-454.31 c250.91,0,454.31,203.4,454.31,454.31c0,126.72-51.9,241.31-135.59,323.71l35.57,39.79 C1313.09,1135.51,1371.85,1006.73,1371.85,864.21z"></path> </g> <g> <path class="st0" d="M1030.98,853.26c-26.69,0-71.91,5.93-105.27,32.62c-33.36,26.69-56.29,66.91-48.19,107.49 C894.29,965.85,956.11,875.5,1030.98,853.26z"></path> <path class="st0" d="M1046.63,871.45c4.95-11.62,15.85-19.99,34.76-28.57c-130.47,17.79-199.41,159.22-200.15,175.53 C984.64,993.37,1037.84,892.08,1046.63,871.45z"></path> <path class="st0" d="M814.49,965.85c4.12-42.54-7.28-183.71-243.74-187.35C617.44,803.96,793.87,898.55,814.49,965.85z"></path> <path class="st0" d="M1032.42,560.49c-61.49,0-163.65,0.5-165.63,117.03C881.16,652.73,912.9,606.11,1032.42,560.49z"></path> <path class="st0" d="M819.18,625.95c20.26-47.1-64.65-98.04-98.69-89.41C736.97,543.74,775.54,557.55,819.18,625.95z"></path> <path class="st0" d="M717.12,566.47c11.8,24.75,62.17,75.12,102.17,80.01c-3.45-20.53-67.63-118-135.27-115.98 C704.45,535.58,705.32,541.72,717.12,566.47z"></path> <path class="st0" d="M1127.77,1298.16l-0.58-4.41c0.98-3.35,0.72-7.35-1.23-9.45c-0.37-0.4-1.02-0.91-1.46-0.84 c-3.28,0.52-3.62-2.38-5.05-4.09c-1.44-1.72-3.01-4.32-4.81-4.59c-14.28-2.12-27.11-7.88-39.17-15.35 c-21.77-13.5-45.07-23.64-69.68-30.22c-18.78-5.01-36.11-12.62-52.46-22.82c-16.28-10.14-32.64-20.04-50.59-27.15 c-5.12-2.03-10.44-4.74-14.56-8.03c-2.26-1.8-5-2.86-7.89-2.86c6.02-34.54-26.22-232.91-27.12-274.35 c-5.01-230.96,11.03-408.7,11.03-449.14c-44.19,87.28-40.28,434.51-35.98,510.23c4.3,75.72,13.72,213.26,13.72,213.26h-2.16 c-3.92,0-7.69,1.5-10.53,4.2c-17.76,16.83-35.53,33.64-53.64,50.09c-15.95,14.49-33.31,27.29-54.53,32.77 c-19.53,5.05-39.36,9.07-59.21,12.73c-13.9,2.56-26.69,6.44-36.87,17.02c-2.3,2.39-4.94,4.29-7.84,5.71l0,0l-10.37,2.82 c-0.15,0.01-0.3,0.04-0.46,0.05c-1.27,0.09-2.5,0.69-5.28,1.51c1.09,0.9-1.41,2.3-1.41,2.3c77.04,47.14,167.63,74.3,264.56,74.3 C960.73,1371.85,1050.95,1344.92,1127.77,1298.16"></path> </g> </g> </svg> 