<?xml version="1.0" encoding="UTF-8"?> <svg xmlns="http://www.w3.org/2000/svg" id="Layer_1" height="512" viewBox="0 0 512 512" width="512"><path d="m195.75 90.25h150.625c8.284 0 15-6.716 15-15s-6.716-15-15-15h-150.625c-8.284 0-15 6.716-15 15s6.716 15 15 15z"></path><path d="m135.5 90.25c7.846 0 15.363-6.899 15-15-.364-8.127-6.591-15-15-15-7.846 0-15.363 6.899-15 15 .364 8.127 6.591 15 15 15z"></path><path d="m75.25 90.25c7.846 0 15.363-6.899 15-15-.364-8.127-6.591-15-15-15-7.846 0-15.363 6.899-15 15 .364 8.127 6.591 15 15 15z"></path><path d="m202.458 242.583c-7.409-3.704-16.419-.702-20.125 6.708l-16.708 33.417-16.708-33.417c-2.541-5.081-7.735-8.291-13.417-8.291s-10.875 3.21-13.417 8.292l-16.708 33.417-16.708-33.417c-3.705-7.41-12.716-10.414-20.125-6.708-7.41 3.705-10.413 12.715-6.708 20.125l30.125 60.25c2.541 5.082 7.735 8.292 13.417 8.292s10.875-3.21 13.417-8.292l16.708-33.417 16.708 33.417c2.541 5.082 7.735 8.292 13.417 8.292s10.875-3.21 13.417-8.292l30.125-60.25c3.703-7.411.7-16.42-6.71-20.126z"></path><path d="m507.607 426.144-76.902-76.902c13.21-17.605 21.045-39.463 21.045-63.117 0-28.655-11.502-54.669-30.125-73.684v-154.648c0-31.867-25.926-57.793-57.793-57.793h-306.039c-31.867 0-57.793 25.926-57.793 57.793v396.414c0 31.867 25.926 57.793 57.793 57.793h306.039c31.867 0 57.793-25.926 57.793-57.793v-71.619l64.769 64.769c2.929 2.929 6.768 4.394 10.606 4.394s7.678-1.464 10.606-4.394c5.858-5.858 5.858-15.356.001-21.213zm-477.607-215.394h242.819c-19.617 19.148-31.819 45.861-31.819 75.375s12.201 56.227 31.819 75.375h-242.819zm316.375 150.75c-41.562 0-75.375-33.813-75.375-75.375s33.813-75.375 75.375-75.375 75.375 33.813 75.375 75.375-33.813 75.375-75.375 75.375zm45.25-170.527c-13.718-6.55-29.063-10.223-45.25-10.223h-316.375v-30.25h361.625zm-333.832-160.973h306.039c15.325 0 27.793 12.468 27.793 27.793v62.707h-361.625v-62.707c0-15.325 12.468-27.793 27.793-27.793zm306.039 452h-306.039c-15.325 0-27.793-12.468-27.793-27.793v-62.707h316.375c16.188 0 31.532-3.673 45.25-10.223v72.93c0 15.325-12.468 27.793-27.793 27.793z"></path><path d="m346.375 421.75h-271.125c-8.284 0-15 6.716-15 15s6.716 15 15 15h271.125c8.284 0 15-6.716 15-15s-6.716-15-15-15z"></path></svg> 