<?xml version="1.0" encoding="UTF-8"?> <!-- Generator: Adobe Illustrator 23.0.6, SVG Export Plug-In . SVG Version: 6.00 Build 0) --> <svg xmlns="http://www.w3.org/2000/svg" xmlns:xlink="http://www.w3.org/1999/xlink" id="_x31_" x="0px" y="0px" viewBox="0 0 441.19 223.33" style="enable-background:new 0 0 441.19 223.33;" xml:space="preserve"> <style type="text/css"> .st0{opacity:0.05;} .st1{fill-rule:evenodd;clip-rule:evenodd;} </style> <g class="st0"> <path class="st1" d="M46.58,141.73c1.28,0.39,2.72,0.59,4.32,0.6c-0.97,0.68-1.97,1.31-2.99,1.87c0.19,0.09,0.37,0.18,0.56,0.27 c-2.28,1.14-4.72,2.16-7.31,3.07c3.1,0.77,6.97,0.81,11.61,0.12c-0.8,0.41-1.67,0.79-2.61,1.15c0.33,0.96,1.74,1.47,4.22,1.51 c-2,1.66-4.94,3.09-8.81,4.31c0.36,0.84,1.73,1.33,4.12,1.47c-3.69,2.58-7.67,4.68-11.95,6.3c1.4,0.5,2.87,0.85,4.4,1.04 c-3.72,1.89-7.68,3.48-11.86,4.77c5.94,1.72,12.82,1.62,20.21-0.32c-1.89,1.49-4.16,2.83-6.79,4.01c1.26,0.39,2.48,0.67,3.66,0.86 c-2.59,1.88-5.84,3.53-9.74,4.95c11.53,2.9,20.35,0.14,26.46-8.3c1.48,3.91,3.38,7.08,5.98,9.5c3.65-2.38,5.85-5.55,6.33-9.5 c8.1,8.72,16.89,11.43,26.39,8.13c-4.19-0.84-7.72-2.38-10.56-4.57c1.46-0.18,2.94-0.6,4.44-1.24c-3.19-0.78-5.9-2.19-8.13-4.16 c8.13,2.38,15.3,2.48,21.4,0.53c-4.29-0.95-8.4-2.49-12.32-4.6c1.7-0.2,3.32-0.61,4.86-1.21c-4.41-1.2-8.57-3.33-12.49-6.38 c1.75-0.04,3.34-0.49,4.77-1.35c-3.69-0.88-6.73-2.37-9.11-4.47c1.67,0.09,3.17-0.35,4.5-1.34c-0.75-0.22-1.47-0.48-2.15-0.77 c5.45,0.93,9.34,0.69,11.67-0.72c-2.87-0.7-5.6-1.61-8.17-2.73c0.27-0.13,0.54-0.27,0.81-0.42c-0.94-0.38-1.87-0.84-2.78-1.4 c1.97-0.03,3.51-0.45,4.61-1.27c-2.34-0.7-4.55-1.61-6.64-2.73c0.22-0.13,0.44-0.27,0.66-0.42c-1.37-0.67-2.71-1.64-4-2.9 c0.53-0.11,1.04-0.26,1.53-0.45c-1.13-0.39-2.18-0.82-3.14-1.29c-0.45-0.54-0.9-1.12-1.34-1.74c0.8-0.03,1.54-0.34,2.22-0.93 c1.77-0.03,3.37-0.32,4.81-0.85c-3.29-1.07-6.21-2.42-8.76-4.08c0.52-0.11,1.01-0.4,1.46-0.88c1.43-0.03,2.73-0.32,3.9-0.85 c0.7-0.2,1.29-0.56,1.76-1.07c-2.43-1.05-4.66-2.6-6.7-4.63c1.62,0.27,2.82-0.12,3.62-1.19c-2.34-1.25-4.47-3.2-6.37-5.84 c0.58-0.07,1.14-0.3,1.66-0.66c-1.97-1.22-3.49-2.87-4.58-4.72c2.38,1.08,4.37,0.99,6-0.09c-2.26-1.33-4.21-3.07-5.84-5.29 c1.53,0.58,2.85,0.37,3.95-0.53c-3.87-2.79-6.61-7.43-8.22-14.56c-1.32,7.01-4.09,11.93-8.46,14.76c1.54,1.09,3.16,0.78,4.84-0.91 c-0.08,0.36-0.17,0.71-0.28,1.05c-1.71,2.39-3.88,4.28-6.51,5.67c1.72,0.99,3.51,0.84,5.37-0.46c0.15-0.01,0.31-0.02,0.47-0.05 c-0.68,2.18-2.13,3.83-4.36,4.95c0.42,0.42,0.94,0.7,1.57,0.83c-1.67,2.43-3.58,4.48-5.73,6.14c0.93,0.5,2.01,0.69,3.25,0.56 c-1.87,2.04-3.96,3.8-6.27,5.25c0.63,0.27,1.31,0.45,2.04,0.54c-0.37,0.15-0.74,0.29-1.12,0.43c1.37,0.54,2.76,0.74,4.19,0.6 c0.24,0.63,0.8,1.02,1.69,1.15c-2.64,1.65-5.76,3.01-9.38,4.07c1.68,0.54,3.4,0.74,5.15,0.6c0.3,0.65,1.03,1.04,2.19,1.16 c-0.38,0.48-0.77,0.94-1.16,1.39c-1.02,0.49-2.19,0.92-3.52,1.29c0.49,0.27,1.05,0.48,1.69,0.63c-1.17,1.13-2.39,2.13-3.66,2.99 c0.15,0.09,0.3,0.19,0.45,0.27C50.71,139.79,48.73,140.81,46.58,141.73z"></path> <path class="st1" d="M66.26,149.94c2.8,1.04,5.96,1.58,9.47,1.62c-2.12,1.82-4.3,3.49-6.54,5c0.4,0.26,0.81,0.5,1.22,0.73 c-4.99,3.05-10.33,5.8-16.01,8.23c6.78,2.05,15.26,2.15,25.42,0.31c-1.75,1.08-3.66,2.1-5.71,3.07c0.73,2.57,3.81,3.91,9.24,4.03 c-4.39,4.44-10.83,8.28-19.3,11.54c0.79,2.25,3.79,3.56,9.02,3.93c-8.06,6.9-16.78,12.53-26.15,16.87c3.08,1.35,6.3,2.28,9.64,2.79 c-8.15,5.07-16.8,9.33-25.96,12.78c3.15,1.12,6.43,1.96,9.82,2.5h20.15c4.64-0.68,9.41-1.79,14.27-3.35 c-1.2,1.15-2.45,2.27-3.78,3.35h91.53c-1.58-1.27-3.08-2.66-4.49-4.19c5.53,1.98,10.87,3.37,15.99,4.19h21.01 c3.41-0.62,6.69-1.54,9.84-2.77c-9.39-2.55-18.38-6.66-26.96-12.32c3.73-0.54,7.28-1.63,10.64-3.25 c-9.63-3.22-18.74-8.92-27.33-17.09c3.83-0.1,7.32-1.31,10.45-3.62c-8.09-2.35-14.74-6.34-19.95-11.97 c3.66,0.24,6.94-0.96,9.85-3.6c-1.64-0.59-3.21-1.28-4.7-2.07c11.92,2.48,20.43,1.83,25.53-1.93c-6.3-1.86-12.26-4.29-17.89-7.3 c0.6-0.34,1.2-0.72,1.78-1.13c-2.07-1.01-4.1-2.26-6.09-3.75c4.3-0.07,7.66-1.21,10.08-3.4c-5.12-1.86-9.96-4.29-14.54-7.3 c0.49-0.34,0.97-0.72,1.45-1.13c-3.01-1.81-5.93-4.4-8.76-7.77c1.15-0.31,2.27-0.72,3.35-1.22c-2.47-1.04-4.76-2.2-6.87-3.45 c-0.99-1.45-1.97-3-2.94-4.65c1.75-0.08,3.37-0.91,4.86-2.48c3.87-0.08,7.37-0.86,10.53-2.28c-7.21-2.88-13.59-6.49-19.17-10.93 c1.13-0.29,2.19-1.08,3.18-2.36c3.14-0.07,5.99-0.85,8.55-2.27c1.54-0.54,2.82-1.49,3.85-2.86c-5.31-2.81-10.2-6.94-14.67-12.39 c3.52,0.73,6.16-0.33,7.91-3.18c-5.14-3.34-9.79-8.55-13.95-15.63c1.27-0.21,2.49-0.82,3.63-1.78c-4.33-3.27-7.65-7.68-10.03-12.63 c5.22,2.88,9.58,2.64,13.14-0.24c-4.95-3.55-9.21-8.21-12.78-14.16c3.35,1.56,6.22,1,8.64-1.41c-8.48-7.49-14.47-19.91-18-39 c-2.88,18.78-8.96,31.96-18.52,39.53c3.38,2.92,6.91,2.11,10.59-2.42c-0.17,0.97-0.38,1.91-0.62,2.81 c-3.75,6.41-8.48,11.47-14.25,15.18c3.77,2.64,7.69,2.23,11.76-1.24c0.33-0.02,0.67-0.06,1.03-0.13 c-1.48,5.83-4.66,10.25-9.54,13.26c0.91,1.12,2.06,1.86,3.44,2.21c-3.67,6.51-7.85,11.99-12.55,16.44 c2.04,1.36,4.41,1.86,7.12,1.51c-4.09,5.48-8.66,10.16-13.73,14.06c1.37,0.74,2.85,1.23,4.46,1.46c-0.8,0.39-1.62,0.77-2.45,1.14 c2.98,1.44,6.04,1.97,9.16,1.6c0.51,1.7,1.75,2.72,3.7,3.08c-5.79,4.42-12.62,8.05-20.54,10.89c3.68,1.44,7.44,1.97,11.28,1.6 c0.66,1.75,2.26,2.79,4.8,3.11c-0.83,1.28-1.68,2.52-2.54,3.71c-2.24,1.31-4.81,2.46-7.71,3.46c1.06,0.72,2.29,1.29,3.69,1.69 c-2.57,3.03-5.24,5.7-8.01,8.01c0.32,0.26,0.66,0.5,0.99,0.73C75.23,144.76,70.89,147.5,66.26,149.94z"></path> <path class="st1" d="M-0.04,141.16l0,82.16h73.99c-0.41-0.35-0.82-0.72-1.22-1.09c1.26,0.39,2.52,0.75,3.76,1.09h44.38 c-9.52-2.3-18.65-5.93-27.37-10.87c3.9-0.49,7.6-1.47,11.12-2.92c-10.07-2.9-19.59-8.02-28.56-15.35 c4.01-0.09,7.65-1.18,10.92-3.25c-8.46-2.12-15.41-5.7-20.85-10.75c3.82,0.22,7.25-0.86,10.29-3.23c-1.71-0.52-3.35-1.14-4.91-1.85 c12.46,2.22,21.35,1.64,26.68-1.74c-6.57-1.67-12.8-3.85-18.69-6.55c0.63-0.3,1.25-0.64,1.86-1.01c-2.16-0.91-4.28-2.03-6.36-3.37 c4.49-0.06,8.01-1.08,10.53-3.05c-5.34-1.67-10.41-3.85-15.19-6.55c0.51-0.3,1.01-0.64,1.51-1.01c-3.15-1.62-6.2-3.95-9.16-6.97 c1.2-0.27,2.37-0.64,3.5-1.09c-2.58-0.93-4.97-1.97-7.18-3.1c-1.03-1.3-2.06-2.7-3.07-4.18c1.83-0.08,3.52-0.82,5.08-2.23 c4.04-0.07,7.7-0.77,11-2.05c-7.53-2.58-14.2-5.82-20.03-9.81c1.19-0.26,2.29-0.97,3.33-2.12c3.28-0.07,6.25-0.76,8.93-2.04 c1.6-0.49,2.94-1.34,4.02-2.57c-5.55-2.53-10.66-6.24-15.33-11.13c3.68,0.65,6.44-0.3,8.27-2.86c-5.37-3.01-10.23-7.69-14.58-14.04 c1.34-0.18,2.6-0.73,3.8-1.59c-4.52-2.94-7.99-6.9-10.48-11.34c5.45,2.59,10.01,2.38,13.73-0.21c-5.17-3.19-9.62-7.37-13.35-12.72 c3.5,1.4,6.5,0.89,9.03-1.27c-8.86-6.72-15.12-17.87-18.81-35.01c-3.01,16.86-9.36,28.69-19.35,35.49 c3.53,2.62,7.22,1.89,11.07-2.18c-0.17,0.88-0.39,1.72-0.64,2.53c-3.91,5.75-8.86,10.3-14.89,13.63c3.93,2.38,8.03,2.01,12.28-1.11 c0.35-0.02,0.71-0.06,1.08-0.12c-1.55,5.23-4.87,9.2-9.97,11.9c0.96,1.01,2.16,1.67,3.6,1.99c-3.83,5.85-8.2,10.77-13.11,14.76 c2.13,1.22,4.61,1.67,7.44,1.36c-2.52,2.89-5.21,5.54-8.07,7.94v8.25c1.77,0.32,3.57,0.39,5.39,0.2c0.54,1.53,1.83,2.45,3.87,2.77 c-2.84,1.87-5.93,3.58-9.26,5.13v6.82c0.84,1.14,2.38,1.83,4.59,2.07c-0.88,1.15-1.76,2.26-2.66,3.33 c-0.62,0.31-1.26,0.62-1.93,0.91H-0.04z"></path> <path class="st1" d="M135.94,163.55c2.46,0.83,5.22,1.26,8.3,1.29c-1.87,1.46-3.78,2.79-5.74,4c0.35,0.2,0.71,0.4,1.07,0.58 c-4.37,2.45-9.05,4.64-14.03,6.59c5.94,1.64,13.37,1.72,22.28,0.25c-1.54,0.86-3.21,1.68-5.01,2.46c0.63,2.06,3.33,3.14,8.09,3.23 c-3.85,3.55-9.48,6.63-16.91,9.24c0.69,1.81,3.33,2.86,7.91,3.15c-7.07,5.52-14.71,10.02-22.92,13.5c2.7,1.07,5.52,1.82,8.45,2.23 c-7.14,4.06-14.72,7.47-22.75,10.23c11.39,3.7,24.6,3.47,38.78-0.68c-1.46,1.28-3.03,2.51-4.72,3.69h30.5l0.28-0.42l0.14,0.42 h23.44l0.05-0.42l0.35,0.42h28.33c-1.94-1.27-3.74-2.73-5.4-4.37c15.59,5.1,29.35,5.31,41.05,1.14 c-8.23-2.04-16.11-5.33-23.63-9.86c3.26-0.44,6.37-1.31,9.32-2.6c-8.45-2.58-16.43-7.14-23.96-13.68c3.36-0.09,6.41-1.05,9.16-2.9 c-7.09-1.88-12.92-5.08-17.49-9.58c3.2,0.19,6.08-0.77,8.63-2.88c-1.44-0.47-2.81-1.02-4.12-1.65c10.45,1.98,17.91,1.46,22.38-1.55 c-5.52-1.49-10.74-3.43-15.68-5.84c0.53-0.27,1.05-0.57,1.56-0.9c-1.8-0.81-3.58-1.81-5.33-3c3.78-0.06,6.72-0.96,8.84-2.72 c-4.48-1.49-8.73-3.43-12.74-5.84c0.43-0.27,0.85-0.57,1.27-0.9c-2.64-1.45-5.2-3.53-7.68-6.22c1-0.24,1.98-0.57,2.93-0.97 c-2.17-0.84-4.18-1.77-6.03-2.77c-0.87-1.16-1.73-2.4-2.58-3.72c1.53-0.07,2.95-0.74,4.26-1.99c3.39-0.06,6.46-0.68,9.23-1.82 c-6.31-2.31-11.91-5.2-16.8-8.75c0.99-0.23,1.92-0.86,2.79-1.89c2.75-0.06,5.24-0.68,7.49-1.82c1.34-0.43,2.47-1.2,3.37-2.29 c-4.66-2.25-8.95-5.56-12.86-9.92c3.09,0.58,5.41-0.27,6.94-2.55c-4.5-2.68-8.58-6.85-12.23-12.51c1.11-0.16,2.18-0.65,3.18-1.42 c-3.79-2.62-6.7-6.15-8.79-10.11c4.58,2.31,8.4,2.12,11.52-0.19c-4.34-2.84-8.07-6.57-11.2-11.33c2.94,1.25,5.45,0.8,7.57-1.13 c-7.43-5.99-12.67-15.93-15.77-31.21c-2.52,15.03-7.85,25.58-16.23,31.64c2.96,2.34,6.05,1.69,9.28-1.94 c-0.15,0.78-0.33,1.53-0.54,2.25c-3.28,5.13-7.44,9.18-12.49,12.15c3.3,2.12,6.73,1.79,10.3-0.99c0.29-0.01,0.59-0.05,0.9-0.1 c-1.3,4.67-4.08,8.2-8.36,10.61c0.8,0.9,1.8,1.49,3.01,1.77c-3.21,5.22-6.88,9.6-11,13.16c1.79,1.09,3.87,1.49,6.24,1.21 c-3.59,4.39-7.6,8.14-12.04,11.26c1.2,0.6,2.5,0.98,3.91,1.17c-0.71,0.31-1.42,0.62-2.15,0.91c2.62,1.15,5.29,1.58,8.03,1.28 c0.46,1.36,1.54,2.19,3.25,2.47c-5.07,3.54-11.06,6.45-18,8.72c3.22,1.15,6.51,1.58,9.88,1.28c0.58,1.4,1.98,2.23,4.21,2.49 c-0.73,1.02-1.48,2.01-2.23,2.97c-1.96,1.05-4.21,1.97-6.76,2.77c0.92,0.58,2,1.03,3.23,1.35c-2.25,2.43-4.59,4.56-7.02,6.41 c0.29,0.2,0.58,0.4,0.87,0.58C143.77,159.43,139.96,161.63,135.94,163.55z"></path> <path class="st1" d="M213.35,219.08c1.28,0.39,2.72,0.59,4.32,0.6c-0.97,0.68-1.97,1.3-2.99,1.87c0.19,0.1,0.37,0.19,0.56,0.27 c-1.07,0.53-2.17,1.04-3.3,1.52h50.13c-1.3-0.44-2.57-0.93-3.81-1.47c0.27-0.13,0.54-0.27,0.81-0.42c-0.94-0.38-1.87-0.84-2.78-1.4 c1.97-0.03,3.51-0.45,4.61-1.27c-2.33-0.7-4.55-1.61-6.64-2.73c0.22-0.13,0.44-0.27,0.66-0.42c-1.37-0.67-2.71-1.64-4-2.9 c0.53-0.11,1.04-0.26,1.53-0.45c-1.13-0.39-2.18-0.82-3.14-1.29c-0.45-0.54-0.9-1.12-1.34-1.74c0.8-0.03,1.54-0.34,2.22-0.93 c1.77-0.03,3.37-0.32,4.81-0.85c-3.29-1.07-6.21-2.42-8.76-4.08c0.52-0.11,1.01-0.4,1.46-0.88c1.43-0.03,2.73-0.32,3.9-0.85 c0.7-0.2,1.29-0.56,1.76-1.07c-2.43-1.05-4.66-2.6-6.7-4.63c1.62,0.27,2.82-0.12,3.62-1.19c-2.34-1.25-4.47-3.2-6.37-5.84 c0.58-0.07,1.14-0.3,1.66-0.66c-1.97-1.22-3.49-2.87-4.58-4.72c2.38,1.07,4.37,0.99,6-0.09c-2.26-1.33-4.21-3.07-5.84-5.29 c1.53,0.58,2.85,0.37,3.95-0.53c-3.87-2.79-6.61-7.43-8.22-14.56c-1.32,7.02-4.09,11.94-8.46,14.77c1.54,1.09,3.16,0.78,4.84-0.91 c-0.08,0.36-0.17,0.71-0.28,1.05c-1.71,2.39-3.88,4.28-6.51,5.67c1.72,0.99,3.51,0.84,5.37-0.46c0.15-0.01,0.31-0.02,0.47-0.05 c-0.68,2.18-2.13,3.83-4.36,4.95c0.42,0.42,0.94,0.7,1.57,0.83c-1.67,2.43-3.58,4.48-5.73,6.14c0.93,0.5,2.01,0.69,3.25,0.56 c-1.87,2.04-3.96,3.8-6.27,5.25c0.63,0.27,1.31,0.45,2.04,0.54c-0.37,0.15-0.74,0.29-1.12,0.43c1.37,0.54,2.76,0.74,4.19,0.6 c0.23,0.63,0.8,1.02,1.69,1.15c-2.64,1.65-5.76,3.01-9.38,4.07c1.68,0.54,3.4,0.74,5.15,0.6c0.3,0.65,1.03,1.04,2.19,1.16 c-0.38,0.48-0.77,0.94-1.16,1.39c-1.02,0.49-2.19,0.92-3.52,1.29c0.48,0.27,1.04,0.48,1.68,0.63c-1.17,1.13-2.39,2.13-3.66,2.99 c0.15,0.09,0.3,0.19,0.45,0.27C217.46,217.14,215.48,218.16,213.35,219.08z"></path> <path class="st1" d="M276.91,217.73c2.55,1.04,5.42,1.58,8.61,1.62c-1.51,1.42-3.05,2.75-4.62,3.98h85.69 c-1.42-0.86-2.83-1.85-4.21-2.99c3.92-0.07,6.97-1.21,9.17-3.4c-4.65-1.86-9.06-4.29-13.22-7.3c0.44-0.34,0.88-0.72,1.31-1.13 c-2.74-1.81-5.4-4.4-7.97-7.77c1.04-0.31,2.06-0.72,3.04-1.22c-2.25-1.05-4.33-2.21-6.25-3.46c-0.9-1.45-1.79-3-2.67-4.65 c1.59-0.08,3.07-0.91,4.42-2.48c3.52-0.08,6.71-0.86,9.58-2.28c-6.55-2.88-12.36-6.49-17.43-10.93c1.03-0.29,2-1.08,2.9-2.36 c2.85-0.07,5.44-0.85,7.77-2.27c1.4-0.54,2.56-1.49,3.5-2.86c-4.83-2.81-9.28-6.94-13.34-12.39c3.21,0.73,5.61-0.33,7.2-3.18 c-4.68-3.34-8.9-8.55-12.69-15.63c1.16-0.21,2.26-0.82,3.3-1.78c-3.93-3.27-6.95-7.68-9.12-12.63c4.75,2.88,8.71,2.64,11.95-0.24 c-4.5-3.55-8.37-8.21-11.62-14.16c3.04,1.56,5.65,1,7.85-1.41c-7.71-7.49-13.16-19.91-16.37-39c-2.62,18.78-8.15,31.96-16.84,39.53 c3.07,2.92,6.28,2.11,9.63-2.42c-0.15,0.97-0.34,1.91-0.56,2.81c-3.41,6.41-7.72,11.47-12.96,15.18c3.42,2.64,6.99,2.23,10.69-1.24 c0.3-0.02,0.62-0.06,0.94-0.13c-1.34,5.83-4.23,10.25-8.67,13.26c0.83,1.12,1.88,1.86,3.13,2.21c-3.33,6.52-7.14,11.99-11.41,16.44 c1.85,1.36,4.01,1.86,6.47,1.51c-3.72,5.48-7.88,10.17-12.49,14.06c1.24,0.74,2.59,1.23,4.05,1.46c-0.73,0.39-1.47,0.77-2.23,1.14 c2.71,1.44,5.49,1.97,8.33,1.6c0.47,1.7,1.6,2.72,3.37,3.08c-5.26,4.42-11.48,8.05-18.68,10.89c3.34,1.44,6.76,1.97,10.25,1.6 c0.6,1.76,2.05,2.8,4.36,3.12c-0.76,1.28-1.53,2.52-2.31,3.71c-2.03,1.31-4.37,2.46-7.01,3.46c0.96,0.72,2.08,1.29,3.35,1.69 c-2.34,3.03-4.77,5.7-7.29,8.01c0.3,0.26,0.6,0.5,0.9,0.73C285.02,212.56,281.07,215.31,276.91,217.73z"></path> <path class="st1" d="M380.8,180.96c-1.75,0.65-3.71,0.99-5.89,1.01c1.32,1.14,2.68,2.18,4.07,3.13c-0.25,0.17-0.5,0.32-0.76,0.46 c3.1,1.91,6.42,3.63,9.95,5.15c-4.22,1.28-9.49,1.34-15.81,0.19c1.09,0.67,2.27,1.31,3.55,1.92c-0.45,1.61-2.36,2.45-5.74,2.52 c2.73,2.78,6.73,5.18,12,7.22c-0.49,1.41-2.36,2.23-5.61,2.46c5.01,4.32,10.43,7.83,16.26,10.55c-1.91,0.85-3.91,1.43-5.99,1.75 c3.6,2.25,7.36,4.25,11.28,5.99h-97.97c3.87-1.51,7.61-3.46,11.24-5.87c-2.31-0.34-4.52-1.02-6.61-2.03 c5.99-2.02,11.65-5.58,16.99-10.69c-2.39-0.07-4.55-0.83-6.5-2.27c5.03-1.47,9.16-3.97,12.4-7.49c-2.27,0.15-4.31-0.6-6.12-2.25 c1.02-0.37,1.99-0.8,2.92-1.29c-7.42,1.55-12.71,1.14-15.88-1.21c3.91-1.16,7.62-2.68,11.12-4.56c-0.38-0.21-0.75-0.44-1.11-0.7 c1.28-0.63,2.54-1.41,3.78-2.34c-2.68-0.05-4.77-0.76-6.27-2.13c3.18-1.16,6.19-2.68,9.04-4.56c-0.31-0.22-0.6-0.45-0.9-0.71 c1.87-1.13,3.69-2.75,5.45-4.86c-0.71-0.19-1.41-0.45-2.08-0.76c1.53-0.65,2.96-1.38,4.27-2.16c0.62-0.91,1.23-1.88,1.83-2.91 c-1.09-0.05-2.09-0.57-3.02-1.55c-2.41-0.04-4.59-0.53-6.55-1.42c4.48-1.8,8.45-4.06,11.92-6.84c-0.7-0.18-1.36-0.68-1.98-1.48 c-1.96-0.05-3.73-0.53-5.32-1.42c-0.95-0.34-1.75-0.94-2.39-1.79c3.3-1.76,6.34-4.34,9.12-7.75c-2.19,0.46-3.83-0.21-4.92-1.99 c3.19-2.1,6.08-5.36,8.67-9.78c-0.79-0.13-1.55-0.51-2.26-1.11c2.69-2.05,4.76-4.8,6.24-7.9c-3.25,1.8-5.95,1.65-8.17-0.15 c3.07-2.22,5.72-5.14,7.94-8.86c-2.08,0.98-3.87,0.63-5.37-0.88c5.27-4.68,8.99-12.45,11.19-24.39 c1.8,11.74,5.58,19.98,11.52,24.72c-2.1,1.82-4.3,1.32-6.59-1.52c0.1,0.61,0.23,1.2,0.38,1.76c2.33,4.01,5.27,7.18,8.86,9.5 c-2.34,1.65-4.78,1.39-7.31-0.78c-0.21-0.01-0.42-0.04-0.64-0.08c0.92,3.64,2.9,6.41,5.93,8.29c-0.57,0.71-1.28,1.17-2.14,1.39 c2.28,4.07,4.88,7.5,7.8,10.28c-1.27,0.85-2.75,1.16-4.43,0.94c2.54,3.43,5.39,6.36,8.54,8.8c-0.85,0.46-1.77,0.76-2.77,0.91 c0.5,0.24,1,0.48,1.52,0.71c-1.86,0.9-3.76,1.23-5.7,1c-0.32,1.06-1.09,1.71-2.3,1.93c3.6,2.76,7.85,5.03,12.77,6.81 c-2.29,0.9-4.62,1.23-7.01,1c-0.41,1.1-1.4,1.75-2.98,1.95c0.52,0.8,1.05,1.57,1.58,2.32c1.39,0.82,2.98,1.55,4.79,2.17 c-0.65,0.46-1.42,0.81-2.29,1.06c1.59,1.9,3.26,3.57,4.98,5.01c-0.21,0.17-0.41,0.32-0.62,0.46 C375.23,177.75,377.92,179.47,380.8,180.96z"></path> <path class="st1" d="M249.88,194.05c1.49,0.45,3.16,0.68,5.02,0.7c-1.13,0.79-2.28,1.51-3.47,2.17c0.22,0.12,0.43,0.22,0.65,0.32 c-2.65,1.33-5.48,2.52-8.49,3.57c3.6,0.88,8.09,0.93,13.48,0.13c-0.93,0.47-1.94,0.91-3.03,1.33c0.39,1.12,2.02,1.7,4.9,1.75 c-2.33,1.92-5.74,3.59-10.23,5c0.41,0.98,2.01,1.55,4.78,1.71c-4.27,2.99-8.89,5.43-13.86,7.31c1.63,0.58,3.34,0.99,5.11,1.21 c-3.04,1.55-6.21,2.92-9.51,4.12h83.34c-3.25-1.04-6.4-2.38-9.46-4.03c1.98-0.24,3.86-0.71,5.64-1.41 c-5.11-1.4-9.94-3.87-14.49-7.41c2.03-0.05,3.88-0.57,5.54-1.57c-4.29-1.02-7.82-2.75-10.58-5.19c1.94,0.1,3.68-0.42,5.22-1.56 c-0.87-0.26-1.7-0.56-2.49-0.9c6.33,1.07,10.84,0.79,13.54-0.84c-3.33-0.8-6.49-1.86-9.48-3.16c0.32-0.15,0.63-0.31,0.94-0.49 c-1.1-0.44-2.17-0.98-3.23-1.63c2.28-0.03,4.06-0.52,5.34-1.47c-2.71-0.8-5.28-1.86-7.71-3.16c0.26-0.15,0.52-0.31,0.77-0.49 c-1.6-0.79-3.15-1.91-4.65-3.37c0.6-0.13,1.2-0.31,1.77-0.53c-1.31-0.45-2.52-0.96-3.64-1.5c-0.53-0.63-1.05-1.3-1.56-2.02 c0.93-0.04,1.79-0.4,2.58-1.08c2.05-0.04,3.91-0.37,5.58-0.99c-3.82-1.25-7.2-2.81-10.16-4.74c0.6-0.12,1.16-0.46,1.69-1.02 c1.66-0.03,3.17-0.36,4.53-0.98c0.81-0.23,1.49-0.65,2.04-1.24c-2.82-1.22-5.41-3.01-7.78-5.37c1.87,0.32,3.27-0.14,4.2-1.38 c-2.73-1.45-5.19-3.71-7.4-6.78c0.68-0.09,1.32-0.36,1.93-0.77c-2.29-1.42-4.06-3.33-5.32-5.48c2.77,1.25,5.08,1.15,6.97-0.1 c-2.62-1.54-4.88-3.56-6.77-6.14c1.78,0.68,3.3,0.43,4.58-0.61c-4.49-3.24-7.67-8.62-9.54-16.9c-1.53,8.14-4.75,13.85-9.82,17.13 c1.79,1.27,3.66,0.92,5.61-1.05c-0.09,0.42-0.2,0.83-0.33,1.22c-1.99,2.78-4.5,4.97-7.56,6.58c1.99,1.14,4.07,0.96,6.23-0.54 c0.18-0.01,0.36-0.03,0.55-0.06c-0.79,2.53-2.47,4.45-5.06,5.75c0.48,0.49,1.09,0.81,1.82,0.96c-1.94,2.82-4.16,5.19-6.65,7.12 c1.08,0.58,2.34,0.8,3.77,0.65c-2.17,2.38-4.59,4.41-7.28,6.1c0.72,0.32,1.51,0.53,2.36,0.63c-0.43,0.17-0.86,0.33-1.3,0.49 c1.59,0.62,3.2,0.85,4.86,0.69c0.27,0.74,0.93,1.19,1.96,1.34c-3.07,1.91-6.69,3.49-10.89,4.72c1.95,0.62,3.94,0.85,5.98,0.69 c0.35,0.76,1.19,1.21,2.54,1.35c-0.44,0.56-0.89,1.09-1.35,1.61c-1.19,0.57-2.55,1.07-4.09,1.5c0.56,0.31,1.22,0.56,1.96,0.73 c-1.36,1.31-2.78,2.47-4.25,3.47c0.18,0.12,0.35,0.22,0.53,0.32C254.61,191.78,252.31,192.97,249.88,194.05z"></path> <path class="st1" d="M371.29,206.13c0.89,0.27,1.88,0.41,2.99,0.42c-0.67,0.47-1.35,0.9-2.06,1.29c0.13,0.07,0.26,0.13,0.39,0.19 c-1.58,0.79-3.26,1.49-5.05,2.12c2.14,0.53,4.81,0.56,8.02,0.08c-0.55,0.28-1.15,0.54-1.8,0.79c0.23,0.66,1.2,1.01,2.91,1.04 c-1.39,1.15-3.42,2.14-6.09,2.98c0.25,0.58,1.2,0.91,2.85,1.01c-2.55,1.78-5.29,3.23-8.25,4.35c0.97,0.35,1.99,0.59,3.04,0.72 c-1.61,0.82-3.29,1.56-5.03,2.22h48.26c-1.69-0.59-3.33-1.31-4.93-2.17c1.18-0.14,2.3-0.42,3.36-0.84 c-3.04-0.83-5.91-2.3-8.62-4.41c1.2-0.02,2.3-0.33,3.29-0.93c-2.55-0.61-4.65-1.64-6.29-3.09c1.16,0.06,2.19-0.25,3.11-0.93 c-0.51-0.15-1.01-0.33-1.48-0.53c3.76,0.64,6.44,0.47,8.05-0.5c-1.98-0.48-3.86-1.1-5.64-1.88c0.19-0.09,0.38-0.18,0.56-0.29 c-0.65-0.26-1.29-0.59-1.92-0.97c1.36-0.02,2.42-0.31,3.18-0.88c-1.62-0.48-3.15-1.1-4.59-1.88c0.16-0.09,0.31-0.18,0.46-0.29 c-0.95-0.46-1.87-1.13-2.76-2c0.37-0.07,0.72-0.18,1.06-0.31c-0.78-0.27-1.5-0.57-2.17-0.89c-0.32-0.37-0.62-0.77-0.93-1.2 c0.55-0.02,1.06-0.24,1.53-0.64c1.22-0.02,2.32-0.22,3.32-0.59c-2.28-0.74-4.29-1.67-6.05-2.82c0.35-0.08,0.69-0.28,1-0.61 c0.99-0.02,1.89-0.22,2.7-0.59c0.48-0.14,0.88-0.39,1.21-0.74c-1.68-0.72-3.22-1.79-4.63-3.19c1.12,0.19,1.95-0.08,2.5-0.82 c-1.62-0.86-3.09-2.21-4.4-4.03c0.41-0.06,0.79-0.21,1.15-0.46c-1.36-0.85-2.41-1.98-3.16-3.26c1.64,0.74,3.02,0.68,4.14-0.06 c-1.56-0.91-2.9-2.12-4.03-3.65c1.05,0.41,1.96,0.26,2.72-0.36c-2.68-1.93-4.57-5.14-5.68-10.06c-0.91,4.84-2.82,8.24-5.84,10.19 c1.06,0.75,2.18,0.54,3.34-0.63c-0.05,0.26-0.11,0.5-0.19,0.73c-1.19,1.66-2.68,2.96-4.5,3.92c1.19,0.68,2.43,0.57,3.71-0.32 c0.11,0,0.22-0.01,0.33-0.03c-0.47,1.51-1.47,2.64-3.01,3.42c0.29,0.29,0.66,0.48,1.09,0.57c-1.16,1.68-2.48,3.09-3.96,4.24 c0.64,0.35,1.39,0.48,2.24,0.39c-1.29,1.42-2.73,2.63-4.33,3.63c0.43,0.19,0.9,0.32,1.41,0.38c-0.25,0.1-0.51,0.2-0.77,0.29 c0.94,0.37,1.91,0.51,2.89,0.41c0.17,0.43,0.55,0.7,1.17,0.79c-1.83,1.14-3.98,2.08-6.48,2.81c1.16,0.37,2.35,0.51,3.56,0.41 c0.2,0.45,0.71,0.72,1.51,0.8c-0.26,0.33-0.53,0.65-0.8,0.96c-0.7,0.34-1.51,0.63-2.43,0.89c0.33,0.19,0.72,0.34,1.16,0.44 c-0.81,0.78-1.65,1.46-2.53,2.06c0.1,0.07,0.2,0.13,0.31,0.19C374.13,204.8,372.76,205.5,371.29,206.13z"></path> <path class="st1" d="M389.37,208.85c1.25,0.46,2.65,0.69,4.22,0.71c-0.95,0.79-1.92,1.52-2.92,2.18c0.19,0.12,0.37,0.22,0.55,0.32 c-2.22,1.33-4.61,2.53-7.14,3.59c3.03,0.89,6.82,0.93,11.35,0.13c-0.79,0.47-1.63,0.92-2.55,1.34c0.32,1.12,1.7,1.71,4.12,1.76 c-1.69,1.66-4.04,3.14-7.07,4.42h44.85c-2.87-1.06-5.28-2.62-7.24-4.69c1.63,0.11,3.09-0.42,4.39-1.57 c-0.74-0.25-1.43-0.56-2.1-0.9c5.32,1.08,9.12,0.8,11.39-0.84c-2.81-0.82-5.47-1.88-7.98-3.19c0.26-0.15,0.53-0.31,0.79-0.49 c-0.93-0.44-1.83-0.99-2.72-1.64c1.92-0.03,3.42-0.52,4.5-1.48c-2.29-0.82-4.45-1.88-6.49-3.19c0.21-0.15,0.43-0.31,0.64-0.49 c-1.34-0.79-2.65-1.92-3.91-3.39c0.51-0.13,1.01-0.31,1.49-0.53c-1.11-0.46-2.13-0.96-3.07-1.51c-0.44-0.63-0.88-1.31-1.31-2.03 c0.78-0.03,1.51-0.4,2.17-1.08c1.73-0.03,3.29-0.37,4.7-0.99c-3.21-1.25-6.06-2.83-8.55-4.77c0.5-0.13,0.98-0.47,1.42-1.03 c1.4-0.03,2.67-0.37,3.81-0.99c0.69-0.24,1.26-0.65,1.72-1.25c-2.38-1.23-4.56-3.03-6.55-5.41c1.57,0.32,2.75-0.14,3.53-1.39 c-2.29-1.46-4.36-3.73-6.22-6.82c0.57-0.09,1.11-0.35,1.62-0.77c-1.93-1.43-3.42-3.36-4.48-5.52c2.33,1.26,4.27,1.16,5.86-0.1 c-2.21-1.55-4.11-3.58-5.7-6.18c1.49,0.68,2.77,0.43,3.85-0.62c-3.78-3.27-6.45-8.69-8.03-17.03c-1.29,8.2-4,13.96-8.27,17.26 c1.51,1.27,3.09,0.92,4.73-1.06c-0.08,0.43-0.17,0.84-0.28,1.23c-1.67,2.8-3.79,5.01-6.36,6.63c1.68,1.16,3.43,0.97,5.25-0.54 c0.15-0.01,0.3-0.03,0.46-0.06c-0.66,2.55-2.08,4.48-4.26,5.79c0.4,0.49,0.91,0.82,1.53,0.97c-1.64,2.85-3.5,5.24-5.6,7.18 c0.91,0.59,1.97,0.81,3.18,0.66c-1.83,2.39-3.87,4.44-6.13,6.14c0.61,0.33,1.27,0.54,1.99,0.64c-0.35,0.17-0.72,0.34-1.09,0.5 c1.33,0.63,2.7,0.86,4.09,0.7c0.23,0.75,0.78,1.19,1.65,1.35c-2.59,1.92-5.64,3.51-9.17,4.75c1.64,0.63,3.32,0.86,5.03,0.7 c0.29,0.77,1.01,1.22,2.14,1.36c-0.37,0.56-0.75,1.1-1.13,1.62c-1,0.57-2.14,1.07-3.44,1.51c0.48,0.32,1.02,0.56,1.65,0.74 c-1.15,1.32-2.34,2.48-3.58,3.49c0.14,0.11,0.29,0.22,0.44,0.32C393.33,206.62,391.39,207.82,389.37,208.85z"></path> </g> </svg> 